<svg width="60" height="64" viewBox="0 0 60 64" fill="none" xmlns="http://www.w3.org/2000/svg">
<g clip-path="url(#clip0_51_6886)">
<path d="M60 64C39.804 64 19.9443 64 0.0397177 64C-0.281685 59.129 1.34775 55.0848 4.92055 51.83C7.59642 49.3945 10.7731 47.7708 14.0768 46.3483C15.8183 45.596 17.53 44.7842 19.2491 43.9947C20.46 43.4361 21.0953 42.6168 20.9608 41.1645C20.8188 39.5334 20.9533 37.8799 20.9085 36.2339C20.901 35.8913 20.6992 35.4593 20.4376 35.2433C17.2908 32.5918 15.3101 29.2849 15.1457 25.1662C14.9812 21.0549 14.757 16.8915 15.183 12.81C16.0202 4.77359 23.6217 -0.90176 31.6418 0.118615C39.191 1.07941 44.6026 6.92607 44.7969 14.523C44.8941 18.2694 44.8567 22.038 44.61 25.7769C44.3559 29.6275 42.3303 32.6663 39.4377 35.139C39.0117 35.504 38.8472 35.8541 38.8547 36.3978C38.8846 38.2598 38.8921 40.1218 38.8547 41.9837C38.8398 42.7285 39.0864 43.2499 39.7218 43.5925C40.5664 44.0468 41.4259 44.4863 42.293 44.9034C45.3949 46.393 48.5939 47.7187 51.5912 49.3945C55.1341 51.3682 57.8847 54.2208 59.0732 58.198C59.6188 60.0079 59.6935 61.989 60 64ZM56.5916 61.0134C56.188 57.7437 54.6931 55.2188 52.1742 53.2302C49.7301 51.3012 46.9271 50.0648 44.1242 48.7838C42.0089 47.8155 39.9161 46.8026 37.8905 45.6631C36.4928 44.8736 35.9023 43.4733 35.8873 41.8869C35.8649 39.5631 35.8574 37.2319 35.9023 34.9082C35.9098 34.5804 36.1415 34.141 36.4031 33.9474C39.9385 31.415 41.7623 27.9815 41.8445 23.6692C41.9043 20.5708 41.8968 17.465 41.8445 14.3592C41.8071 12.013 41.1419 9.82333 39.7367 7.92409C36.7619 3.90218 32.7107 2.52432 27.8523 3.14995C22.5304 3.83517 17.9561 8.98917 17.9411 14.3368C17.9336 17.3458 17.9336 20.3548 17.9411 23.3638C17.9561 27.7953 19.7425 31.3182 23.3452 33.9399C23.6367 34.1485 23.8758 34.6102 23.8908 34.9677C23.9581 36.2339 23.9132 37.5075 23.9132 38.7811C23.9132 39.4663 23.846 40.1516 23.9282 40.8293C24.2571 43.6894 22.8219 45.5141 20.4152 46.6909C18.3522 47.6964 16.2444 48.6125 14.1291 49.5137C11.244 50.7426 8.53822 52.2322 6.3183 54.4815C4.53937 56.2839 3.50789 58.4363 3.23134 61.0134C21.0355 61.0134 38.7725 61.0134 56.5916 61.0134Z" fill="#DD017F"/>
</g>
<defs>
<clipPath id="clip0_51_6886">
<rect width="60" height="64" fill="white"/>
</clipPath>
</defs>
</svg>
