<svg width="66" height="53" viewBox="0 0 66 53" fill="none" xmlns="http://www.w3.org/2000/svg">
<g clip-path="url(#clip0_51_6911)">
<path d="M65.9802 44.0541C65.8548 44.67 65.7558 45.2924 65.6041 45.9016C64.6539 49.7355 61.4403 52.4968 57.5207 52.8345C56.4253 52.9272 55.3299 52.9868 54.2346 52.9868C39.6449 52.9934 25.0618 52.9868 10.4721 53C7.054 53 4.07799 52.0399 1.94662 49.1859C1.00961 47.9344 0.263951 46.5969 0.488306 44.8752C0.303543 45.1864 0.15177 45.4513 0 45.7162C0 35.1745 0 24.6328 0 14.0911C0.0725855 14.1772 0.138575 14.2566 0.270548 14.4089C0.996403 10.767 3.12117 8.40966 6.60528 7.22438C6.60528 6.72776 6.58549 6.23114 6.61188 5.74113C6.65807 4.64856 7.14637 4.04599 8.21535 4.02612C11.099 3.97977 13.9826 3.97978 16.8662 4.03275C17.9946 4.05262 18.4433 4.64194 18.4829 5.80735C18.4895 6.05236 18.4829 6.29735 18.4829 6.58871C20.8782 6.58871 23.234 6.58871 25.3851 6.58871C26.1968 5.1187 26.8632 3.67517 27.7475 2.38394C28.8692 0.75501 30.5981 0.0531274 32.5249 0.039884C37.3287 -0.00646767 42.1392 -0.019711 46.9496 0.039884C49.4505 0.0729924 51.2453 1.3907 52.3869 3.59572C52.7894 4.37708 53.1128 5.20479 53.3833 6.03912C53.5417 6.52912 53.799 6.63507 54.2742 6.66156C55.7787 6.73439 57.3029 6.75424 58.781 6.99925C62.219 7.56871 65.2148 10.7736 65.6965 14.2169C65.7295 14.4619 65.8944 14.6936 66 14.9254C65.9802 24.6261 65.9802 34.3401 65.9802 44.0541ZM9.23156 6.66816C9.23156 6.91979 9.23156 7.08533 9.23156 7.25087C9.21836 8.70102 8.9874 9.01223 7.62148 9.43602C7.41032 9.50223 7.19915 9.56184 6.99459 9.63468C4.4937 10.5683 2.63947 13.0779 2.63947 15.614C2.62627 24.9638 2.61968 34.3136 2.63947 43.6701C2.64607 47.4577 5.59568 50.3447 9.37012 50.3447C25.0618 50.3447 40.76 50.3513 56.4517 50.3513C60.3845 50.3513 63.2945 47.5901 63.3209 43.6502C63.3737 34.3799 63.3605 25.1161 63.3275 15.8458C63.3143 12.6078 61.0642 9.92603 57.8836 9.42278C56.4055 9.19102 54.868 9.28372 53.3635 9.29697C52.4463 9.30359 51.8458 8.95927 51.5093 8.10507C51.12 7.13169 50.7702 6.13843 50.2819 5.21802C49.4307 3.60895 48.1968 2.61571 46.2238 2.6422C41.8026 2.70179 37.3749 2.68853 32.9472 2.6488C31.0996 2.62894 29.8656 3.52288 29.021 5.03924C28.5393 5.90005 28.2094 6.84694 27.8398 7.76073C27.3251 9.0321 26.9754 9.28374 25.6227 9.29036C23.234 9.29036 20.8386 9.29036 18.4499 9.29036C16.2262 9.29036 15.9292 9.01225 15.8104 6.8271C15.8104 6.78075 15.7576 6.74101 15.7181 6.67479C13.5933 6.66817 11.4553 6.66816 9.23156 6.66816Z" fill="#DD017F"/>
<path d="M56 29.1238C55.9085 37.6693 49.4942 45.868 38.7123 45.9989C29.6173 46.1101 21.9869 38.0685 22 28.6658C22.0131 19.6885 29.8462 11.9544 38.9281 12.0002C48.8666 12.0591 55.8496 19.9437 56 29.1238ZM38.5489 43.3685C46.2642 43.7742 52.8615 37.6235 53.3781 29.7062C53.9208 21.4617 46.8592 14.696 39.4969 14.6044C30.9577 14.4932 25.0796 21.1346 24.635 27.9461C24.1512 35.3857 29.5192 43.1853 38.5489 43.3685Z" fill="#DD017F"/>
<path d="M7 15.5064C7 14.2124 8.1495 13.0256 9.44347 13.0004C10.7312 12.9751 12.0063 14.2187 12 15.5064C11.9937 16.7625 10.7814 17.9808 9.51884 17.9998C8.15578 18.0187 7 16.8762 7 15.5064Z" fill="#DD017F"/>
</g>
<defs>
<clipPath id="clip0_51_6911">
<rect width="66" height="53" fill="white"/>
</clipPath>
</defs>
</svg>
