<svg width="66" height="66" viewBox="0 0 66 66" fill="none" xmlns="http://www.w3.org/2000/svg">
<g clip-path="url(#clip0_51_6893)">
<rect width="66" height="66" fill="white"/>
<path d="M64 33.4895C63.6656 50.8877 49.8762 64 33.6661 64C16.8018 64 3.31041 50.8076 3.00511 33.9552C2.69254 16.6953 16.7582 3.12456 33.1863 3.00086C49.8616 2.87716 63.6584 16.1714 64 33.4895ZM5.8546 32.791C5.25854 47.7297 17.3979 60.8202 32.8374 61.1622C46.7723 61.4678 60.3 50.5311 61.0924 35.0321C61.9138 18.9874 49.3092 6.1516 34.1386 5.80232C19.0335 5.45305 6.07994 17.4229 5.8546 32.791Z" fill="#DD017F"/>
<path d="M66 46.9636C64.0558 51.3418 61.4782 55.145 58.1789 58.4544C55.0711 61.5721 51.5067 64.0265 47.5078 65.8618C46.9407 66.1198 46.7272 66.0313 46.4915 65.4712C45.7403 63.6949 45.7109 63.7022 47.3973 62.8546C54.4746 59.2946 59.6592 53.8846 63.0542 46.7425C63.393 46.035 63.7097 45.7844 64.4314 46.2045C64.9101 46.4919 65.4477 46.6983 66 46.9636Z" fill="#DD017F"/>
<path d="M18.8988 0C19.2634 0.861429 19.6281 1.69365 20 2.56968C16.959 3.87642 14.268 5.49708 11.8322 7.52655C7.9161 10.7825 4.87507 14.71 2.78938 19.3602C2.49038 20.0246 2.21326 20.1414 1.57151 19.8494C-0.331867 18.9733 -0.324569 19.4333 0.630766 17.4914C4.29896 10.0524 9.83406 4.46044 17.3017 0.810317C17.783 0.576709 18.2643 0.321211 18.8988 0Z" fill="#DD017F"/>
<path d="M31.3975 11C32.4184 11 33.3217 11 34.3352 11C34.3352 11.3506 34.3352 11.6655 34.3352 11.9875C34.3352 17.7048 34.3205 23.4293 34.3572 29.1467C34.3572 29.6189 34.7024 30.0984 34.9007 30.5635C35.1577 31.1503 35.5616 31.7084 35.6571 32.3166C35.7746 33.068 36.0317 33.6547 36.5825 34.1842C38.8665 36.381 41.1285 38.5993 43.3978 40.8104C43.6108 41.0179 43.8017 41.2325 44 41.4401C43.9192 41.5832 43.8972 41.6762 43.8384 41.7334C42.1199 43.415 42.1052 43.4293 40.3647 41.7334C38.4038 39.8157 36.4796 37.8551 34.4894 35.9588C34.1369 35.6225 33.5861 35.3721 33.1014 35.3077C31.045 35.0429 29.6717 33.5832 30.0683 31.9374C30.1637 31.5438 30.318 31.0644 30.6191 30.8426C31.4122 30.2343 31.4049 29.4615 31.4049 28.6029C31.3829 23.093 31.3975 17.5832 31.3975 12.0733C31.3975 11.737 31.3975 11.415 31.3975 11Z" fill="#DD017F"/>
</g>
<defs>
<clipPath id="clip0_51_6893">
<rect width="66" height="66" fill="white"/>
</clipPath>
</defs>
</svg>
