<svg width="66" height="66" viewBox="0 0 66 66" fill="none" xmlns="http://www.w3.org/2000/svg">
<path d="M0 35.4709C0.811638 34.8278 1.59028 34.1383 2.44151 33.5482C4.04499 32.4343 5.71446 31.4199 7.30474 30.2862C7.95801 29.8155 8.57829 29.2187 9.0336 28.5557C10.4325 26.5137 11.8248 24.4517 13.0786 22.3168C15.1242 18.8493 18.12 17.1852 22.0792 17.2647C22.9832 17.2846 23.3395 16.9664 23.6431 16.1509C25.4775 11.2247 28.8956 8.10195 34.1086 7.1207C35.7121 6.82234 36.8998 5.99359 37.9028 4.72061C39.183 3.10287 40.5687 1.57133 41.9082 0C42.1854 0 42.4559 0 42.7331 0C42.9706 0.179012 43.1818 0.39779 43.4457 0.523762C50.3413 3.78576 57.171 7.22015 64.06 10.502C64.7331 10.8203 65.4457 11.2446 66 11.6026C66 11.7154 66 11.8214 66 11.9341C64.0534 15.2426 62.1068 18.5509 60.1338 21.9058C62.0672 23.1191 63.3275 24.77 63.3473 27.0971C63.3671 29.411 62.0936 31.0619 60.2855 32.3283C61.5921 33.8134 62.3114 35.3913 61.955 37.3207C61.6119 39.1904 60.5033 40.5496 58.9724 41.5772C61.6515 44.9519 61.3083 47.3852 57.6791 50.9256C57.844 51.1312 58.0222 51.3301 58.1806 51.5489C59.6323 53.6175 59.817 55.7855 58.5765 57.9999C57.4151 60.0685 55.5213 60.937 53.225 60.9835C51.252 61.0232 49.2724 60.9901 47.2664 60.9901C46.6527 62.9526 45.4583 64.2919 43.4655 64.809C41.4199 65.3394 39.7702 64.5438 38.2657 63.1648C37.1506 64.2786 35.8638 64.9615 34.3 64.9681C32.7295 64.9748 31.4757 64.2189 30.3473 63.1581C29.2124 64.2985 27.9256 64.9681 26.3551 64.9681C24.7912 64.9615 23.5375 64.2123 22.4619 63.1913C22.3563 63.251 22.3299 63.2642 22.3101 63.2775C18.9976 66.1416 15.4409 65.3726 13.6065 61.4277C13.5075 61.2155 13.1314 61.0166 12.874 61.01C11.0594 60.9768 9.24476 60.9901 7.43012 60.9901C5.96521 60.9901 5.58908 60.7182 5.26574 59.2795C4.43431 55.5932 3.58308 51.9201 2.83083 48.2206C2.04559 44.3685 0.805042 40.596 0.580687 36.6378M22.066 19.9035C19.2286 19.8107 17.1566 20.7853 15.6917 23.0793C14.108 25.5656 12.4715 28.0187 10.7954 30.4453C10.3533 31.0884 9.73965 31.652 9.10617 32.1028C7.22555 33.4421 5.29214 34.7151 3.37193 35.9947C2.92322 36.293 2.79124 36.5848 2.92321 37.1549C3.53029 39.7871 4.06479 42.4325 4.63887 45.0713C5.55609 49.2681 6.47991 53.4716 7.43012 57.6618C7.48951 57.9137 7.77325 58.3049 7.96461 58.3115C9.68687 58.3646 11.4091 58.3381 13.1776 58.3381C13.171 55.7987 13.6395 53.5578 16.0744 52.3246C18.4829 51.1046 20.5879 51.7809 22.4487 53.5114C25.1476 51.045 27.7936 51.1643 30.4001 53.518C31.5219 52.3776 32.802 51.7212 34.3329 51.7212C35.9034 51.7146 37.1638 52.4704 38.279 53.518C40.186 51.7411 42.2579 51.1312 44.6401 52.3378C47.0882 53.5777 47.4775 55.8584 47.5369 58.3447C47.8338 58.3447 48.078 58.3447 48.3155 58.3447C50.183 58.3447 52.057 58.411 53.9244 58.3049C55.1254 58.2386 56.0096 57.5093 56.4781 56.3557C57.4349 53.9821 55.937 51.7345 53.3965 51.708C53.1194 51.708 52.8422 51.7014 52.5717 51.6682C51.6281 51.5489 51.1398 51.098 51.1332 50.3753C51.1266 49.6924 51.6941 49.1421 52.5783 49.0825C53.3701 49.0294 54.1686 49.0758 54.967 49.056C56.6299 49.0228 57.844 47.8294 58.0354 46.0791C58.2202 44.3884 57.2964 42.9496 55.7193 42.5585C55.165 42.4192 54.5777 42.4126 54.0102 42.3264C53.3305 42.227 52.862 41.8557 52.8488 41.1463C52.8356 40.4567 53.2184 39.9794 53.9244 39.8998C54.7163 39.8136 55.5081 39.807 56.3065 39.7738C57.778 39.7208 58.8932 38.7992 59.2496 37.3406C59.6455 35.7295 59.1044 34.2046 57.7978 33.5615C57.2502 33.2896 56.5969 33.2101 55.9766 33.1438C54.7756 33.0112 54.1686 32.62 54.1554 31.8575C54.1422 31.0089 54.802 30.5381 56.069 30.4984C56.4781 30.4851 56.8938 30.5116 57.3029 30.4984C57.6329 30.4851 57.9694 30.4851 58.2861 30.4122C59.9094 30.021 60.8794 28.5425 60.7013 26.7722C60.5231 25.0551 59.2298 23.8683 57.4745 23.8683C50.4667 23.8617 43.4523 23.8683 36.4445 23.8683C34.6101 23.8683 34.6431 23.8815 33.9502 25.6319C32.7757 28.6287 31.6473 31.652 30.3341 34.5957C28.8296 37.9638 25.2004 39.2832 21.8218 37.9174C18.8854 36.7306 16.886 33.1504 18.2717 29.6298C19.2088 27.2496 20.126 24.8562 21.0498 22.4693C21.3665 21.6538 21.6899 20.845 22.066 19.9035ZM62.7733 12.4778C62.4103 12.2988 62.021 12.1065 61.6317 11.9209C58.8734 10.628 56.1086 9.34178 53.3569 8.03565C50.0378 6.45769 46.7187 4.86646 43.4127 3.25535C42.8188 2.96363 42.4625 2.96364 42.0468 3.56035C41.3143 4.62779 40.4763 5.61566 39.7043 6.65658C38.4769 8.30748 36.847 9.27547 34.8278 9.60034C30.7499 10.2567 27.919 12.5109 26.3485 16.3498C24.6197 20.5797 22.8974 24.8164 21.195 29.053C20.9376 29.6895 20.7199 30.3459 20.5615 31.0155C20.0864 33.0178 21.2544 35.0665 23.2076 35.63C25.1278 36.187 27.2393 35.6566 28.2621 33.0178C29.5423 29.7094 30.9082 26.4275 32.2411 23.139C32.9934 21.2958 33.1122 21.2229 35.0984 21.2229C42.2975 21.2229 49.4967 21.2295 56.6959 21.2096C57.0258 21.2096 57.5075 21.0637 57.6593 20.8251C59.3815 18.0669 61.0576 15.2889 62.7733 12.4778ZM23.7553 58.2916C23.7553 58.8419 23.7355 59.3989 23.7619 59.9492C23.8212 61.2022 24.7648 62.2034 25.979 62.3227C27.3185 62.4553 28.6779 61.7128 28.8296 60.4995C29.0078 59.0674 29.021 57.5822 28.8428 56.1568C28.6911 54.897 27.3449 54.2009 25.913 54.3799C24.7318 54.5258 23.8014 55.5203 23.7553 56.727C23.7355 57.2375 23.7553 57.7679 23.7553 58.2916ZM31.6737 58.2651C31.6737 58.7889 31.6605 59.3127 31.6737 59.8365C31.7133 61.1625 32.6239 62.1835 33.871 62.3161C35.2369 62.462 36.5897 61.6995 36.7547 60.4332C36.9328 59.0541 36.946 57.6286 36.7876 56.2496C36.6359 54.9236 35.3293 54.2009 33.8512 54.3666C32.6305 54.5059 31.7067 55.5203 31.6737 56.7733C31.6605 57.2772 31.6737 57.7745 31.6737 58.2651ZM39.5921 58.285C39.5921 58.7823 39.5855 59.2795 39.5921 59.7768C39.6185 61.1227 40.4895 62.157 41.7235 62.3227C43.1026 62.5018 44.5081 61.7393 44.6863 60.4265C44.871 59.0276 44.8644 57.569 44.6797 56.17C44.5081 54.8904 43.1818 54.2009 41.7565 54.3799C40.5291 54.5324 39.6251 55.5402 39.5921 56.8065C39.5789 57.2905 39.5921 57.7878 39.5921 58.285ZM15.8368 58.1856C15.8434 58.7359 15.8104 59.2862 15.85 59.8365C15.9358 61.2354 16.8926 62.21 18.2453 62.3161C19.5783 62.4156 20.8122 61.6001 20.9772 60.2475C21.1356 58.9547 21.129 57.6088 20.9706 56.3093C20.8056 54.9501 19.5783 54.2274 18.087 54.3666C16.7804 54.4926 15.8566 55.5136 15.8368 56.8662C15.8302 57.3038 15.8368 57.748 15.8368 58.1856Z" fill="#DD017F"/>
</svg>
