<svg width="60" height="60" viewBox="0 0 60 60" fill="none" xmlns="http://www.w3.org/2000/svg">
<g clip-path="url(#clip0_51_6945)">
<path d="M59.9929 35.0491C59.9929 42.5758 59.9929 50.1025 59.9929 57.6363C59.9929 59.443 59.4411 60 57.6641 60C44.888 60 32.1048 60 19.3288 60C17.5517 60 17 59.4358 17 57.6292C17 42.5401 17 27.4581 17 12.369C17 10.5695 17.5446 10.0054 19.3359 10.0054C32.0833 9.99821 44.8307 9.99821 57.5852 10.0054C59.5199 10.0054 60 10.5124 60 12.4619C59.9928 19.9886 59.9929 27.5224 59.9929 35.0491ZM19.8948 57.0793C32.3341 57.0793 44.7089 57.0793 57.0478 57.0793C57.0478 42.3044 57.0478 27.6009 57.0478 12.9118C44.6301 12.9118 32.2768 12.9118 19.8948 12.9118C19.8948 27.6438 19.8948 42.3258 19.8948 57.0793Z" fill="#DD017F"/>
<path d="M2.93045 46.14C6.7422 46.14 10.4895 46.14 14.2869 46.14C14.2869 47.0981 14.2869 47.9842 14.2869 49C14.0075 49 13.7209 49 13.4343 49C9.72998 49 6.03287 49 2.3286 49C0.580349 49 0 48.4237 0 46.6947C0 31.8976 0 17.1006 0 2.29628C0 0.603332 0.573195 0.00540302 2.24979 0.00540302C15.0607 -0.00180101 27.8645 -0.00180101 40.6754 0.00540302C42.4881 0.00540302 42.9897 0.54571 42.9968 2.39715C43.004 3.95322 42.9968 5.51648 42.9968 7.13739C42.051 7.13739 41.1483 7.13739 40.138 7.13739C40.138 5.74701 40.138 4.35663 40.138 2.92303C27.6925 2.92303 15.3401 2.92303 2.93045 2.92303C2.93045 17.2951 2.93045 31.6527 2.93045 46.14Z" fill="#DD017F"/>
<path d="M15 10.0237C15 10.9766 15 11.9374 15 12.9763C13.446 12.9763 11.8842 13.0466 10.3301 12.9451C9.59565 12.8982 9.01578 12.3983 9.00031 11.5234C8.98485 10.6095 9.54152 10.0862 10.3533 10.0393C11.8919 9.96118 13.4228 10.0237 15 10.0237Z" fill="#DD017F"/>
<path d="M15 19.0216C15 20.0072 15 20.9543 15 21.9784C13.464 21.9784 11.9665 22.04 10.4691 21.9553C9.70493 21.9091 9.04884 21.4779 9.00253 20.5693C8.95622 19.6145 9.55057 19.0909 10.3919 19.0447C11.8971 18.96 13.4022 19.0216 15 19.0216Z" fill="#DD017F"/>
<path d="M15 27.0215C15 28.0174 15 28.9596 15 29.9785C13.485 29.9785 12.0163 30.0398 10.5477 29.9555C9.73606 29.9095 9.04039 29.5035 9.00174 28.546C8.96309 27.5961 9.57375 27.0905 10.4163 27.0445C11.9159 26.9602 13.4231 27.0215 15 27.0215Z" fill="#DD017F"/>
<path d="M15 36.0263C15 37.0281 15 37.9616 15 38.9787C13.4933 38.9787 12.0174 39.0394 10.5571 38.9559C9.74573 38.9104 9.06576 38.5081 9.00394 37.567C8.94986 36.7397 9.4521 36.1325 10.503 36.0566C11.9711 35.9504 13.4469 36.0263 15 36.0263Z" fill="#DD017F"/>
<path d="M39.4319 23.9963C35.6837 23.9963 31.9356 24.0112 28.1875 23.9813C27.6623 23.9813 27.0724 23.9065 26.6408 23.6372C26.3026 23.4277 25.9861 22.8516 26.0005 22.4551C26.0149 22.0511 26.3746 21.5349 26.7199 21.318C27.1299 21.0711 27.6911 21.0112 28.1947 21.0112C35.7485 20.9963 43.3023 20.9963 50.8561 21.0112C51.2949 21.0112 51.8273 21.0187 52.1582 21.2581C52.5467 21.5424 53.0071 22.0811 52.9999 22.5C52.9927 22.9339 52.5467 23.4726 52.151 23.7569C51.8201 23.9963 51.2877 23.9813 50.8489 23.9813C47.0504 24.0037 43.2375 23.9963 39.4319 23.9963Z" fill="#DD017F"/>
<path d="M39.4283 41.9963C35.6812 41.9963 31.934 42.0112 28.1869 41.9813C27.6619 41.9813 27.0721 41.9065 26.6406 41.6372C26.3026 41.4277 25.9861 40.8516 26.0005 40.4551C26.0149 40.0511 26.3745 39.5349 26.7269 39.318C27.1368 39.0711 27.6978 39.0112 28.2013 39.0112C35.7531 38.9963 43.3049 38.9963 50.8566 39.0112C51.2954 39.0112 51.8276 39.0187 52.1584 39.2581C52.5468 39.5424 53.0071 40.0811 52.9999 40.5C52.9927 40.9339 52.5468 41.4726 52.1512 41.7569C51.8204 41.9963 51.2882 41.9813 50.8495 41.9813C47.0448 42.0037 43.2329 41.9963 39.4283 41.9963Z" fill="#DD017F"/>
<path d="M36.0757 32.9951C33.4389 32.9951 30.8094 33.0101 28.1727 32.9876C27.7005 32.9801 27.1412 32.9726 26.7708 32.7252C26.4003 32.4778 25.979 31.923 26.0008 31.5257C26.0226 31.0833 26.4439 30.551 26.8361 30.2661C27.1703 30.0262 27.7005 30.0112 28.1509 30.0112C33.4172 29.9963 38.6834 29.9963 43.9497 30.0112C44.3637 30.0112 44.8577 30.0337 45.17 30.2661C45.5477 30.536 46.0344 31.0683 45.9981 31.4357C45.9545 31.923 45.5114 32.4553 45.1046 32.7777C44.8141 33.0101 44.2983 32.9876 43.8843 32.9876C41.2766 33.0026 38.6762 32.9951 36.0757 32.9951Z" fill="#DD017F"/>
<path d="M35.964 49.9963C33.3643 49.9963 30.7574 50.0112 28.1577 49.9813C27.6566 49.9738 27.0829 49.9214 26.6836 49.6596C26.335 49.4352 25.9792 48.8816 26.001 48.5C26.03 48.0736 26.4004 47.5349 26.778 47.2955C27.1846 47.0412 27.7655 47.0112 28.2666 47.0112C33.4442 46.9963 38.6145 46.9963 43.7921 47.0112C44.2641 47.0112 44.816 47.0337 45.1936 47.2731C45.5712 47.52 46.0142 48.0586 45.9997 48.4551C45.9779 48.9115 45.5639 49.4501 45.1718 49.7419C44.845 49.9813 44.3077 49.9738 43.8647 49.9738C41.2287 50.0112 38.5927 49.9963 35.964 49.9963Z" fill="#DD017F"/>
</g>
<defs>
<clipPath id="clip0_51_6945">
<rect width="60" height="60" fill="white"/>
</clipPath>
</defs>
</svg>
