<svg width="60" height="56" viewBox="0 0 60 56" fill="none" xmlns="http://www.w3.org/2000/svg">
<g clip-path="url(#clip0_51_6928)">
<path d="M2.42382 56C2.42382 42.2961 2.42382 28.6422 2.42382 14.9321C1.59709 14.9321 0.820459 14.9321 0 14.9321C0 9.93185 0 4.99399 0 0C19.9979 0 39.9708 0 60 0C60 4.93164 60 9.87575 60 14.9009C59.2109 14.9009 58.4154 14.9009 57.5699 14.9009C57.5699 28.6422 57.5699 42.2899 57.5699 56C39.1879 56 20.8622 56 2.42382 56ZM54.9896 53.5311C54.9896 40.6252 54.9896 27.788 54.9896 14.9695C38.2798 14.9695 21.6201 14.9695 4.9854 14.9695C4.9854 27.8504 4.9854 40.6751 4.9854 53.5311C21.6639 53.5311 38.2985 53.5311 54.9896 53.5311ZM57.5198 2.49388C39.1315 2.49388 20.8058 2.49388 2.47391 2.49388C2.47391 5.81073 2.47391 9.07148 2.47391 12.3696C20.8372 12.3696 39.1566 12.3696 57.5198 12.3696C57.5198 9.06524 57.5198 5.8045 57.5198 2.49388Z" fill="#DD017F"/>
<path d="M30.0769 20.0042C33.1001 20.0042 36.1233 19.9914 39.1465 20.0106C41.4696 20.0234 43.2517 21.2804 43.8182 23.2684C44.652 26.18 42.5262 28.912 39.3184 28.9761C37.0653 29.021 34.8122 28.9889 32.5591 28.9889C28.6894 28.9889 24.8197 28.9953 20.9436 28.9889C18.6842 28.9825 16.9211 27.8281 16.2529 25.9491C15.4255 23.6276 16.6984 21.0239 19.0533 20.3312C19.7534 20.126 20.5108 20.0362 21.2428 20.0298C24.1896 19.9849 27.1301 20.0042 30.0769 20.0042ZM30.0069 26.4237C30.0069 26.4173 30.0069 26.4173 30.0069 26.4237C33.1574 26.4173 36.3079 26.4237 39.4584 26.4173C40.4386 26.4173 41.0368 26.0068 41.3105 25.2116C41.7942 23.7879 40.935 22.5822 39.3948 22.5758C35.2895 22.563 31.1844 22.5694 27.0792 22.5694C24.9088 22.5694 22.7384 22.563 20.5617 22.5758C19.4097 22.5822 18.6969 23.1851 18.5632 24.2176C18.3914 25.513 19.1742 26.4109 20.549 26.4173C23.6995 26.4365 26.85 26.4237 30.0069 26.4237Z" fill="#DD017F"/>
</g>
<defs>
<clipPath id="clip0_51_6928">
<rect width="60" height="56" fill="white"/>
</clipPath>
</defs>
</svg>
