<svg width="72" height="53" viewBox="0 0 72 53" fill="none" xmlns="http://www.w3.org/2000/svg">
<g clip-path="url(#clip0_51_6936)">
<rect width="72" height="53" fill="white"/>
<path d="M0.00719605 3.58323C0.244796 3.03885 0.424799 2.45865 0.741599 1.96441C1.6632 0.503191 3.1032 0.016109 4.7448 0.00894614C7.8624 -0.00537957 10.98 0.00179815 14.0976 0.00179815C22.644 0.00179815 31.1832 0.00179815 39.7296 0.00179815C42.8544 0.00179815 44.6328 1.76386 44.6472 4.8797C44.6544 6.66325 44.6472 8.44679 44.6472 10.0799C48.8304 10.0584 52.92 10.0584 57.0168 10.0155C59.04 9.99397 60.8472 10.5598 62.1432 12.1357C64.3464 14.8074 66.456 17.5508 68.58 20.287C69.9984 22.1135 71.2584 24.026 71.6904 26.3539C71.7048 26.4184 71.892 26.4542 72 26.4972C72 31.6903 72 36.8833 72 42.0764C71.0928 44.6694 69.2928 45.9659 66.4992 45.8656C66.3048 45.8584 65.9736 46.2094 65.916 46.4386C64.8864 50.328 61.5672 52.9711 57.6216 52.9998C53.7336 53.0284 50.3568 50.3638 49.3488 46.4314C49.2192 45.9372 49.0104 45.8297 48.5568 45.8297C41.6592 45.8369 34.7544 45.8369 27.8568 45.8297C27.3672 45.8297 27.1296 45.9372 27 46.4744C26.0496 50.3352 22.6584 52.9854 18.6984 52.9998C14.868 53.0141 11.4264 50.3065 10.476 46.4816C10.3464 45.9515 10.1232 45.8226 9.62639 45.8297C8.00639 45.8512 6.3864 45.8584 4.7664 45.8297C2.556 45.7939 1.02959 44.6909 0.273593 42.6351C0.201593 42.4417 0.0936 42.2626 0 42.0764C0.0072 29.2477 0.00719605 16.4191 0.00719605 3.58323ZM41.7672 42.9789C41.7672 42.585 41.7672 42.3128 41.7672 42.0478C41.7672 29.7205 41.7672 17.4004 41.7672 5.07309C41.7672 3.36833 41.2416 2.85977 39.492 2.85977C27.8568 2.85977 16.2144 2.85977 4.5792 2.85977C3.024 2.85977 2.8872 2.99586 2.8872 4.53588C2.8872 11.756 2.8872 18.9762 2.8872 26.1964C2.8872 31.153 2.8872 36.1026 2.8872 41.0593C2.8872 42.5277 3.34079 42.9646 4.83119 42.9718C6.39359 42.9718 7.94881 42.9575 9.51121 42.9789C10.0512 42.9861 10.332 42.9001 10.4976 42.2698C11.4984 38.4377 14.8464 35.8232 18.6696 35.8089C22.6008 35.7946 25.92 38.3302 26.9496 42.234C27.108 42.8285 27.3312 42.9861 27.9072 42.9861C30.636 42.9646 33.3648 42.9789 36.0936 42.9789C37.9512 42.9789 39.8088 42.9789 41.7672 42.9789ZM51.8472 12.8949C50.0328 12.8949 48.3336 12.8949 46.6272 12.8949C45.1008 12.8949 44.6472 13.3462 44.6472 14.8647C44.6472 23.9329 44.6472 33.0082 44.6472 42.0764C44.6472 42.3629 44.676 42.6494 44.6904 42.9718C45.972 42.9718 47.1744 42.9431 48.3696 42.9861C48.9816 43.0076 49.2264 42.85 49.392 42.2125C50.3928 38.4377 53.7408 35.8376 57.528 35.8161C61.4664 35.7946 64.764 38.3302 65.8512 42.2125C65.9232 42.4775 66.0312 42.85 66.2328 42.9431C67.716 43.6164 69.1272 42.6781 69.1272 41.045C69.1272 38.058 69.1272 35.0783 69.1272 32.0914C69.1272 31.4467 69.1272 30.7949 69.1272 30.0858C68.7024 30.0858 68.3784 30.0858 68.0544 30.0858C64.332 30.0858 60.6168 30.0858 56.8944 30.0858C53.7192 30.0858 51.8472 28.2234 51.8472 25.1004C51.8472 21.0749 51.8472 17.0494 51.8472 12.8949ZM54.7272 12.9021C54.7272 13.2531 54.7272 13.5109 54.7272 13.776C54.7272 17.5938 54.7272 21.4187 54.7272 25.2365C54.7272 26.7551 55.1952 27.2278 56.7072 27.2278C60.516 27.2278 64.3248 27.2278 68.1336 27.2278C68.4216 27.2278 68.7024 27.2278 69.0768 27.2278C68.7456 25.523 68.0832 24.1406 67.1544 22.8871C65.376 20.4876 63.5832 18.0952 61.7472 15.7386C61.2 15.0366 60.5592 14.3705 59.8392 13.8619C59.2056 13.4178 58.4136 13.0812 57.6504 12.9451C56.7504 12.7803 55.8 12.9021 54.7272 12.9021ZM18.7632 38.6955C15.5088 38.7242 12.9816 41.2312 12.9816 44.4187C12.9888 47.6348 15.5952 50.1633 18.8712 50.1203C21.9672 50.0773 24.4872 47.5059 24.4656 44.4043C24.444 41.2527 21.8592 38.6669 18.7632 38.6955ZM63.3456 44.4258C63.3384 41.2742 60.7608 38.6812 57.6576 38.6955C54.4104 38.7099 51.8688 41.2097 51.8616 44.4043C51.8544 47.6205 54.4536 50.1489 57.7296 50.1203C60.8256 50.0916 63.3528 47.5202 63.3456 44.4258Z" fill="#DD017F"/>
<path d="M36 20.442C36 28.446 29.4822 35 21.5145 35C13.496 35 7 28.4532 7 20.3767C7 12.5975 13.6192 5.99276 21.3985 6.00001C29.4387 6.00726 36 12.496 36 20.442ZM21.2897 32.0927C27.9235 32.0492 33.1435 26.8945 33.0927 20.442C33.042 13.9387 27.9525 8.92175 21.5145 8.89275C14.656 8.86375 9.68249 14.6202 9.87099 20.848C10.0522 26.9815 15.1635 32.1362 21.2897 32.0927Z" fill="#DD017F"/>
<path d="M19.9512 12C21.0134 12 21.9476 12 22.9646 12C22.9646 14.5245 22.8817 17.0129 22.9947 19.4941C23.055 20.7924 22.603 21.6074 21.5031 22.3287C19.7779 23.4539 18.1432 24.7233 16.3804 26C15.8832 25.3725 15.3935 24.8315 15.0319 24.2185C14.9264 24.0381 15.0997 23.5404 15.3031 23.389C16.6289 22.3792 18.0226 21.4632 19.3335 20.4389C19.6574 20.1865 19.9211 19.6672 19.9286 19.2633C19.9813 16.8614 19.9512 14.4668 19.9512 12Z" fill="#DD017F"/>
</g>
<defs>
<clipPath id="clip0_51_6936">
<rect width="72" height="53" fill="white"/>
</clipPath>
</defs>
</svg>
