<svg width="72" height="71" viewBox="0 0 72 71" fill="none" xmlns="http://www.w3.org/2000/svg">
<g clip-path="url(#clip0_51_6903)">
<path d="M0 55.8586C2.87662 52.9266 5.74604 49.9946 8.62987 47.0699C10.3097 45.3705 11.9607 43.6492 13.7198 42.0373C15.6592 40.2577 17.9807 39.1709 20.6266 39.0761C24.2242 38.9521 27.829 38.9303 31.4338 38.9011C34.8583 38.8719 38.2829 38.8865 41.7074 38.9011C43.5315 38.9084 45.132 39.4481 46.3288 40.9287C48.6358 43.7732 47.7202 47.9159 44.3317 49.236C42.587 49.9143 40.6765 50.1477 38.838 50.5635C37.8431 50.7896 36.8337 50.9354 35.8388 51.1688C35.4495 51.2564 35.0962 51.4752 34.7213 51.6356C34.743 51.745 34.7718 51.8544 34.7934 51.9638C35.0674 51.9857 35.3414 52.0295 35.6153 52.0295C39.6671 52.0368 43.7261 52.0513 47.7779 52.0076C48.2177 52.0003 48.7512 51.7377 49.0684 51.4168C53.6609 46.8292 58.1813 42.1613 62.8099 37.6101C65.3765 35.0865 69.3706 35.6117 71.1081 38.6093C72.4202 40.8703 72.3481 43.2699 70.4664 45.334C68.592 47.3835 66.6021 49.3309 64.6555 51.3074C61.0507 54.9688 57.3883 58.5645 53.8628 62.2988C51.9522 64.3191 49.7173 65.1798 47.0353 65.1725C38.6289 65.1579 30.2154 65.1725 21.809 65.1506C21.0592 65.1506 20.504 65.3475 19.9777 65.8945C18.3267 67.6158 16.6397 69.3006 14.9671 71C14.6066 71 14.2461 71 13.8857 71C13.8136 70.9052 13.7559 70.7885 13.6766 70.7083C9.29315 66.2884 4.90973 61.8685 0.519091 57.4486C0.382109 57.31 0.180236 57.2444 0.00720562 57.1423C-3.96018e-06 56.7119 0 56.2816 0 55.8586ZM14.0875 67.5939C14.2678 67.5647 14.4552 67.5429 14.6354 67.5137C15.7457 66.3248 16.8488 65.136 17.9663 63.9544C19.1342 62.7145 20.5834 62.2259 22.2632 62.2259C30.583 62.2477 38.9029 62.1894 47.2228 62.2696C49.1261 62.2842 50.568 61.657 51.8513 60.315C54.1512 57.9154 56.5087 55.5741 58.8446 53.211C61.988 50.031 65.153 46.8729 68.2819 43.6857C69.4427 42.5041 69.522 40.812 68.5559 39.7617C67.5898 38.7115 66.0109 38.6531 64.7132 39.6596C64.259 40.0097 63.8553 40.4181 63.4515 40.8266C59.0032 45.3486 54.5621 49.8779 50.0922 54.378C49.7894 54.6843 49.2775 54.925 48.8593 54.9323C44.238 54.9688 39.6094 54.9761 34.9809 54.925C34.4762 54.9177 33.8706 54.6406 33.4957 54.2905C32.2557 53.1454 31.1021 51.9055 29.9125 50.6948C29.6097 50.3884 29.3069 50.0894 28.8744 49.6518C29.6242 49.5424 30.1577 49.4913 30.6768 49.3819C33.7625 48.7328 36.841 48.0837 39.9194 47.42C41.0297 47.1793 42.1616 46.9678 43.2215 46.5739C44.4543 46.1144 44.8797 45.0495 44.5264 43.7659C44.1803 42.5041 43.1854 41.8258 41.6209 41.8258C35.3125 41.8185 29.0041 41.8477 22.703 41.8112C19.6677 41.7966 17.0507 42.7667 14.8806 44.9183C11.2181 48.5578 7.57727 52.2191 3.90759 55.8586C3.51827 56.2452 3.48944 56.5296 3.88596 56.9089C4.56366 57.558 5.21253 58.229 5.86139 58.9073C8.61545 61.8028 11.3479 64.6984 14.0875 67.5939Z" fill="#DD017F"/>
<path d="M46.0448 4.07174C47.5084 2.42543 49.1647 1.23076 51.1567 0.560576C57.6036 -1.61022 64.6646 2.79694 65.8497 9.62986C66.3566 12.551 65.5356 15.0714 64.072 17.4826C62.5227 20.0468 60.7521 22.4361 58.6246 24.5341C54.8906 28.1982 51.021 31.6875 46.773 34.7179C46.209 35.1185 45.8663 35.0821 45.3165 34.6742C40.5473 31.1339 35.9567 27.3751 32.0371 22.8586C30.395 20.9646 28.9243 18.874 27.6034 16.7323C25.1118 12.6821 25.6615 8.67558 28.3031 4.93131C32.5154 -1.04931 40.326 -1.66849 45.4522 3.50354C45.6164 3.6638 45.7877 3.82406 46.0448 4.07174ZM46.0162 9.11993C45.545 8.36962 45.1381 7.6776 44.6883 7.00742C42.5607 3.86777 39.6763 2.48371 35.9352 3.07376C30.6949 3.89691 27.4036 9.87024 29.6668 14.7436C30.5306 16.6085 31.7443 18.364 33.0652 19.9375C36.6706 24.25 40.89 27.8995 45.3594 31.2577C45.902 31.6657 46.2304 31.6511 46.7159 31.2286C49.8501 28.4823 53.0629 25.8307 56.1257 23.0116C58.6031 20.7242 60.645 18.029 62.2015 14.984C63.0867 13.2576 63.3509 11.4292 62.8868 9.5206C62.0515 6.06043 59.9097 3.87506 56.5255 3.13932C52.9915 2.37444 50 3.47441 47.7582 6.42466C47.1371 7.24782 46.6373 8.15109 46.0162 9.11993Z" fill="#DD017F"/>
</g>
<defs>
<clipPath id="clip0_51_6903">
<rect width="72" height="71" fill="white"/>
</clipPath>
</defs>
</svg>
