<svg width="30" height="30" viewBox="0 0 30 30" fill="none" xmlns="http://www.w3.org/2000/svg">
<path d="M15.0772 0.00221842C22.8876 0.034909 30.1738 6.09574 29.9968 15.4387C29.8396 24.0037 22.8089 30.0841 15.051 29.9991C6.21187 29.901 -0.0456159 23.2714 0.00025049 14.5757C0.0395645 6.72995 6.82779 -0.14162 15.0772 0.00221842ZM1.21244 15.0399C1.20588 22.5391 7.38474 28.7307 14.8937 28.7373C22.5599 28.7503 28.7257 22.598 28.7322 14.9353C28.7388 7.46221 22.5337 1.2837 15.0117 1.27716C7.39129 1.27062 1.21899 7.42952 1.21244 15.0399Z" fill="white"/>
<path d="M13.0009 14.5737C13.0261 13.5919 13.8084 12.7949 14.8681 12.8332C15.5873 12.8587 16.0099 12.5654 16.4578 12.0554C18.079 10.2129 19.7507 8.4151 21.4034 6.60451C21.5107 6.48975 21.6053 6.32399 21.7378 6.27936C22.091 6.15823 22.6209 5.89684 22.8039 6.04348C23.2391 6.39412 22.8543 6.79577 22.5705 7.10817C20.6906 9.18015 18.8108 11.2457 16.9246 13.3177C16.8552 13.3942 16.7101 13.4707 16.7164 13.5409C16.7921 14.5928 16.0856 15.632 16.6092 16.6712C17.0697 17.5892 17.6248 18.4626 18.1295 19.3616C18.2619 19.5911 18.4449 19.8333 18.4575 20.0756C18.4701 20.3816 18.3313 20.6876 18.2556 21C17.9718 20.8725 17.568 20.8215 17.4293 20.5984C16.8615 19.6803 16.3064 18.7368 15.8837 17.7422C15.562 16.9963 15.1457 16.5691 14.3382 16.397C13.4866 16.2057 12.9757 15.4152 13.0009 14.5737Z" fill="white"/>
</svg>
