<svg width="45" height="44" viewBox="0 0 45 44" fill="none" xmlns="http://www.w3.org/2000/svg">
<path d="M22.5 42.5C33.8218 42.5 43 33.3218 43 22C43 10.6782 33.8218 1.5 22.5 1.5C11.1782 1.5 2 10.6782 2 22C2 33.3218 11.1782 42.5 22.5 42.5Z" stroke="url(#paint0_linear_2015_2920)" stroke-width="2.04"/>
<path d="M6.00156 21.8653C5.99043 21.6724 6.03869 21.4067 6.15006 21.0791C6.32454 20.5368 6.6438 19.8962 7.10785 19.1537C7.54591 18.4367 8.00996 17.8544 8.49628 17.4067C8.65962 17.2539 8.80069 17.141 8.91578 17.0755C9.06056 16.9918 9.20905 16.97 9.36497 17.0136C9.47263 17.0428 9.56915 17.0864 9.65082 17.141C9.77705 17.2211 9.86243 17.3194 9.90327 17.4322C9.9441 17.545 9.94781 17.687 9.91069 17.8544C9.86985 18.0546 9.75106 18.3275 9.5543 18.6697C9.53203 18.7097 9.49491 18.7243 9.44293 18.7133C9.37611 18.6988 9.32042 18.6697 9.27959 18.6224C9.23504 18.575 9.21277 18.5132 9.21277 18.4477C9.20905 18.3967 9.21648 18.3348 9.23133 18.2657L9.24618 18.171L9.26474 18.0801C9.29444 17.9272 9.313 17.8107 9.32042 17.7306V17.7052C9.32042 17.6979 9.31671 17.687 9.30929 17.6797C9.20905 17.7561 9.09768 17.858 8.96775 17.9818C8.35892 18.5787 7.80206 19.3212 7.29718 20.2129C6.98534 20.7734 6.76631 21.2756 6.64752 21.7197C6.62524 21.7961 6.60668 21.8907 6.59183 22.0036C6.58441 22.0582 6.60668 22.0727 6.65865 22.0472C6.84056 21.9563 7.02989 21.8398 7.21922 21.6978C7.77608 21.3011 8.31808 20.8862 8.84524 20.4567C8.91949 20.3985 8.9826 20.3548 9.03086 20.3257C9.08283 20.3002 9.13109 20.2929 9.17564 20.3075C9.29073 20.3403 9.30557 20.4021 9.23133 20.4822C8.58909 21.2283 7.9617 21.8143 7.35287 22.2401C7.15982 22.3748 6.98163 22.4585 6.81457 22.4876C6.61039 22.524 6.42477 22.4804 6.25772 22.353C6.09808 22.2329 6.0127 22.0691 6.00156 21.8653ZM11.3956 21.2684C11.3251 21.3048 11.2509 21.3084 11.1803 21.2829C10.887 21.1628 10.772 20.9626 10.8425 20.6897C10.9019 20.4567 10.9761 20.2638 11.0652 20.111C11.0949 20.0673 11.1098 20.0273 11.1135 19.9909L11.0058 20.0782C10.9316 20.1401 10.8499 20.2129 10.7571 20.2966L10.5121 20.5222C10.3042 20.7151 10.1371 20.8607 10.0109 20.959C9.88099 21.0645 9.78447 21.2028 9.72507 21.3775C9.70651 21.4321 9.69166 21.4904 9.68795 21.5595L9.68424 21.6505L9.68795 21.7452C9.69166 21.858 9.66939 21.9271 9.62855 21.949C9.59143 21.9672 9.5246 21.9599 9.42808 21.9271C9.34641 21.8944 9.27959 21.8361 9.22761 21.7524C9.17935 21.6724 9.15708 21.585 9.16079 21.4904C9.1645 21.3557 9.21648 21.1846 9.313 20.9772L9.31671 20.9663C9.32042 20.959 9.32785 20.9481 9.33156 20.9335C9.34641 20.8971 9.36126 20.8571 9.38353 20.8134C9.44293 20.6751 9.50604 20.5332 9.57658 20.3767C9.79189 19.8926 10.0072 19.4376 10.2151 19.0118C10.8796 17.6506 11.3808 16.8317 11.7075 16.555C11.752 16.515 11.8114 16.4968 11.8857 16.5005C11.9562 16.5077 12.0082 16.5332 12.049 16.5732C12.0676 16.5951 12.075 16.6206 12.0713 16.646L12.0602 16.6824L12.0453 16.7188C11.9748 16.8899 11.8931 17.0573 11.7929 17.2247C11.4402 17.8362 11.0801 18.535 10.7089 19.3175C10.6792 19.383 10.6346 19.4704 10.5789 19.5723L10.5121 19.696L10.4453 19.8234C10.4304 19.8525 10.423 19.8817 10.423 19.9035L10.4787 19.8598L10.5307 19.8125C10.7423 19.6233 10.9427 19.4704 11.1395 19.3612C11.3437 19.2411 11.5441 19.252 11.7409 19.4012C11.8634 19.4922 11.9079 19.6196 11.8634 19.7834C11.8448 19.8598 11.8114 19.9399 11.7669 20.0309L11.7038 20.151L11.6407 20.2711L11.5478 20.4349L11.455 20.6023C11.3845 20.7297 11.3325 20.8425 11.2991 20.9408L11.288 20.9663L11.2806 20.9881C11.2731 21.0099 11.2731 21.0281 11.2768 21.0463C11.314 21.0318 11.3548 21.0099 11.4031 20.9772C11.6147 20.8243 11.8485 20.6023 12.1047 20.3148L12.1901 20.2201L12.2755 20.1255C12.3089 20.0928 12.3423 20.0855 12.3683 20.111C12.3831 20.1255 12.3868 20.1401 12.3757 20.151L12.3609 20.1656C12.3534 20.1692 12.346 20.1728 12.346 20.1801C12.0416 20.5586 11.8114 20.8425 11.6592 21.0318C11.5738 21.1519 11.481 21.232 11.3956 21.2684ZM12.4574 21.181C12.2458 21.0281 12.1418 20.8498 12.1418 20.6423C12.1455 20.4822 12.1864 20.3293 12.2718 20.1801C12.4017 19.9435 12.5725 19.7215 12.7841 19.5068C12.8509 19.4413 12.9251 19.4122 13.0142 19.4267C13.0959 19.4413 13.1627 19.4886 13.211 19.5723C13.2333 19.6087 13.237 19.6596 13.2147 19.7252C13.1924 19.787 13.1627 19.8525 13.1219 19.9253L13.0662 20.0236L13.0105 20.1182L12.9363 20.2493L12.862 20.3803C12.8101 20.4822 12.7692 20.5732 12.7395 20.6569C12.7098 20.7333 12.6913 20.8134 12.6764 20.8971C12.669 20.9408 12.6913 20.959 12.7358 20.9444C12.9029 20.9008 13.0588 20.8207 13.1961 20.7042C13.2667 20.646 13.3521 20.5732 13.4486 20.4895L13.6973 20.2747C13.8569 20.1364 13.9906 20.0382 14.0945 19.9763C14.1354 19.9545 14.1651 19.9435 14.1873 19.9435C14.2356 19.9399 14.2764 19.9617 14.3099 20.0018C14.3247 20.02 14.3247 20.0345 14.3136 20.0491L14.2987 20.0709L14.2839 20.0891C14.2542 20.1364 14.2245 20.1728 14.1948 20.1947C13.9238 20.4494 13.649 20.7042 13.3669 20.9554C13.2852 21.0318 13.1664 21.1119 13.0142 21.2028C12.8212 21.3193 12.6356 21.312 12.4574 21.181ZM13.1813 18.9426C13.2741 18.8917 13.3743 18.8626 13.4931 18.8553C13.6305 18.8589 13.7419 18.9026 13.8235 18.9827C13.8681 19.03 13.8607 19.0627 13.7975 19.0846C13.7641 19.0919 13.7307 19.1101 13.6899 19.1319L13.6379 19.1647L13.5897 19.1938C13.5154 19.2338 13.4412 19.2484 13.3595 19.2338C13.2815 19.2193 13.2147 19.1829 13.1553 19.121C13.0848 19.0555 13.0959 18.9936 13.1813 18.9426ZM14.9521 20.504C14.9669 20.4531 14.9855 20.3985 15.0152 20.3293L15.0486 20.242L15.0857 20.1546L15.0969 20.1401L15.108 20.1219C15.1154 20.1073 15.1154 20.0964 15.1117 20.0818C15.0969 20.0818 15.0857 20.0855 15.0746 20.0964L15.0598 20.111L15.0449 20.1255C14.941 20.2274 14.8222 20.3512 14.6885 20.5077L14.5177 20.7079L14.347 20.9044L14.2579 21.0027L14.1651 21.0973C14.1168 21.1446 14.0574 21.1592 13.9832 21.1373C13.8161 21.0864 13.727 20.9736 13.7233 20.8025C13.7159 20.6496 13.7456 20.4858 13.8087 20.3075C13.9015 20.0309 14.0426 19.798 14.2319 19.6014C14.2802 19.5541 14.3358 19.5432 14.4064 19.5614C14.4472 19.5723 14.488 19.5941 14.5326 19.6269C14.592 19.6706 14.6254 19.7106 14.6365 19.747C14.6477 19.787 14.6403 19.8343 14.6106 19.8962C14.5771 19.969 14.5326 20.06 14.4806 20.1728L14.4138 20.3148L14.347 20.4531C14.3284 20.4858 14.3173 20.5222 14.3173 20.555L14.4361 20.4349L14.5512 20.3148C14.6662 20.1874 14.7999 20.0527 14.9521 19.9035C15.0449 19.8162 15.186 19.6888 15.3753 19.5177C15.4347 19.4631 15.4792 19.434 15.5164 19.4267C15.5498 19.4194 15.5906 19.4304 15.6426 19.4631C15.7651 19.5323 15.8134 19.6269 15.7911 19.7543C15.7762 19.8307 15.7503 19.9181 15.7094 20.0091L15.65 20.1292L15.5906 20.2493L15.5238 20.3767L15.4644 20.504C15.4199 20.6023 15.3827 20.6933 15.3567 20.777C15.3827 20.7588 15.4087 20.737 15.4347 20.7115L15.4681 20.6715L15.5015 20.6351C15.6537 20.4531 15.7911 20.3075 15.9136 20.1983C15.9804 20.1401 16.0472 20.1401 16.1178 20.1983C16.166 20.2383 16.1735 20.2784 16.1438 20.3221C15.9099 20.6715 15.7094 20.9153 15.5424 21.0536C15.4792 21.1046 15.431 21.1373 15.3939 21.1519C15.3345 21.1737 15.2714 21.1701 15.212 21.1373C15.0412 21.0573 14.9484 20.9408 14.9261 20.7879C14.915 20.7115 14.9261 20.6132 14.9521 20.504ZM16.1252 21.232C15.9284 21.1555 15.8208 21.0209 15.8097 20.8316C15.7948 20.6569 15.8356 20.4749 15.9322 20.282C16.1104 19.9144 16.3776 19.6378 16.7415 19.4558C16.9679 19.3394 17.1981 19.3539 17.4357 19.4995C17.4765 19.5213 17.5062 19.5286 17.5285 19.525C17.5619 19.5213 17.6027 19.5286 17.6547 19.5468C17.7215 19.5759 17.7624 19.6051 17.7772 19.6342C17.7883 19.6633 17.7809 19.7106 17.7549 19.7798C17.7141 19.8853 17.6547 20.0054 17.5767 20.1474L17.4802 20.3257L17.3837 20.504C17.3169 20.6278 17.276 20.7297 17.2575 20.8134C17.2426 20.868 17.2426 20.9117 17.2463 20.9372C17.276 20.9262 17.3057 20.9117 17.3391 20.8898L17.38 20.8607L17.4208 20.828C17.5136 20.7515 17.6176 20.6605 17.7327 20.5514L17.8812 20.4094L18.0297 20.2638C18.0965 20.1947 18.1559 20.1728 18.2153 20.1983C18.2784 20.2274 18.2932 20.2638 18.2561 20.3148L18.1596 20.4604L18.0631 20.6059C17.9851 20.7151 17.9146 20.8098 17.8515 20.8826C17.7735 20.9736 17.6881 21.0463 17.5916 21.1082C17.4357 21.2101 17.2872 21.2356 17.1387 21.1846C16.9939 21.1301 16.8937 21.0172 16.8417 20.8389C16.8268 20.8425 16.8157 20.8534 16.8009 20.868L16.786 20.8862L16.7712 20.9044L16.6709 21.0136L16.567 21.1228C16.4333 21.2574 16.2885 21.2938 16.1252 21.232ZM16.4036 20.7443L16.3925 20.7625C16.3851 20.7807 16.3851 20.7952 16.3851 20.8134L16.3999 20.8098C16.4036 20.8061 16.4073 20.8061 16.4111 20.8025L16.4593 20.7625L16.5076 20.7188C16.6338 20.5987 16.7637 20.4531 16.9011 20.2784C16.9531 20.2129 17.0125 20.1328 17.0793 20.0454L17.2538 19.8089L17.2612 19.798L17.2686 19.787C17.2723 19.7798 17.2723 19.7725 17.2649 19.7652C17.2538 19.7579 17.2426 19.7543 17.2315 19.7616L17.2204 19.7725L17.2055 19.7834C16.8417 20.0454 16.5781 20.3548 16.4148 20.7224L16.4036 20.7443ZM27.9899 17.4722C28.1978 17.5377 28.3649 17.636 28.4948 17.778C28.6656 17.9599 28.6656 18.1456 28.5023 18.3312C28.3909 18.4586 28.2275 18.586 28.0085 18.717C27.5964 18.9608 26.969 19.2848 26.1263 19.6815L25.3059 20.06L24.478 20.4422L24.4595 20.4531L24.4372 20.4604C24.4224 20.4676 24.4112 20.4786 24.4001 20.4931L24.6414 20.5113L24.8827 20.5295C25.5509 20.595 26.2117 20.7006 26.8651 20.8462L26.9431 20.8607L27.0173 20.8753C27.1027 20.8935 27.1695 20.9335 27.2215 20.9954L27.2326 21.0099L27.2438 21.0245C27.2475 21.0354 27.2475 21.0463 27.2438 21.0573C27.2363 21.0718 27.2289 21.0791 27.2141 21.0791L27.1992 21.0827H27.1806C27.1138 21.0864 27.0396 21.0791 26.9542 21.0682L26.8391 21.0536L26.7277 21.0391C25.8331 20.9299 25.0943 20.8826 24.5152 20.9008L24.3221 20.9117C24.2442 20.9153 24.1811 20.919 24.1291 20.9226C24.066 20.9262 24.0251 20.9554 24.0066 21.0136C23.8989 21.2866 23.7578 21.6396 23.5834 22.0654C23.5537 22.1419 23.5277 22.2001 23.5091 22.2365C23.4608 22.3275 23.3829 22.3566 23.2789 22.3311C23.1973 22.3093 23.123 22.2693 23.0562 22.2147C22.982 22.1601 22.9374 22.1055 22.9188 22.0472C22.9003 21.9926 22.9003 21.9235 22.9263 21.8361C22.9782 21.6542 23.0673 21.4139 23.1898 21.1155L23.2084 21.0718L23.2307 21.0281C23.2492 20.9918 23.2567 20.9626 23.253 20.9372C23.253 20.9117 23.2344 20.8898 23.201 20.8716L23.1787 20.8607L23.1564 20.8462C23.1379 20.8389 23.1267 20.828 23.1156 20.817L23.1082 20.8098L23.1007 20.8025C23.0191 20.7261 22.9782 20.6678 22.9857 20.6205C22.9931 20.5768 23.0451 20.5295 23.1453 20.4786L23.3198 20.3985L23.4905 20.3221C23.5314 20.3002 23.5574 20.2747 23.5722 20.2493C23.7913 19.7834 24.0697 19.212 24.4112 18.5314C24.4149 18.5277 24.4149 18.5241 24.4149 18.5168L24.4186 18.5059L24.4224 18.4913C24.0511 18.6187 23.7504 18.7315 23.5277 18.8262L23.1601 18.99L22.7926 19.1574C22.6627 19.2156 22.529 19.292 22.3917 19.3794C22.31 19.4267 22.2172 19.4304 22.1058 19.3903C21.9945 19.3503 21.9239 19.2848 21.8942 19.1938C21.8794 19.1501 21.8942 19.1064 21.9425 19.0591C22.0242 18.9863 22.1281 18.9135 22.2543 18.8407C22.9931 18.4113 23.8135 18.0691 24.7119 17.8144C24.7825 17.7925 24.8307 17.7561 24.8604 17.7015C24.9087 17.6105 24.9644 17.5305 25.0275 17.454C25.0646 17.414 25.098 17.3885 25.124 17.3812C25.1537 17.374 25.1945 17.3812 25.2465 17.3958C25.3505 17.4322 25.421 17.4868 25.4655 17.5596C25.4878 17.5923 25.5212 17.6069 25.5658 17.596C26.0632 17.4904 26.505 17.4249 26.8874 17.3994C27.3514 17.3667 27.7227 17.3885 27.9899 17.4722ZM27.9157 17.9308C27.9528 17.8835 27.9417 17.8617 27.8823 17.8617L27.7449 17.8544L27.6039 17.8508C26.9393 17.869 26.1709 17.9891 25.3022 18.2184C25.2725 18.2256 25.2428 18.2548 25.2205 18.3021L24.9644 18.848L24.7082 19.394L24.608 19.6196L24.504 19.8453L24.5152 19.8489L24.5226 19.8562C24.5486 19.8453 24.5746 19.8343 24.5968 19.8234C25.0163 19.6342 25.5472 19.383 26.1857 19.0628C26.7389 18.7825 27.1621 18.5386 27.4591 18.3312C27.6521 18.2038 27.8043 18.0691 27.9157 17.9308ZM28.4057 19.8853C28.3797 19.9326 28.3426 19.9981 28.2944 20.0782L28.2387 20.1728L28.183 20.2675C28.0902 20.4276 28.0234 20.5805 27.9788 20.7297C28.0716 20.6969 28.1681 20.646 28.2684 20.5768C28.6062 20.3366 28.8661 20.0782 29.0443 19.8016C29.1148 19.696 29.1816 19.6014 29.2447 19.525C29.293 19.4704 29.3524 19.4558 29.4229 19.4849C29.4675 19.5031 29.5046 19.5286 29.538 19.5614C29.5937 19.616 29.6011 19.6778 29.5677 19.7397C29.4266 20.0054 29.267 20.2966 29.0925 20.6059C29.0108 20.7515 28.97 20.8753 28.9626 20.9772C28.996 20.9626 29.0294 20.9444 29.0591 20.919L29.0999 20.8826L29.1408 20.8498C29.2484 20.7588 29.3784 20.6314 29.5306 20.4749L29.7162 20.2747C29.7867 20.1983 29.8498 20.1364 29.9055 20.0818C29.9464 20.0418 29.9909 20.0018 30.0466 19.9617C30.0874 19.9217 30.132 19.9253 30.184 19.9727C30.2025 19.9909 30.2062 20.0091 30.1988 20.0273L30.1802 20.0454L30.1617 20.0636C30.0577 20.2129 29.9167 20.3803 29.7385 20.5659L29.6197 20.6824L29.5046 20.7988C29.4081 20.8935 29.3301 20.9736 29.2744 21.0318C29.2447 21.0645 29.2002 21.0973 29.1408 21.1373C28.9923 21.2429 28.8586 21.221 28.7398 21.0791C28.673 20.999 28.6322 20.8826 28.6173 20.7333C28.6136 20.7188 28.6136 20.7042 28.6173 20.6824V20.6314C28.6025 20.6278 28.5876 20.6314 28.5765 20.6423L28.5654 20.6569L28.5505 20.6715C28.4094 20.7988 28.2832 20.9008 28.1719 20.9808C28.0419 21.0718 27.912 21.0864 27.7821 21.0318C27.6484 20.9772 27.5704 20.8753 27.5445 20.7224C27.5148 20.5332 27.5482 20.3439 27.641 20.151C27.7115 20.0091 27.8377 19.8271 28.0234 19.6014C28.0716 19.5359 28.1384 19.5213 28.2201 19.5541C28.2572 19.5687 28.2981 19.5905 28.3463 19.6233C28.3983 19.6669 28.4317 19.707 28.4429 19.7434C28.4466 19.7798 28.4354 19.8271 28.4057 19.8853ZM30.9561 20.7697C31.1121 20.959 31.1046 21.1373 30.9301 21.3048C30.7742 21.454 30.5292 21.5595 30.2025 21.625C29.9909 21.6651 29.7979 21.6396 29.6271 21.545C29.5603 21.5086 29.5083 21.4685 29.4712 21.4212C29.3747 21.3084 29.3821 21.2065 29.486 21.1155L29.6345 20.9918L29.783 20.868C29.8981 20.777 30.0021 20.6969 30.0949 20.6351C30.1023 20.6314 30.1097 20.6241 30.1208 20.6205L30.1357 20.6096L30.1543 20.595L30.1097 20.5659L30.0689 20.5368L29.9835 20.4786C29.8536 20.3767 29.7645 20.282 29.7236 20.1947C29.6568 20.0636 29.6642 19.9508 29.7459 19.8562C30.0317 19.5141 30.3473 19.3175 30.6851 19.2629C30.9561 19.2193 31.19 19.2848 31.3905 19.4631C31.5575 19.6087 31.5575 19.7579 31.3979 19.9035L31.3051 19.9872C31.268 20.02 31.2383 20.0454 31.216 20.0709C31.1752 20.111 31.1232 20.1146 31.0601 20.0782C30.9933 20.0491 30.971 20.0018 30.9858 19.9435C30.9933 19.9144 31.0081 19.8817 31.0267 19.838L31.0489 19.787L31.0712 19.7361L31.0861 19.7033L31.1009 19.6706C31.1083 19.6451 31.1083 19.6269 31.0972 19.6123C31.0824 19.5978 31.0638 19.5941 31.0415 19.6014L31.0081 19.616L30.9784 19.6305C30.7 19.7324 30.4735 19.8926 30.299 20.1219C30.2471 20.1874 30.2359 20.2529 30.2656 20.3148C30.2916 20.373 30.3436 20.4167 30.4253 20.4531C30.4401 20.4604 30.4512 20.4567 30.4661 20.4494L30.4847 20.4385L30.4995 20.4276L30.7371 20.3221L30.9747 20.2201C31.1529 20.1437 31.3125 20.0818 31.4573 20.0309C31.6912 19.9508 31.9139 19.8962 32.1181 19.8707C32.2295 19.8562 32.326 19.8707 32.404 19.9181L32.4188 19.929L32.4337 19.9435C32.4448 19.9545 32.4485 19.9654 32.4485 19.9763C32.4448 19.9909 32.4374 19.9981 32.4225 20.0018H32.3854C32.2555 20.02 32.0698 20.0673 31.8323 20.1474C31.4796 20.2638 31.1343 20.3985 30.7928 20.5514C30.7854 20.555 30.7705 20.5623 30.7557 20.5696L30.7334 20.5805L30.7074 20.595C30.8336 20.6533 30.9116 20.7151 30.9561 20.7697ZM30.4104 21.0645C30.4884 20.999 30.5292 20.919 30.5366 20.828C30.5403 20.7843 30.5255 20.7552 30.4958 20.737C30.4661 20.7188 30.4327 20.7224 30.3956 20.7443C30.184 20.8571 29.9835 21.0136 29.7979 21.2138C29.7645 21.2465 29.7385 21.2829 29.731 21.3157C29.7162 21.3594 29.731 21.3739 29.7756 21.3666C30.0466 21.3048 30.2582 21.2065 30.4104 21.0645ZM33.0536 20.7697C33.2095 20.959 33.2021 21.1373 33.0276 21.3048C32.8717 21.454 32.6267 21.5595 32.3 21.625C32.0884 21.6651 31.8954 21.6396 31.7246 21.545C31.6578 21.5086 31.6058 21.4685 31.5687 21.4212C31.4722 21.3084 31.4796 21.2065 31.5835 21.1155L31.732 20.9918L31.8805 20.868C31.9956 20.777 32.0995 20.6969 32.1924 20.6351C32.1998 20.6314 32.2072 20.6241 32.2183 20.6205L32.2332 20.6096L32.2517 20.595L32.2072 20.5659L32.1664 20.5368L32.081 20.4786C31.951 20.3767 31.8619 20.282 31.8211 20.1947C31.7543 20.0636 31.7617 19.9508 31.8434 19.8562C32.1292 19.5141 32.4448 19.3175 32.7826 19.2629C33.0536 19.2193 33.2875 19.2848 33.488 19.4631C33.655 19.6087 33.655 19.7579 33.4954 19.9035L33.4026 19.9872C33.3655 20.02 33.3358 20.0454 33.3135 20.0709C33.2727 20.111 33.2207 20.1146 33.1576 20.0782C33.0907 20.0491 33.0685 20.0018 33.0833 19.9435C33.0907 19.9144 33.1056 19.8817 33.1242 19.838L33.1464 19.787L33.1687 19.7361L33.1836 19.7033L33.1984 19.6706C33.2058 19.6451 33.2058 19.6269 33.1947 19.6123C33.1798 19.5978 33.1613 19.5941 33.139 19.6014L33.1056 19.616L33.0759 19.6305C32.7975 19.7324 32.5747 19.8926 32.3965 20.1219C32.3446 20.1874 32.3334 20.2529 32.3631 20.3148C32.3891 20.373 32.4411 20.4167 32.5228 20.4531C32.5376 20.4604 32.5487 20.4567 32.5636 20.4494L32.5821 20.4385L32.597 20.4276L32.8346 20.3221L33.0722 20.2201C33.2504 20.1437 33.4137 20.0818 33.5548 20.0309C33.7887 19.9508 34.0114 19.8962 34.2156 19.8707C34.3307 19.8562 34.4235 19.8707 34.5014 19.9181L34.5163 19.929L34.5311 19.9435C34.5423 19.9545 34.546 19.9654 34.546 19.9763C34.5423 19.9909 34.5349 19.9981 34.52 20.0018H34.4829C34.353 20.02 34.1673 20.0673 33.9297 20.1474C33.5771 20.2638 33.2318 20.3985 32.8903 20.5514C32.8829 20.555 32.868 20.5623 32.8532 20.5696L32.842 20.5768L32.816 20.5914C32.9274 20.6533 33.0091 20.7151 33.0536 20.7697ZM32.5079 21.0645C32.5859 20.999 32.6267 20.919 32.6341 20.828C32.6378 20.7843 32.623 20.7552 32.5933 20.737C32.5636 20.7188 32.5302 20.7224 32.4931 20.7443C32.2814 20.8571 32.081 21.0136 31.8954 21.2138C31.8619 21.2465 31.836 21.2829 31.8285 21.3157C31.8137 21.3594 31.8285 21.3739 31.8731 21.3666C32.1404 21.3048 32.352 21.2065 32.5079 21.0645ZM34.275 21.181C34.0634 21.0281 33.9594 20.8498 33.9594 20.6423C33.9632 20.4822 34.004 20.3293 34.0894 20.1801C34.2193 19.9435 34.3901 19.7215 34.6017 19.5068C34.6685 19.4413 34.7428 19.4122 34.8318 19.4267C34.9135 19.4413 34.9803 19.4886 35.0286 19.5723C35.0509 19.6087 35.0546 19.6596 35.0323 19.7252C35.01 19.787 34.9803 19.8525 34.9395 19.9253L34.8838 20.0236L34.8281 20.1182L34.7539 20.2493L34.6796 20.3803C34.6277 20.4822 34.5868 20.5732 34.5571 20.6569C34.5274 20.7333 34.5089 20.8134 34.494 20.8971C34.4866 20.9408 34.5089 20.959 34.5534 20.9444C34.7205 20.9008 34.8764 20.8207 35.0138 20.7042C35.0843 20.646 35.1697 20.5732 35.2662 20.4895L35.5149 20.2747C35.6746 20.1364 35.8082 20.0382 35.9121 19.9763C35.953 19.9545 35.9827 19.9435 36.005 19.9435C36.0532 19.9399 36.0941 19.9617 36.1275 20.0018C36.1423 20.02 36.1423 20.0345 36.1312 20.0491L36.1163 20.0709L36.1015 20.0891C36.0718 20.1364 36.0421 20.1728 36.0124 20.1947C35.7414 20.4494 35.4667 20.7042 35.1845 20.9554C35.1028 21.0318 34.9841 21.1119 34.8318 21.2028C34.6351 21.3193 34.4532 21.312 34.275 21.181ZM34.9952 18.9426C35.088 18.8917 35.1882 18.8626 35.307 18.8553C35.4444 18.8589 35.5558 18.9026 35.6374 18.9827C35.682 19.03 35.6746 19.0627 35.6114 19.0846C35.578 19.0919 35.5446 19.1101 35.5038 19.1319L35.4518 19.1647L35.4036 19.1938C35.3293 19.2338 35.2551 19.2484 35.1734 19.2338C35.0954 19.2193 35.0286 19.1829 34.9692 19.121C34.9024 19.0555 34.9098 18.9936 34.9952 18.9426ZM35.849 21.232C35.6523 21.1555 35.5446 21.0209 35.5335 20.8316C35.5186 20.6569 35.5595 20.4749 35.656 20.282C35.8342 19.9144 36.1015 19.6378 36.4653 19.4558C36.6917 19.3394 36.9219 19.3539 37.1595 19.4995C37.2003 19.5213 37.23 19.5286 37.2523 19.525C37.2857 19.5213 37.3266 19.5286 37.3785 19.5468C37.4454 19.5759 37.4862 19.6051 37.501 19.6342C37.5122 19.6633 37.5048 19.7106 37.4788 19.7798C37.4379 19.8853 37.3785 20.0054 37.3006 20.1474L37.2041 20.3257L37.1075 20.504C37.0407 20.6278 36.9999 20.7297 36.9813 20.8134C36.9665 20.868 36.9665 20.9117 36.9702 20.9372C36.9999 20.9262 37.0296 20.9117 37.063 20.8898L37.1038 20.8607L37.1447 20.828C37.2375 20.7515 37.3414 20.6605 37.4565 20.5514L37.605 20.4094L37.7535 20.2638C37.8203 20.1947 37.8797 20.1728 37.9391 20.1983C38.0022 20.2274 38.0171 20.2638 37.9799 20.3148L37.8834 20.4604L37.7906 20.6059C37.7164 20.7151 37.6421 20.8098 37.579 20.8826C37.501 20.9736 37.4157 21.0463 37.3191 21.1082C37.1632 21.2101 37.0147 21.2356 36.8662 21.1846C36.7214 21.1301 36.6212 21.0172 36.5692 20.8389C36.5544 20.8425 36.5433 20.8534 36.5284 20.868L36.5136 20.8862L36.4987 20.9044L36.3985 21.0136L36.2945 21.1228C36.1572 21.2574 36.0124 21.2938 35.849 21.232ZM36.1238 20.7443L36.1126 20.7625C36.1052 20.7807 36.1052 20.7952 36.1052 20.8134L36.12 20.8098C36.1238 20.8061 36.1275 20.8061 36.1312 20.8025L36.1794 20.7625L36.2277 20.7188C36.3539 20.5987 36.4839 20.4531 36.6212 20.2784C36.6732 20.2129 36.7326 20.1328 36.7994 20.0454L36.9739 19.8089L36.9813 19.798L36.9887 19.787C36.9924 19.7798 36.9924 19.7725 36.985 19.7652C36.9739 19.7579 36.9627 19.7543 36.9516 19.7616L36.9405 19.7725L36.9256 19.7834C36.5618 20.0454 36.2982 20.3548 36.1349 20.7224L36.1238 20.7443Z" fill="#303030"/>
<path d="M12.9421 23.2677C12.7445 23.303 12.5621 23.2466 12.4025 23.0947C12.3037 23.0065 12.3189 22.9394 12.4405 22.897C12.7977 22.7629 13.1244 22.6605 13.4246 22.5863C13.5044 22.5687 13.569 22.5298 13.6146 22.4663C13.8084 22.1944 14.006 21.9402 14.2112 21.7001C14.4125 21.46 14.6443 21.4353 14.9027 21.6295C15.0053 21.7037 15.0395 21.7954 14.9977 21.9014C14.9635 21.9861 14.9141 22.0956 14.8495 22.2262L14.8419 22.2368L14.8381 22.2544C14.8305 22.265 14.8305 22.2756 14.8343 22.2827C14.8419 22.2933 14.8495 22.2968 14.8647 22.2933L14.8837 22.2897L14.9027 22.2862C15.2903 22.2297 15.674 22.1874 16.054 22.152C16.5214 22.1167 16.8899 22.1061 17.1597 22.1167C17.3763 22.1309 17.5625 22.1979 17.7183 22.318C17.7525 22.3462 17.7829 22.378 17.8133 22.4133C17.8665 22.4839 17.8475 22.544 17.7601 22.5863C17.6347 22.6463 17.5131 22.6569 17.4029 22.6216C17.3193 22.5934 17.2205 22.5828 17.1103 22.5898L16.9659 22.6004L16.8216 22.6181C16.054 22.6781 15.2979 22.784 14.5455 22.9323C14.4581 22.95 14.3973 22.9888 14.3631 23.0524L14.1352 23.4407L13.9072 23.8291L13.8844 23.8609L13.8616 23.8962C13.8426 23.9244 13.835 23.9527 13.8312 23.9809L13.9832 23.9598L14.1314 23.9421C14.253 23.9244 14.3517 23.9139 14.4277 23.9068C14.8723 23.8609 15.2181 23.8432 15.4689 23.8538C15.6854 23.8609 15.883 23.9068 16.0654 23.988C16.1338 24.0162 16.1908 24.0515 16.2288 24.101C16.2478 24.1186 16.263 24.1363 16.2668 24.1504C16.2744 24.1716 16.2744 24.1928 16.2668 24.2104C16.2592 24.2281 16.244 24.2387 16.225 24.2457C16.2098 24.2528 16.1908 24.2528 16.168 24.2528C16.035 24.2599 15.8374 24.281 15.5715 24.3163C14.8989 24.4187 14.2112 24.5494 13.512 24.7083C13.4474 24.7259 13.4056 24.7506 13.3866 24.7895C13.0826 25.4426 12.8927 25.9934 12.8167 26.4453C12.7787 26.6607 12.7749 26.8549 12.7977 27.0279C12.8053 27.0985 12.8471 27.1232 12.9231 27.1091C13.3334 27.0279 13.7894 26.869 14.2986 26.6325L14.6215 26.4807L14.9445 26.3253C15.1953 26.2088 15.4119 26.1099 15.6018 26.0323C15.6702 26.004 15.75 26.0005 15.8336 26.0252C15.921 26.0464 15.9818 26.0852 16.0236 26.1452C16.0616 26.1876 16.0578 26.2229 16.016 26.2441L15.7424 26.41L15.4765 26.5795C15.2447 26.7243 15.0661 26.8337 14.9407 26.9079C14.5189 27.155 14.1352 27.3421 13.797 27.4657C13.5766 27.5469 13.3904 27.5999 13.2346 27.6175C12.8813 27.6564 12.5735 27.5787 12.3151 27.381C12.0567 27.1833 11.9123 26.9185 11.8895 26.5901C11.8591 26.1947 11.9351 25.7251 12.1175 25.1814L12.1441 25.1143L12.1555 25.079L12.1669 25.0366C12.0301 25.0649 11.8933 25.0966 11.749 25.1249C11.502 25.1743 11.3158 25.1602 11.1904 25.086L11.1258 25.0507C11.103 25.0366 11.084 25.0225 11.065 25.0119C11.0232 24.9766 11.0042 24.9377 11.0004 24.8954C10.9966 24.8565 11.0194 24.8212 11.0612 24.7895C11.0764 24.7789 11.0954 24.7683 11.122 24.7542L11.1828 24.7259C11.4982 24.5564 11.9085 24.4046 12.4177 24.274C12.4899 24.2563 12.5393 24.2175 12.5697 24.161C12.6723 23.9456 12.8205 23.6879 13.0067 23.3843L13.0371 23.3278L13.056 23.2995L13.075 23.2677C13.0522 23.2607 13.0295 23.2571 13.0029 23.2607L12.9725 23.2642L12.9421 23.2677ZM15.6056 27.7446C15.5411 27.7623 15.4727 27.7552 15.3967 27.7199C15.3245 27.6917 15.2675 27.6458 15.2295 27.5858C15.1839 27.5222 15.1991 27.4763 15.2751 27.4481L15.3321 27.4269L15.3967 27.4057C15.4537 27.388 15.5069 27.3668 15.5525 27.3492C15.6892 27.2962 15.8184 27.2292 15.9514 27.1444C16.3238 26.9079 16.6848 26.5442 17.0381 26.0499C17.0761 26.0005 17.0761 25.9546 17.0381 25.9122C16.9469 25.7992 16.8595 25.6721 16.776 25.5309C16.6506 25.3155 16.6126 25.0896 16.6582 24.853C16.7038 24.6165 16.8254 24.4187 17.0191 24.2669C17.1255 24.1857 17.2547 24.161 17.4029 24.1963C17.5511 24.2351 17.6537 24.3128 17.7069 24.4364C17.7335 24.4929 17.7259 24.5564 17.6803 24.6306C17.6043 24.7753 17.5511 24.9554 17.5207 25.1708C17.5131 25.2414 17.5131 25.2908 17.5131 25.3261L17.5207 25.3297L17.5321 25.3332L17.5967 25.2484L17.6689 25.1602C17.7221 25.0896 17.7753 25.026 17.8209 24.9731C17.9463 24.8248 18.0641 24.6906 18.1742 24.5811C18.4782 24.2846 18.767 24.0798 19.052 23.9703C19.1356 23.9386 19.2078 23.935 19.2724 23.9633C19.4357 24.0339 19.4547 24.1222 19.3256 24.2316C19.109 24.4081 18.8088 24.7294 18.4288 25.1955C18.3034 25.3473 18.1704 25.5203 18.0223 25.7074C17.9957 25.7392 17.9691 25.7745 17.9349 25.8134L17.9007 25.8628L17.8665 25.9122C17.8133 25.9828 17.7753 26.0287 17.7601 26.0499L17.7411 26.0676L17.7221 26.0887C17.7107 26.1029 17.7107 26.117 17.7183 26.1276C17.7259 26.1452 17.7411 26.1523 17.7601 26.1523H17.8171C17.9539 26.1417 18.1097 26.0923 18.273 26.004C18.501 25.8769 18.7746 25.6686 19.0938 25.3826C19.28 25.2131 19.4623 25.086 19.6333 24.9942C19.7207 24.9483 19.8005 24.9448 19.8727 24.9872C19.9297 25.0225 19.9373 25.0649 19.8955 25.1108C19.8385 25.1708 19.7625 25.2484 19.6713 25.3473L19.4509 25.5839C19.2762 25.771 19.1166 25.9193 18.9722 26.0287C18.824 26.1452 18.6492 26.2512 18.4516 26.3535C18.1894 26.4877 17.9197 26.4912 17.6385 26.3712C17.5815 26.3465 17.5321 26.3606 17.4903 26.41C17.1977 26.8196 16.8671 27.1374 16.4986 27.3704C16.2364 27.5293 15.94 27.6564 15.6056 27.7446ZM21.062 24.6482L21.1 24.5706L21.1418 24.4894C21.0848 24.4999 21.024 24.5176 20.9632 24.5458L20.8796 24.5811L20.8036 24.62C20.7276 24.6588 20.6479 24.7083 20.5605 24.7683L20.4503 24.8495L20.3325 24.9307C20.1273 25.0754 19.9677 25.1778 19.8537 25.2414C19.8461 25.2449 19.8423 25.252 19.8309 25.2626L19.8119 25.2873L19.5383 25.7569L19.261 26.2264L19.2534 26.2441L19.2458 26.2617C19.2382 26.2759 19.2458 26.2865 19.2572 26.2935L19.3104 26.3253L19.3674 26.3571C19.4091 26.3783 19.4547 26.3818 19.5003 26.3641C19.6295 26.3147 19.7511 26.23 19.8689 26.1205C20.2413 25.7569 20.6099 25.3191 20.967 24.8071C20.9974 24.7612 21.0278 24.7118 21.062 24.6482ZM21.3204 25.778C21.2482 25.8663 21.157 25.9722 21.043 26.0958L20.8948 26.2476L20.7542 26.403C20.5719 26.5972 20.3363 26.7172 20.0399 26.7631C19.7131 26.8196 19.4205 26.7525 19.1622 26.5619C19.1128 26.523 19.0748 26.5301 19.0444 26.583C18.7784 27.0879 18.5884 27.5469 18.4782 27.9635C18.3262 28.5426 18.3376 29.0051 18.5162 29.3476C18.5694 29.4535 18.5352 29.5064 18.4098 29.4994C18.3262 29.4923 18.254 29.4747 18.1932 29.4429C17.7867 29.2205 17.5967 28.818 17.6233 28.2389C17.6423 27.787 17.7791 27.2856 18.0337 26.7384C18.3794 26.0111 18.9 25.2131 19.5915 24.3481L19.6257 24.3093L19.6599 24.2704C19.8499 24.0621 20.0399 24.0657 20.2299 24.2775C20.2679 24.3199 20.3097 24.3269 20.3553 24.2952C20.5643 24.1575 20.7656 24.0515 20.9556 23.9703C21.119 23.9033 21.2976 23.8962 21.4914 23.9492C21.6814 24.0021 21.8258 24.0974 21.9284 24.2387C22.0195 24.3728 22.0309 24.5353 21.9625 24.7259C21.8638 25.0119 21.6472 25.3614 21.3204 25.778ZM22.4261 26.6183C22.3159 26.5583 22.2475 26.4983 22.2247 26.4383C22.2019 26.3783 22.2095 26.29 22.2513 26.177C22.4451 25.658 22.8479 24.9978 23.4596 24.1963C23.5166 24.1222 23.5964 24.0974 23.6952 24.1186C23.7788 24.1398 23.851 24.1751 23.908 24.2175C23.9878 24.2775 24.0144 24.3375 23.9802 24.4046C23.9612 24.4435 23.9726 24.4646 24.0144 24.4682C24.0676 24.4717 24.1284 24.4823 24.2044 24.5035L24.2956 24.5352L24.3906 24.5635C24.4666 24.5811 24.5387 24.567 24.6147 24.5282L24.7173 24.4646L24.8199 24.3976C24.8997 24.3481 24.9719 24.3093 25.0327 24.281C25.1011 24.2493 25.1695 24.2563 25.2341 24.3022C25.2987 24.3375 25.3063 24.3764 25.2607 24.4187C25.2417 24.4399 25.2265 24.4682 25.2189 24.4999L25.2113 24.5494L25.2075 24.5953C25.1961 24.6977 25.1467 24.7824 25.0593 24.8495C24.9719 24.9201 24.8655 24.9519 24.7439 24.9483C24.6033 24.9307 24.4666 24.8918 24.3298 24.8389C24.2538 24.8106 24.1816 24.8212 24.117 24.8777C23.8624 25.0966 23.6382 25.3261 23.452 25.5662C23.224 25.8698 23.0607 26.1629 22.9657 26.4418L22.9353 26.5089L22.9049 26.5795C22.8745 26.6395 22.8403 26.6784 22.8099 26.696C22.7757 26.7101 22.7225 26.7101 22.6503 26.696C22.5781 26.6854 22.5059 26.6607 22.4261 26.6183ZM28.2359 25.1602C28.2815 25.1778 28.2891 25.2025 28.2587 25.2379C28.0877 25.4109 27.9585 25.5415 27.8711 25.6262C27.7229 25.7675 27.5861 25.891 27.4607 25.9969C27.1453 26.2582 26.8338 26.4595 26.5184 26.5972C26.222 26.7313 25.937 26.7525 25.6673 26.6607C25.4013 26.5724 25.1885 26.3889 25.0365 26.1099C24.9567 25.9652 24.9415 25.8134 24.9985 25.6474C25.1733 25.1319 25.4583 24.733 25.8534 24.447C26.0358 24.3199 26.2182 24.2563 26.393 24.2599C26.6476 24.274 26.8566 24.3587 27.02 24.5176C27.1453 24.6376 27.1757 24.7683 27.1073 24.9095C26.8756 25.3791 26.507 25.6651 26.0016 25.7639C25.9332 25.778 25.8496 25.771 25.7546 25.7392C25.7091 25.7286 25.6787 25.7392 25.6673 25.771C25.5875 25.9969 25.5951 26.1805 25.6939 26.3112C25.7357 26.3712 25.7964 26.3924 25.8762 26.3818C26.0814 26.343 26.298 26.2653 26.5222 26.1558C26.8984 25.9722 27.2175 25.7745 27.4721 25.5591C27.6887 25.3755 27.9015 25.2449 28.1105 25.1672C28.1637 25.1496 28.2055 25.1461 28.2359 25.1602ZM26.5754 24.62C26.3208 24.7895 26.0738 25.0649 25.8382 25.4497C26.0244 25.4356 26.2106 25.3508 26.4006 25.192C26.583 25.0331 26.6932 24.8707 26.7198 24.7047L26.7236 24.6694L26.7274 24.6376C26.7274 24.6129 26.7198 24.5953 26.7008 24.5811C26.6818 24.567 26.6628 24.567 26.6362 24.5811L26.6058 24.6023L26.5754 24.62ZM29.2352 26.0287C29.4442 26.2653 29.4328 26.4912 29.201 26.6996C28.992 26.8867 28.6728 27.0208 28.2397 27.102C27.9585 27.1515 27.7039 27.1197 27.4797 27.0032C27.3923 26.9573 27.3239 26.9043 27.2707 26.8478C27.1453 26.7066 27.1529 26.5795 27.2935 26.4665L27.4911 26.3112L27.6887 26.1558C27.8407 26.0393 27.9813 25.944 28.1029 25.8628C28.1105 25.8557 28.1219 25.8522 28.1371 25.8416L28.1599 25.831L28.1865 25.8134L28.1257 25.778L28.0687 25.7427L27.9547 25.6721C27.7837 25.545 27.6659 25.4285 27.6089 25.3155C27.5215 25.1496 27.5329 25.0084 27.6393 24.8918C28.0193 24.4646 28.4334 24.2175 28.878 24.1504C29.2352 24.0939 29.5468 24.1787 29.8089 24.4046C30.0293 24.5882 30.0293 24.7753 29.8165 24.9589L29.6949 25.0649C29.6455 25.1037 29.6075 25.139 29.5772 25.1708C29.524 25.2202 29.4518 25.2237 29.3682 25.1778C29.2808 25.139 29.2504 25.0825 29.2694 25.0084C29.277 24.9731 29.296 24.9307 29.3264 24.8742L29.3568 24.8106L29.3872 24.7471L29.4062 24.7083L29.4252 24.6694C29.4366 24.6376 29.4366 24.6129 29.4214 24.5988C29.4024 24.5811 29.3796 24.5776 29.3492 24.5882L29.3074 24.6059L29.2694 24.6235C28.9046 24.7506 28.6044 24.9554 28.3726 25.2379C28.3043 25.3191 28.2891 25.4003 28.3308 25.4779C28.365 25.5486 28.4372 25.6086 28.5436 25.6509C28.5626 25.658 28.5778 25.658 28.5968 25.6474L28.6234 25.6368L28.6462 25.6262L28.9616 25.4921L29.277 25.365C29.5126 25.2696 29.7253 25.1884 29.9153 25.1284C30.2269 25.026 30.5157 24.9589 30.7893 24.9272C30.9374 24.9095 31.0628 24.9272 31.1654 24.9872L31.1882 24.9978L31.211 25.0154C31.2262 25.0295 31.23 25.0437 31.23 25.0543C31.2262 25.0719 31.2148 25.0825 31.1958 25.086H31.1502C30.9792 25.1072 30.7361 25.1672 30.4207 25.2696C29.9533 25.4179 29.4974 25.5839 29.049 25.7745C29.0376 25.7816 29.0224 25.7886 29.0034 25.7992L28.973 25.8098L28.9388 25.8275C29.068 25.884 29.1744 25.9616 29.2352 26.0287ZM28.5132 26.3994C28.6158 26.3182 28.669 26.2159 28.6804 26.1029C28.6842 26.0499 28.6652 26.0111 28.6272 25.9899C28.5854 25.9687 28.5436 25.9722 28.4942 25.9969C28.2169 26.1346 27.9509 26.3324 27.7039 26.5866C27.6583 26.6289 27.6279 26.6713 27.6127 26.7137C27.5937 26.7666 27.6127 26.7878 27.6735 26.7772C28.0307 26.7031 28.3081 26.576 28.5132 26.3994ZM32.0052 26.0287C32.2141 26.2653 32.2027 26.4912 31.971 26.6996C31.762 26.8867 31.4428 27.0208 31.0096 27.102C30.7285 27.1515 30.4739 27.1197 30.2497 27.0032C30.1623 26.9573 30.0939 26.9043 30.0407 26.8478C29.9153 26.7066 29.9229 26.5795 30.0635 26.4665L30.2611 26.3112L30.4587 26.1558C30.6107 26.0393 30.7513 25.944 30.8728 25.8628C30.8804 25.8557 30.8918 25.8522 30.907 25.8416L30.9298 25.831L30.9564 25.8134L30.8956 25.778L30.8387 25.7427L30.7247 25.6721C30.5537 25.545 30.4359 25.4285 30.3789 25.3155C30.2915 25.1496 30.3029 25.0084 30.4093 24.8918C30.7893 24.4646 31.2034 24.2175 31.648 24.1504C32.0052 24.0939 32.3167 24.1787 32.5789 24.4046C32.7993 24.5882 32.7993 24.7753 32.5865 24.9589L32.4649 25.0649C32.4155 25.1037 32.3775 25.139 32.3471 25.1708C32.2939 25.2202 32.2217 25.2237 32.1381 25.1778C32.0508 25.139 32.0204 25.0825 32.0394 25.0084C32.047 24.9731 32.066 24.9307 32.0964 24.8742L32.1267 24.8106L32.1571 24.7471L32.1761 24.7083L32.1951 24.6694C32.2065 24.6376 32.2065 24.6129 32.1913 24.5988C32.1723 24.5811 32.1495 24.5776 32.1191 24.5882L32.0774 24.6059L32.0394 24.6235C31.6746 24.7506 31.3744 24.9554 31.1426 25.2379C31.0742 25.3191 31.059 25.4003 31.1008 25.4779C31.135 25.5486 31.2072 25.6086 31.3136 25.6509C31.3326 25.658 31.3478 25.658 31.3668 25.6474L31.3934 25.6368L31.4162 25.6262L31.7316 25.4921L32.047 25.365C32.2825 25.2696 32.4953 25.1884 32.6853 25.1284C32.9969 25.026 33.2857 24.9589 33.5592 24.9272C33.7074 24.9095 33.8328 24.9272 33.9354 24.9872L33.9582 24.9978L33.981 25.0154C33.9962 25.0295 34 25.0437 34 25.0543C33.9962 25.0719 33.9848 25.0825 33.9658 25.086H33.9202C33.7492 25.1072 33.506 25.1672 33.1907 25.2696C32.7233 25.4179 32.2673 25.5839 31.819 25.7745C31.8076 25.7816 31.7924 25.7886 31.7734 25.7992L31.743 25.8098L31.7088 25.8275C31.838 25.884 31.9444 25.9616 32.0052 26.0287ZM31.2832 26.3994C31.3858 26.3182 31.439 26.2159 31.4504 26.1029C31.4542 26.0499 31.4352 26.0111 31.3972 25.9899C31.3554 25.9687 31.3136 25.9722 31.2642 25.9969C30.9868 26.1346 30.7209 26.3324 30.4739 26.5866C30.4283 26.6289 30.3979 26.6713 30.3827 26.7137C30.3637 26.7666 30.3827 26.7878 30.4435 26.7772C30.8007 26.7031 31.078 26.576 31.2832 26.3994Z" fill="#303030"/>
<path d="M19.2145 34.5225C18.9218 34.855 18.4527 35.2588 17.8073 35.7338L17.7547 35.7734C17.7284 35.7932 17.7059 35.809 17.6909 35.8209C17.8673 35.908 18.0212 36.0189 18.1525 36.1495C18.2838 36.2801 18.3814 36.4266 18.449 36.5929C18.5878 36.9214 18.5353 37.2104 18.2951 37.4638C18.145 37.6221 17.9611 37.7647 17.7359 37.8913C17.2706 38.1605 16.824 38.3149 16.4 38.3624C15.9459 38.4099 15.5519 38.2635 15.2141 37.923C14.9965 37.7013 14.9439 37.4321 15.0603 37.1154C15.1541 36.8541 15.3492 36.585 15.6457 36.2999C15.9234 36.0466 16.2011 35.8566 16.475 35.7378C16.5163 35.722 16.5201 35.6982 16.4938 35.6745C16.2649 35.4805 16.126 35.1875 16.081 34.7917C16.0022 34.1108 16.2424 33.5605 16.8015 33.1488C17.2706 32.8004 17.766 32.5867 18.2876 32.5194C18.6591 32.4679 18.9781 32.5194 19.2483 32.6698C19.7324 32.939 19.8675 33.3349 19.6611 33.8495C19.5823 34.0553 19.4359 34.277 19.2145 34.5225ZM18.0061 36.7433C17.9761 36.4108 17.8185 36.1693 17.5408 36.0189C17.4883 35.9872 17.4395 35.9911 17.3982 36.0307C17.3194 36.0941 17.2293 36.106 17.1318 36.0664C17.0454 36.0307 16.9666 36.0387 16.8953 36.0941C16.6026 36.3197 16.3399 36.5731 16.0998 36.8541C15.9234 37.0679 15.8033 37.2619 15.7395 37.4321C15.6832 37.5865 15.6644 37.7171 15.6832 37.824C15.6945 37.9072 15.7395 37.9547 15.8146 37.9626C15.8708 37.9705 15.9271 37.9745 15.9834 37.9745C16.2048 37.9705 16.46 37.9151 16.7527 37.8122C17.1993 37.6538 17.5483 37.444 17.8035 37.1827C17.9536 37.0323 18.0212 36.8858 18.0061 36.7433ZM17.2181 35.6111C17.4545 35.3855 17.7697 35.1084 18.1563 34.7877C18.4865 34.5106 18.7379 34.2533 18.9105 34.0158C19.0607 33.8099 19.1545 33.6001 19.192 33.3982C19.222 33.2398 19.2145 33.1052 19.1695 32.9984C19.1545 32.9469 19.1169 32.9192 19.0607 32.9152C18.9406 32.9073 18.8392 32.9113 18.7492 32.9271C18.1938 33.03 17.6909 33.2755 17.2443 33.6713C16.8991 33.9722 16.719 34.3641 16.704 34.851C16.7002 35.1282 16.7377 35.3578 16.8165 35.5359C16.8578 35.6309 16.9179 35.6665 16.9929 35.6467C17.0079 35.6428 17.0267 35.6428 17.0492 35.6428L17.1017 35.6547C17.1468 35.6586 17.1843 35.6467 17.2181 35.6111ZM22.652 34.5225C22.3593 34.855 21.8902 35.2588 21.2447 35.7338L21.1922 35.7734C21.1659 35.7932 21.1434 35.809 21.1284 35.8209C21.3048 35.908 21.4586 36.0189 21.59 36.1495C21.7213 36.2801 21.8189 36.4266 21.8865 36.5929C22.0253 36.9214 21.9728 37.2104 21.7326 37.4638C21.5825 37.6221 21.3986 37.7647 21.1734 37.8913C20.7081 38.1605 20.2615 38.3149 19.8375 38.3624C19.3834 38.4099 18.9894 38.2635 18.6516 37.923C18.434 37.7013 18.3814 37.4321 18.4978 37.1154C18.5916 36.8541 18.7867 36.585 19.0832 36.2999C19.3609 36.0466 19.6386 35.8566 19.9125 35.7378C19.9538 35.722 19.9576 35.6982 19.9313 35.6745C19.7024 35.4805 19.5635 35.1875 19.5185 34.7917C19.4397 34.1108 19.6799 33.5605 20.239 33.1488C20.7081 32.8004 21.2035 32.5867 21.7251 32.5194C22.0966 32.4679 22.4156 32.5194 22.6858 32.6698C23.1699 32.939 23.3087 33.3349 23.0986 33.8495C23.0198 34.0553 22.8697 34.277 22.652 34.5225ZM21.4399 36.7433C21.4099 36.4108 21.2522 36.1693 20.9745 36.0189C20.922 35.9872 20.8732 35.9911 20.8319 36.0307C20.7531 36.0941 20.6631 36.106 20.5655 36.0664C20.4792 36.0307 20.4004 36.0387 20.3291 36.0941C20.0364 36.3197 19.7737 36.5731 19.5335 36.8541C19.3571 37.0679 19.237 37.2619 19.1732 37.4321C19.1169 37.5865 19.0982 37.7171 19.1169 37.824C19.1282 37.9072 19.1732 37.9547 19.2483 37.9626C19.3046 37.9705 19.3609 37.9745 19.4172 37.9745C19.6386 37.9705 19.8938 37.9151 20.1865 37.8122C20.633 37.6538 20.9821 37.444 21.2372 37.1827C21.3873 37.0323 21.4549 36.8858 21.4399 36.7433ZM20.6518 35.6111C20.8882 35.3855 21.2035 35.1084 21.59 34.7877C21.9202 34.5106 22.1717 34.2533 22.3443 34.0158C22.4944 33.8099 22.5882 33.6001 22.6257 33.3982C22.6558 33.2398 22.6483 33.1052 22.6032 32.9984C22.5882 32.9469 22.5507 32.9192 22.4944 32.9152C22.3743 32.9073 22.273 32.9113 22.1829 32.9271C21.6275 33.03 21.1247 33.2755 20.6781 33.6713C20.3328 33.9722 20.1527 34.3641 20.1377 34.851C20.1339 35.1282 20.1715 35.3578 20.2503 35.5359C20.2916 35.6309 20.3516 35.6665 20.4266 35.6467C20.4417 35.6428 20.4604 35.6428 20.4829 35.6428L20.5355 35.6547C20.5805 35.6586 20.618 35.6467 20.6518 35.6111ZM25.3727 33.1052C25.339 33.0894 25.3014 33.0934 25.2639 33.1171L25.1701 33.1884L25.08 33.2636C25.0125 33.319 24.9562 33.3705 24.9111 33.414C24.2357 34.087 23.6878 34.8431 23.2675 35.6863C22.9785 36.2683 22.7946 36.7671 22.7121 37.1906C22.6558 37.5073 22.697 37.7686 22.8396 37.9824C22.8847 38.0497 22.9147 38.0853 22.9297 38.0893C22.941 38.0932 22.986 38.0813 23.0648 38.0457C23.4964 37.8517 23.8641 37.5826 24.1681 37.2461C24.7648 36.577 25.2189 35.7893 25.5341 34.8906C25.6654 34.5146 25.733 34.2176 25.7292 33.9999C25.7255 33.8614 25.7105 33.7268 25.6917 33.5961C25.6842 33.5447 25.6767 33.4892 25.6617 33.4259L25.6279 33.2636C25.6167 33.2161 25.6016 33.1844 25.5866 33.1646C25.5641 33.133 25.5228 33.125 25.4703 33.129C25.459 33.133 25.444 33.129 25.4253 33.1211C25.4065 33.125 25.3915 33.1171 25.3727 33.1052ZM24.8061 32.6935C25.0462 32.5748 25.2864 32.5748 25.5303 32.6896L25.6354 32.7371L25.7405 32.7846C25.8268 32.8242 25.8944 32.8598 25.9469 32.8915C26.2133 33.0617 26.3635 33.2794 26.3935 33.5447L26.4085 33.6674L26.4272 33.7901C26.4385 33.8891 26.4423 33.9682 26.446 34.0395C26.4498 34.2889 26.3897 34.5739 26.2659 34.9065C25.8869 35.9278 25.3727 36.8066 24.731 37.5469C24.4496 37.8676 24.1118 38.1368 23.7178 38.3585C23.3875 38.5445 23.0686 38.5485 22.7571 38.3624C22.2805 38.0813 22.0103 37.733 21.9465 37.3173C21.909 37.0838 21.9465 36.7948 22.0553 36.4583C22.288 35.7338 22.6745 35.0015 23.2149 34.2572C23.5827 33.7505 23.9279 33.3586 24.2544 33.0736C24.4346 32.9113 24.6184 32.7846 24.8061 32.6935ZM28.9303 33.1052C28.8965 33.0894 28.859 33.0934 28.8215 33.1171L28.7277 33.1884L28.6376 33.2636C28.57 33.319 28.5138 33.3705 28.4687 33.414C27.7932 34.087 27.2453 34.8431 26.825 35.6863C26.5361 36.2683 26.3522 36.7671 26.2696 37.1906C26.2133 37.5073 26.2546 37.7686 26.3972 37.9824C26.4423 38.0497 26.4723 38.0853 26.4873 38.0893C26.4985 38.0932 26.5436 38.0813 26.6224 38.0457C27.054 37.8517 27.4217 37.5826 27.7257 37.2461C28.3224 36.577 28.7764 35.7893 29.0917 34.8906C29.223 34.5146 29.2906 34.2176 29.2868 33.9999C29.2831 33.8614 29.2681 33.7268 29.2493 33.5961C29.2418 33.5447 29.2343 33.4892 29.2193 33.4259L29.1855 33.2636C29.1742 33.2161 29.1592 33.1844 29.1442 33.1646C29.1217 33.133 29.0804 33.125 29.0279 33.129C29.0166 33.133 29.0016 33.129 28.9828 33.1211C28.9603 33.125 28.9453 33.1171 28.9303 33.1052ZM28.3599 32.6935C28.6001 32.5748 28.8402 32.5748 29.0842 32.6896L29.1892 32.7371L29.2943 32.7846C29.3806 32.8242 29.4482 32.8598 29.5007 32.8915C29.7672 33.0617 29.9173 33.2794 29.9473 33.5447L29.9623 33.6674L29.9811 33.7901C29.9923 33.8891 29.9961 33.9682 29.9998 34.0395C30.0036 34.2889 29.9435 34.5739 29.8197 34.9065C29.4407 35.9278 28.9266 36.8066 28.2848 37.5469C28.0034 37.8676 27.6656 38.1368 27.2716 38.3585C26.9414 38.5445 26.6224 38.5485 26.3109 38.3624C25.8343 38.0813 25.5641 37.733 25.5003 37.3173C25.4628 37.0838 25.5003 36.7948 25.6092 36.4583C25.8418 35.7338 26.2284 35.0015 26.7687 34.2572C27.1365 33.7505 27.4818 33.3586 27.8082 33.0736C27.9921 32.9113 28.176 32.7846 28.3599 32.6935Z" fill="url(#paint1_linear_2015_2920)"/>
<path d="M21.9552 20.1962C21.9738 20.2352 21.985 20.2819 21.9924 20.3286C22.011 20.4299 21.9961 20.4844 21.9403 20.5C21.9142 20.5 21.8807 20.4922 21.8472 20.4688C21.449 20.1495 21.0285 20.1105 20.5893 20.352L20.4367 20.4221L20.2804 20.4922C20.2283 20.5156 20.1724 20.4766 20.1092 20.3832C20.0459 20.2897 20.0087 20.1884 20.0012 20.0871C19.9938 19.9781 20.0198 19.8924 20.0831 19.8379C20.1985 19.7288 20.3399 19.6431 20.5148 19.573C20.7344 19.4951 20.9242 19.4796 21.0806 19.5263C21.356 19.6042 21.5718 19.7055 21.7244 19.8457C21.8175 19.9314 21.8956 20.0482 21.9552 20.1962Z" fill="white"/>
<defs>
<linearGradient id="paint0_linear_2015_2920" x1="36.7235" y1="38.5579" x2="8.52197" y2="5.7279" gradientUnits="userSpaceOnUse">
<stop stop-color="#B0916C"/>
<stop offset="0.5153" stop-color="#F8E5C2"/>
<stop offset="1" stop-color="#AE8E69"/>
</linearGradient>
<linearGradient id="paint1_linear_2015_2920" x1="24.7885" y1="38.6035" x2="19.2804" y2="31.9784" gradientUnits="userSpaceOnUse">
<stop stop-color="#B0916C"/>
<stop offset="0.5153" stop-color="#F8E5C2"/>
<stop offset="1" stop-color="#AE8E69"/>
</linearGradient>
</defs>
</svg>
