<svg width="28" height="20" viewBox="0 0 28 20" fill="none" xmlns="http://www.w3.org/2000/svg">
<path d="M0 1.97909C0.118464 1.43418 0.337588 0.943368 0.791586 0.565318C1.28461 0.154026 1.86255 0.000200114 2.50349 0.000200114C8.32535 0.00150373 14.1472 0.000850572 19.9697 0.000850572C21.8282 0.000850572 23.6873 -0.0017554 25.5458 0.00215546C26.5428 0.0041109 27.3172 0.399108 27.7493 1.26732C27.9041 1.57758 27.9869 1.94976 27.9883 2.29392C28.0027 7.42888 28.002 12.5638 27.9958 17.6995C27.9945 19.0578 26.9735 19.9912 25.5184 19.9919C18.8399 19.9932 12.1614 19.9925 5.4829 19.9925C4.51738 19.9925 3.55049 19.9677 2.58566 19.9984C1.21203 20.0421 0.190364 19.1967 0.0308141 18.0847C0.0273903 18.0606 0.0109562 18.0377 0 18.0143C0 12.6688 0 7.32394 0 1.97909ZM25.9176 1.19497C25.5081 1.06135 2.36791 1.08286 2.14742 1.19562C2.17275 1.22169 2.19603 1.24776 2.22274 1.27123C5.85061 4.42208 9.4778 7.57488 13.1091 10.7225C13.7192 11.2511 14.3013 11.2348 14.9278 10.6912C18.5105 7.58271 22.0911 4.47162 25.6731 1.36314C25.7389 1.30578 25.8176 1.26341 25.9176 1.19497ZM25.9498 18.8512C22.8464 16.0673 19.8184 13.3186 16.6411 10.714C16.3179 10.9917 16.0159 11.255 15.7098 11.5144C15.3092 11.8547 14.8669 12.1141 14.3211 12.1858C13.5186 12.2914 12.8612 12.0085 12.2812 11.5092C11.9731 11.2439 11.6643 10.9786 11.3123 10.6755C8.22195 13.3871 5.15079 16.0823 2.07962 18.7775C2.09537 18.8023 2.11044 18.8264 2.12619 18.8512C10.0414 18.8512 17.9572 18.8512 25.9498 18.8512ZM1.1908 18.0495C4.3051 15.3145 7.36736 12.6258 10.4454 9.9227C7.39133 7.26853 4.32428 4.60263 1.25722 1.93738C1.23531 1.95042 1.2134 1.96345 1.19149 1.97649C1.1908 7.31677 1.1908 12.6564 1.1908 18.0495ZM17.5525 9.92336C20.6429 12.6368 23.7037 15.3249 26.7955 18.0397C26.7955 12.6531 26.7955 7.31025 26.7955 1.8898C23.6688 4.60719 20.6045 7.27114 17.5525 9.92336Z" fill="white"/>
</svg>
