<svg width="378" height="400" viewBox="0 0 378 400" fill="none" xmlns="http://www.w3.org/2000/svg">
<path d="M175 200C175 258.542 127.542 306 69.0001 306C10.4579 306 -37 258.542 -37 200C-37 141.458 10.4579 94 69.0001 94C127.542 94 175 141.458 175 200Z" fill="#FFF3EC"/>
<mask id="mask0_51_6059" style="mask-type:luminance" maskUnits="userSpaceOnUse" x="-149" y="-14" width="436" height="437">
<path d="M223.149 358.448C138.015 443.582 -0.0148996 443.582 -85.1492 358.448C-170.284 273.314 -170.284 135.284 -85.1492 50.1492C-0.0149359 -34.9851 138.015 -34.985 223.149 50.1493C308.284 135.284 308.284 273.314 223.149 358.448Z" fill="white"/>
</mask>
<g mask="url(#mask0_51_6059)">
<mask id="mask1_51_6059" style="mask-type:luminance" maskUnits="userSpaceOnUse" x="-149" y="-15" width="437" height="219">
<path d="M-149 204L-149 -15L288 -15L288 204L-149 204Z" fill="white"/>
</mask>
<g mask="url(#mask1_51_6059)">
<path d="M-287 11L-287 5L620 4.99997L620 11L-287 11Z" fill="#FFF3EC"/>
<path d="M-287 25L-287 19L620 19L620 25L-287 25Z" fill="#FFF3EC"/>
<path d="M-287 38L-287 32L620 32L620 38L-287 38Z" fill="#FFF3EC"/>
<path d="M-287 51L-287 45L620 45L620 51L-287 51Z" fill="#FFF3EC"/>
<path d="M-287 64L-287 58L620 58L620 64L-287 64Z" fill="#FFF3EC"/>
<path d="M-287 78L-287 72L620 72L620 78L-287 78Z" fill="#FFF3EC"/>
<path d="M-287 91L-287 85L620 85L620 91L-287 91Z" fill="#FFF3EC"/>
<path d="M-287 104L-287 98L620 98L620 104L-287 104Z" fill="#FFF3EC"/>
<path d="M-287 117L-287 111L620 111L620 117L-287 117Z" fill="#FFF3EC"/>
<path d="M-287 131L-287 125L620 125L620 131L-287 131Z" fill="#FFF3EC"/>
<path d="M-287 144L-287 138L620 138L620 144L-287 144Z" fill="#FFF3EC"/>
<path d="M-287 157L-287 151L620 151L620 157L-287 157Z" fill="#FFF3EC"/>
<path d="M-287 170L-287 164L620 164L620 170L-287 170Z" fill="#FFF3EC"/>
<path d="M-287 184L-287 178L620 178L620 184L-287 184Z" fill="#FFF3EC"/>
<path d="M-287 197L-287 191L620 191L620 197L-287 197Z" fill="#FFF3EC"/>
</g>
</g>
<path d="M70 197L286.983 197C286.983 197.559 287 198.136 287 198.695C287 318.704 189.845 416 70 416L70 197Z" fill="#1A49BA"/>
<path d="M-149 197.699C-149 197.472 -149 197.227 -148.983 197L69 197L69 416C-51.4053 416 -149 318.263 -149 197.699Z" fill="#7E5DDD"/>
<path d="M69 197L69 416C8.86505 416 -45.5844 391.497 -85 351.873L69 197Z" fill="#1A49BA"/>
<path d="M69 197L69 416C129.135 416 183.584 391.488 223 351.87L69 197Z" fill="#DD017F"/>
</svg>
