<svg width="386" height="400" viewBox="0 0 386 400" fill="none" xmlns="http://www.w3.org/2000/svg">
<path d="M498 -9H288V201H498V-9Z" fill="#DD017F"/>
<path d="M498 201L288 -9H498V201Z" fill="#D9DFFF"/>
<path d="M78 201L287 -9H78V201Z" fill="#7E5DDD"/>
<path d="M287 201V-9H78L287 201Z" fill="#D9DFFF"/>
<path d="M287 -9L78 201H287V-9Z" fill="#1A49BA"/>
<path d="M181.546 97L78 201H287L181.546 97Z" fill="#D9DFFF"/>
<path d="M290.5 510.999C346.557 510.999 392 465.556 392 409.499C392 353.442 346.557 307.999 290.5 307.999C234.443 307.999 189 353.442 189 409.499C189 465.556 234.443 510.999 290.5 510.999Z" fill="#FFF3EC"/>
<mask id="mask0_51_5964" style="mask-type:luminance" maskUnits="userSpaceOnUse" x="86" y="200" width="419" height="419">
<path d="M443.356 557.784C524.976 476.165 524.976 343.833 443.356 262.214C361.736 180.594 229.405 180.594 147.785 262.214C66.1657 343.833 66.1658 476.165 147.785 557.784C229.405 639.404 361.736 639.404 443.356 557.784Z" fill="white"/>
</mask>
<g mask="url(#mask0_51_5964)">
<mask id="mask1_51_5964" style="mask-type:luminance" maskUnits="userSpaceOnUse" x="85" y="200" width="210" height="420">
<path d="M295 200.999H85V619.999H295V200.999Z" fill="white"/>
</mask>
<g mask="url(#mask1_51_5964)">
<path d="M98 67.999H92V936.999H98V67.999Z" fill="#FFF3EC"/>
<path d="M111 67.999H105V936.999H111V67.999Z" fill="#FFF3EC"/>
<path d="M123 67.999H117V936.999H123V67.999Z" fill="#FFF3EC"/>
<path d="M136 67.999H130V936.999H136V67.999Z" fill="#FFF3EC"/>
<path d="M149 67.999H143V936.999H149V67.999Z" fill="#FFF3EC"/>
<path d="M162 67.999H156V936.999H162V67.999Z" fill="#FFF3EC"/>
<path d="M174 67.999H168V936.999H174V67.999Z" fill="#FFF3EC"/>
<path d="M187 67.999H181V936.999H187V67.999Z" fill="#FFF3EC"/>
<path d="M200 67.999H194V936.999H200V67.999Z" fill="#FFF3EC"/>
<path d="M213 67.999H207V936.999H213V67.999Z" fill="#FFF3EC"/>
<path d="M226 67.999H220V936.999H226V67.999Z" fill="#FFF3EC"/>
<path d="M239 67.999H233V936.999H239V67.999Z" fill="#FFF3EC"/>
<path d="M252 67.999H246V936.999H252V67.999Z" fill="#FFF3EC"/>
<path d="M265 67.999H259V936.999H265V67.999Z" fill="#FFF3EC"/>
<path d="M277 67.999H271V936.999H277V67.999Z" fill="#FFF3EC"/>
<path d="M290 67.999H284V936.999H290V67.999Z" fill="#FFF3EC"/>
</g>
</g>
<path d="M288.67 199.999C288.452 199.999 288.218 199.999 288 200.016V408.999H498C498 293.565 404.279 199.999 288.67 199.999Z" fill="#7E5DDD"/>
<path d="M288 408.999H498C498 351.207 474.504 298.879 436.509 260.999L288 408.999Z" fill="#1A49BA"/>
</svg>
