<svg width="14" height="15" viewBox="0 0 14 15" fill="none" xmlns="http://www.w3.org/2000/svg">
<g clip-path="url(#clip0_2015_2784)">
<path d="M13.4914 1.17294L10.6477 0.516702C10.3387 0.445609 10.0216 0.606934 9.89579 0.896772L8.58331 3.95921C8.46847 4.22717 8.54503 4.54162 8.77198 4.72482L10.429 6.08104C9.44462 8.17826 7.72474 9.92275 5.58377 10.9262L4.22754 9.26925C4.04161 9.0423 3.7299 8.96574 3.46193 9.08058L0.399495 10.3931C0.106923 10.5216 -0.0544016 10.8387 0.0166907 11.1477L0.672927 13.9914C0.741285 14.2867 1.00378 14.5 1.31276 14.5C8.31535 14.5 14 8.82629 14 1.81277C14 1.50652 13.7895 1.2413 13.4914 1.17294Z" fill="#7E5DDD"/>
</g>
<defs>
<clipPath id="clip0_2015_2784">
<rect width="14" height="14" fill="white" transform="translate(0 0.5)"/>
</clipPath>
</defs>
</svg>
