<svg width="26" height="26" viewBox="0 0 26 26" fill="none" xmlns="http://www.w3.org/2000/svg">
<g clip-path="url(#clip0_48_4759)">
<path d="M13 26C20.1797 26 26 20.1797 26 13C26 5.8203 20.1797 0 13 0C5.8203 0 0 5.8203 0 13C0 20.1797 5.8203 26 13 26Z" fill="#2787F5"/>
<path d="M14.8419 7H11.1581C7.79609 7 7 7.79609 7 11.1581V14.8419C7 18.2039 7.79609 19 11.1581 19H14.8419C18.2039 19 19 18.2039 19 14.8419V11.1581C19 7.79609 18.1954 7 14.8419 7ZM16.6881 15.5617H15.8149C15.4846 15.5617 15.383 15.2992 14.7903 14.698C14.2736 14.199 14.0451 14.1306 13.9171 14.1306C13.7392 14.1306 13.6883 14.1805 13.6883 14.427V15.2146C13.6883 15.4264 13.6205 15.5534 13.0616 15.5534C12.1385 15.5534 11.1139 14.9946 10.3939 13.9528C9.30994 12.4284 9.01355 11.2851 9.01355 11.0481C9.01355 10.9211 9.06345 10.8026 9.30994 10.8026H10.1831C10.4034 10.8026 10.488 10.9041 10.5726 11.1414C11.0044 12.3863 11.7244 13.4788 12.0195 13.4788C12.1296 13.4788 12.1805 13.4289 12.1805 13.1484V11.8611C12.1465 11.2684 11.8332 11.2175 11.8332 11.0059C11.8332 10.9044 11.9178 10.8026 12.0535 10.8026H13.4256C13.612 10.8026 13.6796 10.9041 13.6796 11.1244V12.8603C13.6796 13.0467 13.7642 13.1143 13.8151 13.1143C13.9251 13.1143 14.0184 13.0464 14.2215 12.8433C14.8482 12.1405 15.297 11.0565 15.297 11.0565C15.3563 10.9296 15.4579 10.8111 15.6782 10.8111H16.5514C16.8138 10.8111 16.8732 10.9465 16.8138 11.1329C16.7038 11.6411 15.6368 13.1484 15.6368 13.1484C15.5437 13.3009 15.5098 13.3687 15.6368 13.5379C15.7298 13.6649 16.0359 13.9273 16.238 14.1646C16.6107 14.5887 16.8986 14.9437 16.9747 15.1892C17.0608 15.4347 16.9336 15.5617 16.6881 15.5617Z" fill="white"/>
</g>
<defs>
<clipPath id="clip0_48_4759">
<rect width="26" height="26" fill="white"/>
</clipPath>
</defs>
</svg>
