<svg width="26" height="26" viewBox="0 0 26 26" fill="none" xmlns="http://www.w3.org/2000/svg">
<path d="M1.10419 12.3874C1.10359 14.5704 1.67656 16.7019 2.76605 18.5807L1 25L7.59888 23.2775C9.42404 24.2667 11.469 24.785 13.5471 24.7851H13.5526C20.4127 24.7851 25.9971 19.2278 26 12.3971C26.0013 9.08719 24.7077 5.97474 22.3573 3.6331C20.0074 1.29167 16.882 0.0015106 13.552 0C6.69107 0 1.10713 5.55701 1.1043 12.3874" fill="url(#paint0_linear_2001_1024)"/>
<path d="M10.3051 7.55746C10.0654 7.0274 9.81328 7.0167 9.58541 7.00741C9.39881 6.99941 9.1855 7.00001 8.9724 7.00001C8.75909 7.00001 8.41251 7.07987 8.11957 7.39823C7.82632 7.71689 7 8.48695 7 10.0531C7 11.6194 8.14618 13.1331 8.30596 13.3457C8.46594 13.5579 10.5187 16.8748 13.7697 18.1508C16.4716 19.2113 17.0215 19.0004 17.6079 18.9472C18.1944 18.8942 19.5003 18.1773 19.7667 17.434C20.0334 16.6907 20.0334 16.0536 19.9534 15.9204C19.8735 15.7878 19.6602 15.7081 19.3403 15.549C19.0204 15.3898 17.4479 14.6196 17.1547 14.5134C16.8615 14.4072 16.6483 14.3542 16.435 14.673C16.2217 14.9912 15.6091 15.7081 15.4225 15.9204C15.236 16.1332 15.0493 16.1597 14.7295 16.0005C14.4094 15.8408 13.3794 15.505 12.1573 14.4206C11.2064 13.5768 10.5645 12.5347 10.3779 12.216C10.1913 11.8977 10.3579 11.7252 10.5183 11.5666C10.662 11.4239 10.8382 11.1948 10.9983 11.009C11.1578 10.8231 11.211 10.6905 11.3177 10.4782C11.4244 10.2657 11.371 10.0797 11.2912 9.92051C11.211 9.76128 10.5895 8.18688 10.3051 7.55746Z" fill="white"/>
<defs>
<linearGradient id="paint0_linear_2001_1024" x1="1251" y1="2500" x2="1251" y2="0" gradientUnits="userSpaceOnUse">
<stop stop-color="#1FAF38"/>
<stop offset="1" stop-color="#60D669"/>
</linearGradient>
</defs>
</svg>
