<svg>
    <symbol xmlns="http://www.w3.org/2000/svg" viewBox="0 0 19 21" id='profile'>
        <g clip-path="url(#clip0_2015_2932)">
        <path d="M10.0446 11.4999C7.02845 11.4856 4.58774 9.01721 4.59254 5.98329C4.59733 2.94457 7.09558 0.476208 10.1405 0.500173C13.1662 0.524138 15.6021 2.9925 15.5925 6.01684C15.5829 9.07473 13.1086 11.5143 10.0446 11.4999ZM10.1213 1.94285C7.91554 1.92368 6.04065 3.7402 6.01188 5.92577C5.98311 8.1449 7.83402 10.0525 10.0254 10.0669C12.2743 10.086 14.1204 8.28389 14.1492 6.0456C14.1827 3.81209 12.3654 1.96202 10.1213 1.94285Z"/>
        <path d="M9.82375 13.5C13.3737 13.6313 16.3426 15.216 18.3763 18.381C18.6079 18.7443 18.744 19.0901 18.3037 19.3747C17.8543 19.668 17.5501 19.4009 17.3277 19.042C16.2881 17.3654 14.7901 16.2141 12.9379 15.4787C8.90222 13.8765 4.25823 15.3123 1.90672 18.8713C1.81593 19.007 1.72967 19.2039 1.59802 19.2521C1.3438 19.3397 1.00787 19.436 0.803593 19.3353C0.649247 19.2609 0.567542 18.88 0.59932 18.6524C0.631097 18.416 0.817219 18.1927 0.967025 17.987C3.07339 15.1591 5.87431 13.5657 9.82375 13.5Z"/>
        </g>
        <defs>
        <clipPath id="clip0_2015_2932">
        <rect width="18" height="20" fill="white" transform="translate(0.592529 0.5)"/>
        </clipPath>
        </defs>
    </symbol>

    <symbol xmlns="http://www.w3.org/2000/svg" viewBox="0 0 18 25" id='mouse'>
        <g clip-path="url(#clip0_2015_2937)">
        <rect x="0.806452" y="0.806452" width="16.3871" height="23.3871" rx="8.19355" stroke="#303030" stroke-width="1.6129"/>
        <rect x="8" y="5" width="1" height="6" rx="0.5" fill="#303030"/>
        </g>
        <defs>
        <clipPath id="clip0_2015_2937">
        <rect width="18" height="25" fill="white"/>
        </clipPath>
        </defs>
    </symbol>

    <symbol xmlns="http://www.w3.org/2000/svg" viewBox="0 0 26 26" id='vk'>
        <g clip-path="url(#clip0_48_4759)">
        <path d="M13 26C20.1797 26 26 20.1797 26 13C26 5.8203 20.1797 0 13 0C5.8203 0 0 5.8203 0 13C0 20.1797 5.8203 26 13 26Z" fill="#2787F5"/>
        <path d="M14.8419 7H11.1581C7.79609 7 7 7.79609 7 11.1581V14.8419C7 18.2039 7.79609 19 11.1581 19H14.8419C18.2039 19 19 18.2039 19 14.8419V11.1581C19 7.79609 18.1954 7 14.8419 7ZM16.6881 15.5617H15.8149C15.4846 15.5617 15.383 15.2992 14.7903 14.698C14.2736 14.199 14.0451 14.1306 13.9171 14.1306C13.7392 14.1306 13.6883 14.1805 13.6883 14.427V15.2146C13.6883 15.4264 13.6205 15.5534 13.0616 15.5534C12.1385 15.5534 11.1139 14.9946 10.3939 13.9528C9.30994 12.4284 9.01355 11.2851 9.01355 11.0481C9.01355 10.9211 9.06345 10.8026 9.30994 10.8026H10.1831C10.4034 10.8026 10.488 10.9041 10.5726 11.1414C11.0044 12.3863 11.7244 13.4788 12.0195 13.4788C12.1296 13.4788 12.1805 13.4289 12.1805 13.1484V11.8611C12.1465 11.2684 11.8332 11.2175 11.8332 11.0059C11.8332 10.9044 11.9178 10.8026 12.0535 10.8026H13.4256C13.612 10.8026 13.6796 10.9041 13.6796 11.1244V12.8603C13.6796 13.0467 13.7642 13.1143 13.8151 13.1143C13.9251 13.1143 14.0184 13.0464 14.2215 12.8433C14.8482 12.1405 15.297 11.0565 15.297 11.0565C15.3563 10.9296 15.4579 10.8111 15.6782 10.8111H16.5514C16.8138 10.8111 16.8732 10.9465 16.8138 11.1329C16.7038 11.6411 15.6368 13.1484 15.6368 13.1484C15.5437 13.3009 15.5098 13.3687 15.6368 13.5379C15.7298 13.6649 16.0359 13.9273 16.238 14.1646C16.6107 14.5887 16.8986 14.9437 16.9747 15.1892C17.0608 15.4347 16.9336 15.5617 16.6881 15.5617Z" fill="white"/>
        </g>
        <defs>
        <clipPath id="clip0_48_4759">
        <rect width="26" height="26" fill="white"/>
        </clipPath>
        </defs>
    </symbol>

    <symbol xmlns="http://www.w3.org/2000/svg" viewBox="0 0 26 26" id='tg'>
        <g clip-path="url(#clip0_48_4762)">
        <path d="M13 0C9.55297 0 6.24406 1.37048 3.80859 3.80758C1.37061 6.24564 0.000675329 9.55212 0 13C0 16.4464 1.37109 19.7553 3.80859 22.1924C6.24406 24.6295 9.55297 26 13 26C16.447 26 19.7559 24.6295 22.1914 22.1924C24.6289 19.7553 26 16.4464 26 13C26 9.55358 24.6289 6.24467 22.1914 3.80758C19.7559 1.37048 16.447 0 13 0Z" fill="#229ED9"/>
        <path d="M5.96229 13.166C9.72109 11.4727 12.227 10.3562 13.4799 9.81684C17.0614 8.27664 17.8047 8.00914 18.2902 8.00008C18.397 7.99831 18.6347 8.0256 18.7898 8.15529C18.9187 8.26466 18.9549 8.41258 18.9731 8.51643C18.9892 8.62018 19.0113 8.85664 18.9932 9.04122C18.7998 11.1495 17.9598 16.2657 17.5328 18.6272C17.3535 19.6263 16.997 19.9613 16.6525 19.9941C15.9032 20.0653 15.3351 19.4824 14.61 18.9909C13.4759 18.2216 12.8353 17.7428 11.7334 16.9922C10.4604 16.1247 11.2863 15.6478 12.0114 14.8687C12.2008 14.6647 15.5003 11.5616 15.5627 11.2802C15.5708 11.245 15.5789 11.1137 15.5023 11.0445C15.4278 10.9752 15.317 10.9989 15.2364 11.0177C15.1216 11.0443 13.3107 12.2835 9.79764 14.7349C9.28397 15.1003 8.81866 15.2785 8.39967 15.2691C7.94039 15.2589 7.05407 14.9999 6.39538 14.7787C5.58963 14.5072 4.94705 14.3637 5.00345 13.9026C5.03165 13.6626 5.35193 13.417 5.96229 13.166Z" fill="white"/>
        </g>
        <defs>
        <linearGradient id="paint0_linear_48_4762" x1="1300" y1="0" x2="1300" y2="2600" gradientUnits="userSpaceOnUse">
        <stop stop-color="#2AABEE"/>
        <stop offset="1" stop-color="#229ED9"/>
        </linearGradient>
        <clipPath id="clip0_48_4762">
        <rect width="26" height="26" fill="white"/>
        </clipPath>
        </defs>
    </symbol>

    <symbol xmlns="http://www.w3.org/2000/svg" viewBox="0 0 26 26" id='wa'>
        <path d="M1.10419 12.3874C1.10359 14.5704 1.67656 16.7019 2.76605 18.5807L1 25L7.59888 23.2775C9.42404 24.2667 11.469 24.785 13.5471 24.7851H13.5526C20.4127 24.7851 25.9971 19.2278 26 12.3971C26.0013 9.08719 24.7077 5.97474 22.3573 3.6331C20.0074 1.29167 16.882 0.0015106 13.552 0C6.69107 0 1.10713 5.55701 1.1043 12.3874" fill="#60D669"/>
        <path d="M10.3051 7.55746C10.0654 7.0274 9.81328 7.0167 9.58541 7.00741C9.39881 6.99941 9.1855 7.00001 8.9724 7.00001C8.75909 7.00001 8.41251 7.07987 8.11957 7.39823C7.82632 7.71689 7 8.48695 7 10.0531C7 11.6194 8.14618 13.1331 8.30596 13.3457C8.46594 13.5579 10.5187 16.8748 13.7697 18.1508C16.4716 19.2113 17.0215 19.0004 17.6079 18.9472C18.1944 18.8942 19.5003 18.1773 19.7667 17.434C20.0334 16.6907 20.0334 16.0536 19.9534 15.9204C19.8735 15.7878 19.6602 15.7081 19.3403 15.549C19.0204 15.3898 17.4479 14.6196 17.1547 14.5134C16.8615 14.4072 16.6483 14.3542 16.435 14.673C16.2217 14.9912 15.6091 15.7081 15.4225 15.9204C15.236 16.1332 15.0493 16.1597 14.7295 16.0005C14.4094 15.8408 13.3794 15.505 12.1573 14.4206C11.2064 13.5768 10.5645 12.5347 10.3779 12.216C10.1913 11.8977 10.3579 11.7252 10.5183 11.5666C10.662 11.4239 10.8382 11.1948 10.9983 11.009C11.1578 10.8231 11.211 10.6905 11.3177 10.4782C11.4244 10.2657 11.371 10.0797 11.2912 9.92051C11.211 9.76128 10.5895 8.18688 10.3051 7.55746Z" fill="white"/>
        <defs>
        <linearGradient id="paint0_linear_2001_1024" x1="1251" y1="2500" x2="1251" y2="0" gradientUnits="userSpaceOnUse">
        <stop stop-color="#1FAF38"/>
        <stop offset="1" stop-color="#60D669"/>
        </linearGradient>
        </defs>
    </symbol>

    <symbol xmlns="http://www.w3.org/2000/svg" viewBox="0 0 40 40" id='play'>
        <path d="M15 25.3367C15 26.919 16.7505 27.8747 18.0815 27.019L26.383 21.6824C27.6076 20.8951 27.6076 19.1049 26.383 18.3176L18.0815 12.981C16.7505 12.1253 15 13.081 15 14.6633V25.3367ZM20 40C17.2333 40 14.6333 39.475 12.2 38.425C9.76667 37.375 7.65 35.95 5.85 34.15C4.05 32.35 2.625 30.2333 1.575 27.8C0.525 25.3667 0 22.7667 0 20C0 17.2333 0.525 14.6333 1.575 12.2C2.625 9.76667 4.05 7.65 5.85 5.85C7.65 4.05 9.76667 2.625 12.2 1.575C14.6333 0.525 17.2333 0 20 0C22.7667 0 25.3667 0.525 27.8 1.575C30.2333 2.625 32.35 4.05 34.15 5.85C35.95 7.65 37.375 9.76667 38.425 12.2C39.475 14.6333 40 17.2333 40 20C40 22.7667 39.475 25.3667 38.425 27.8C37.375 30.2333 35.95 32.35 34.15 34.15C32.35 35.95 30.2333 37.375 27.8 38.425C25.3667 39.475 22.7667 40 20 40ZM20 36C24.4667 36 28.25 34.45 31.35 31.35C34.45 28.25 36 24.4667 36 20C36 15.5333 34.45 11.75 31.35 8.65C28.25 5.55 24.4667 4 20 4C15.5333 4 11.75 5.55 8.65 8.65C5.55 11.75 4 15.5333 4 20C4 24.4667 5.55 28.25 8.65 31.35C11.75 34.45 15.5333 36 20 36Z" fill="white"/>
    </symbol>
</svg>