<svg>
    <symbol xmlns="http://www.w3.org/2000/svg" viewBox="0 0 19 21" id='profile'>
        <g clip-path="url(#clip0_2015_2932)">
        <path d="M10.0446 11.4999C7.02845 11.4856 4.58774 9.01721 4.59254 5.98329C4.59733 2.94457 7.09558 0.476208 10.1405 0.500173C13.1662 0.524138 15.6021 2.9925 15.5925 6.01684C15.5829 9.07473 13.1086 11.5143 10.0446 11.4999ZM10.1213 1.94285C7.91554 1.92368 6.04065 3.7402 6.01188 5.92577C5.98311 8.1449 7.83402 10.0525 10.0254 10.0669C12.2743 10.086 14.1204 8.28389 14.1492 6.0456C14.1827 3.81209 12.3654 1.96202 10.1213 1.94285Z"/>
        <path d="M9.82375 13.5C13.3737 13.6313 16.3426 15.216 18.3763 18.381C18.6079 18.7443 18.744 19.0901 18.3037 19.3747C17.8543 19.668 17.5501 19.4009 17.3277 19.042C16.2881 17.3654 14.7901 16.2141 12.9379 15.4787C8.90222 13.8765 4.25823 15.3123 1.90672 18.8713C1.81593 19.007 1.72967 19.2039 1.59802 19.2521C1.3438 19.3397 1.00787 19.436 0.803593 19.3353C0.649247 19.2609 0.567542 18.88 0.59932 18.6524C0.631097 18.416 0.817219 18.1927 0.967025 17.987C3.07339 15.1591 5.87431 13.5657 9.82375 13.5Z"/>
        </g>
        <defs>
        <clipPath id="clip0_2015_2932">
        <rect width="18" height="20" fill="white" transform="translate(0.592529 0.5)"/>
        </clipPath>
        </defs>
    </symbol>

    <symbol xmlns="http://www.w3.org/2000/svg" viewBox="0 0 18 25" id='mouse'>
        <g clip-path="url(#clip0_2015_2937)">
        <rect x="0.806452" y="0.806452" width="16.3871" height="23.3871" rx="8.19355" stroke="#303030" stroke-width="1.6129"/>
        <rect x="8" y="5" width="1" height="6" rx="0.5" fill="#303030"/>
        </g>
        <defs>
        <clipPath id="clip0_2015_2937">
        <rect width="18" height="25" fill="white"/>
        </clipPath>
        </defs>
    </symbol>

    <symbol xmlns="http://www.w3.org/2000/svg" viewBox="0 0 26 26" id='vk'>
        <g clip-path="url(#clip0_48_4759)">
        <path d="M13 26C20.1797 26 26 20.1797 26 13C26 5.8203 20.1797 0 13 0C5.8203 0 0 5.8203 0 13C0 20.1797 5.8203 26 13 26Z" fill="#2787F5"/>
        <path d="M14.8419 7H11.1581C7.79609 7 7 7.79609 7 11.1581V14.8419C7 18.2039 7.79609 19 11.1581 19H14.8419C18.2039 19 19 18.2039 19 14.8419V11.1581C19 7.79609 18.1954 7 14.8419 7ZM16.6881 15.5617H15.8149C15.4846 15.5617 15.383 15.2992 14.7903 14.698C14.2736 14.199 14.0451 14.1306 13.9171 14.1306C13.7392 14.1306 13.6883 14.1805 13.6883 14.427V15.2146C13.6883 15.4264 13.6205 15.5534 13.0616 15.5534C12.1385 15.5534 11.1139 14.9946 10.3939 13.9528C9.30994 12.4284 9.01355 11.2851 9.01355 11.0481C9.01355 10.9211 9.06345 10.8026 9.30994 10.8026H10.1831C10.4034 10.8026 10.488 10.9041 10.5726 11.1414C11.0044 12.3863 11.7244 13.4788 12.0195 13.4788C12.1296 13.4788 12.1805 13.4289 12.1805 13.1484V11.8611C12.1465 11.2684 11.8332 11.2175 11.8332 11.0059C11.8332 10.9044 11.9178 10.8026 12.0535 10.8026H13.4256C13.612 10.8026 13.6796 10.9041 13.6796 11.1244V12.8603C13.6796 13.0467 13.7642 13.1143 13.8151 13.1143C13.9251 13.1143 14.0184 13.0464 14.2215 12.8433C14.8482 12.1405 15.297 11.0565 15.297 11.0565C15.3563 10.9296 15.4579 10.8111 15.6782 10.8111H16.5514C16.8138 10.8111 16.8732 10.9465 16.8138 11.1329C16.7038 11.6411 15.6368 13.1484 15.6368 13.1484C15.5437 13.3009 15.5098 13.3687 15.6368 13.5379C15.7298 13.6649 16.0359 13.9273 16.238 14.1646C16.6107 14.5887 16.8986 14.9437 16.9747 15.1892C17.0608 15.4347 16.9336 15.5617 16.6881 15.5617Z" fill="white"/>
        </g>
        <defs>
        <clipPath id="clip0_48_4759">
        <rect width="26" height="26" fill="white"/>
        </clipPath>
        </defs>
    </symbol>

    <symbol xmlns="http://www.w3.org/2000/svg" viewBox="0 0 26 26" id='tg'>
        <g clip-path="url(#clip0_48_4762)">
        <path d="M13 0C9.55297 0 6.24406 1.37048 3.80859 3.80758C1.37061 6.24564 0.000675329 9.55212 0 13C0 16.4464 1.37109 19.7553 3.80859 22.1924C6.24406 24.6295 9.55297 26 13 26C16.447 26 19.7559 24.6295 22.1914 22.1924C24.6289 19.7553 26 16.4464 26 13C26 9.55358 24.6289 6.24467 22.1914 3.80758C19.7559 1.37048 16.447 0 13 0Z" fill="#229ED9"/>
        <path d="M5.96229 13.166C9.72109 11.4727 12.227 10.3562 13.4799 9.81684C17.0614 8.27664 17.8047 8.00914 18.2902 8.00008C18.397 7.99831 18.6347 8.0256 18.7898 8.15529C18.9187 8.26466 18.9549 8.41258 18.9731 8.51643C18.9892 8.62018 19.0113 8.85664 18.9932 9.04122C18.7998 11.1495 17.9598 16.2657 17.5328 18.6272C17.3535 19.6263 16.997 19.9613 16.6525 19.9941C15.9032 20.0653 15.3351 19.4824 14.61 18.9909C13.4759 18.2216 12.8353 17.7428 11.7334 16.9922C10.4604 16.1247 11.2863 15.6478 12.0114 14.8687C12.2008 14.6647 15.5003 11.5616 15.5627 11.2802C15.5708 11.245 15.5789 11.1137 15.5023 11.0445C15.4278 10.9752 15.317 10.9989 15.2364 11.0177C15.1216 11.0443 13.3107 12.2835 9.79764 14.7349C9.28397 15.1003 8.81866 15.2785 8.39967 15.2691C7.94039 15.2589 7.05407 14.9999 6.39538 14.7787C5.58963 14.5072 4.94705 14.3637 5.00345 13.9026C5.03165 13.6626 5.35193 13.417 5.96229 13.166Z" fill="white"/>
        </g>
        <defs>
        <linearGradient id="paint0_linear_48_4762" x1="1300" y1="0" x2="1300" y2="2600" gradientUnits="userSpaceOnUse">
        <stop stop-color="#2AABEE"/>
        <stop offset="1" stop-color="#229ED9"/>
        </linearGradient>
        <clipPath id="clip0_48_4762">
        <rect width="26" height="26" fill="white"/>
        </clipPath>
        </defs>
    </symbol>

    <symbol xmlns="http://www.w3.org/2000/svg" viewBox="0 0 26 26" id='wa'>
        <path d="M1.10419 12.3874C1.10359 14.5704 1.67656 16.7019 2.76605 18.5807L1 25L7.59888 23.2775C9.42404 24.2667 11.469 24.785 13.5471 24.7851H13.5526C20.4127 24.7851 25.9971 19.2278 26 12.3971C26.0013 9.08719 24.7077 5.97474 22.3573 3.6331C20.0074 1.29167 16.882 0.0015106 13.552 0C6.69107 0 1.10713 5.55701 1.1043 12.3874" fill="#60D669"/>
        <path d="M10.3051 7.55746C10.0654 7.0274 9.81328 7.0167 9.58541 7.00741C9.39881 6.99941 9.1855 7.00001 8.9724 7.00001C8.75909 7.00001 8.41251 7.07987 8.11957 7.39823C7.82632 7.71689 7 8.48695 7 10.0531C7 11.6194 8.14618 13.1331 8.30596 13.3457C8.46594 13.5579 10.5187 16.8748 13.7697 18.1508C16.4716 19.2113 17.0215 19.0004 17.6079 18.9472C18.1944 18.8942 19.5003 18.1773 19.7667 17.434C20.0334 16.6907 20.0334 16.0536 19.9534 15.9204C19.8735 15.7878 19.6602 15.7081 19.3403 15.549C19.0204 15.3898 17.4479 14.6196 17.1547 14.5134C16.8615 14.4072 16.6483 14.3542 16.435 14.673C16.2217 14.9912 15.6091 15.7081 15.4225 15.9204C15.236 16.1332 15.0493 16.1597 14.7295 16.0005C14.4094 15.8408 13.3794 15.505 12.1573 14.4206C11.2064 13.5768 10.5645 12.5347 10.3779 12.216C10.1913 11.8977 10.3579 11.7252 10.5183 11.5666C10.662 11.4239 10.8382 11.1948 10.9983 11.009C11.1578 10.8231 11.211 10.6905 11.3177 10.4782C11.4244 10.2657 11.371 10.0797 11.2912 9.92051C11.211 9.76128 10.5895 8.18688 10.3051 7.55746Z" fill="white"/>
        <defs>
        <linearGradient id="paint0_linear_2001_1024" x1="1251" y1="2500" x2="1251" y2="0" gradientUnits="userSpaceOnUse">
        <stop stop-color="#1FAF38"/>
        <stop offset="1" stop-color="#60D669"/>
        </linearGradient>
        </defs>
    </symbol>

    <symbol xmlns="http://www.w3.org/2000/svg" viewBox="0 0 40 40" id='play'>
        <path d="M15 25.3367C15 26.919 16.7505 27.8747 18.0815 27.019L26.383 21.6824C27.6076 20.8951 27.6076 19.1049 26.383 18.3176L18.0815 12.981C16.7505 12.1253 15 13.081 15 14.6633V25.3367ZM20 40C17.2333 40 14.6333 39.475 12.2 38.425C9.76667 37.375 7.65 35.95 5.85 34.15C4.05 32.35 2.625 30.2333 1.575 27.8C0.525 25.3667 0 22.7667 0 20C0 17.2333 0.525 14.6333 1.575 12.2C2.625 9.76667 4.05 7.65 5.85 5.85C7.65 4.05 9.76667 2.625 12.2 1.575C14.6333 0.525 17.2333 0 20 0C22.7667 0 25.3667 0.525 27.8 1.575C30.2333 2.625 32.35 4.05 34.15 5.85C35.95 7.65 37.375 9.76667 38.425 12.2C39.475 14.6333 40 17.2333 40 20C40 22.7667 39.475 25.3667 38.425 27.8C37.375 30.2333 35.95 32.35 34.15 34.15C32.35 35.95 30.2333 37.375 27.8 38.425C25.3667 39.475 22.7667 40 20 40ZM20 36C24.4667 36 28.25 34.45 31.35 31.35C34.45 28.25 36 24.4667 36 20C36 15.5333 34.45 11.75 31.35 8.65C28.25 5.55 24.4667 4 20 4C15.5333 4 11.75 5.55 8.65 8.65C5.55 11.75 4 15.5333 4 20C4 24.4667 5.55 28.25 8.65 31.35C11.75 34.45 15.5333 36 20 36Z" fill="white"/>
    </symbol>

    <symbol xmlns="http://www.w3.org/2000/svg" viewBox="0 0 14 15" id='tel'>
        <g clip-path="url(#clip0_2015_2784)">
        <path d="M13.4914 1.17294L10.6477 0.516702C10.3387 0.445609 10.0216 0.606934 9.89579 0.896772L8.58331 3.95921C8.46847 4.22717 8.54503 4.54162 8.77198 4.72482L10.429 6.08104C9.44462 8.17826 7.72474 9.92275 5.58377 10.9262L4.22754 9.26925C4.04161 9.0423 3.7299 8.96574 3.46193 9.08058L0.399495 10.3931C0.106923 10.5216 -0.0544016 10.8387 0.0166907 11.1477L0.672927 13.9914C0.741285 14.2867 1.00378 14.5 1.31276 14.5C8.31535 14.5 14 8.82629 14 1.81277C14 1.50652 13.7895 1.2413 13.4914 1.17294Z" fill="#7E5DDD"/>
        </g>
        <defs>
        <clipPath id="clip0_2015_2784">
        <rect width="14" height="14" fill="white" transform="translate(0 0.5)"/>
        </clipPath>
        </defs>
    </symbol>

    <symbol fill="none" xmlns="http://www.w3.org/2000/svg" viewBox="0 0 7 13" id='arrow'>
        <path d="M1 12L6 6.5L1 1" stroke="#9E9E9E" stroke-width="2" stroke-linecap="round" stroke-linejoin="round"/>
    </symbol>

    <symbol xmlns="http://www.w3.org/2000/svg" viewBox="0 0 8 6" id='arrowBottom'>
        <path d="M0.270704 1.2493C0.111791 1.04687 0.111792 0.762048 0.270704 0.559612C0.494307 0.274768 0.925693 0.274767 1.14929 0.559611L4 4.19108L6.8507 0.559612C7.07431 0.274768 7.50569 0.274768 7.7293 0.559612C7.88821 0.762048 7.88821 1.04687 7.7293 1.24931L4.78659 4.99797C4.38621 5.50801 3.61379 5.50801 3.21341 4.99797L0.270704 1.2493Z" fill="#303030"/>
    </symbol>

    <symbol xmlns="http://www.w3.org/2000/svg" viewBox="0 0 28 25" id='phone'>
        <path d="M20.9617 24.9994C20.5672 24.9426 20.1713 24.893 19.7791 24.8279C18.2491 24.5738 16.8207 24.0625 15.4314 23.4565C13.1561 22.4635 11.0403 21.2462 9.14274 19.7523C5.3411 16.7594 2.33343 13.2629 0.641799 8.95399C0.224147 7.88885 -0.0267334 6.7947 0.00227015 5.65929C0.0298235 4.56579 0.429348 3.6051 1.29873 2.81979C2.06805 2.12474 2.81489 1.40391 3.64004 0.764956C4.97566 -0.269876 6.35188 -0.257626 7.63311 0.819115C8.92739 1.90746 10.1774 3.04094 11.397 4.1957C12.3977 5.14349 12.3919 6.43042 11.4144 7.39497C10.73 8.07003 9.98675 8.69866 9.25731 9.33762C9.11302 9.46399 9.10069 9.55232 9.18552 9.71028C9.91061 11.063 10.9634 12.2036 12.1011 13.288C13.2591 14.3912 14.5331 15.3777 15.9666 16.1907C16.3429 16.4041 16.7504 16.5737 17.1347 16.7768C17.2884 16.858 17.3812 16.8439 17.5059 16.7304C18.1135 16.1785 18.7291 15.6336 19.3462 15.0901C19.8277 14.6652 20.3649 14.3229 21.0538 14.2216C21.9833 14.0849 22.7715 14.3532 23.4277 14.927C24.6205 15.9696 25.8017 17.0237 26.9814 18.0786C28.2503 19.2127 28.3533 20.4977 27.1801 21.6995C26.3672 22.5319 25.4689 23.3017 24.5661 24.0606C23.9259 24.599 23.1159 24.862 22.24 24.9555C22.1784 24.962 22.1182 24.9852 22.058 25C21.6933 24.9994 21.3271 24.9994 20.9617 24.9994ZM21.5106 23.7414C22.3582 23.7556 23.1377 23.5622 23.7518 23.0341C24.5726 22.3281 25.3702 21.5996 26.1432 20.8523C26.7225 20.2926 26.7146 19.6775 26.1171 19.1321C24.8866 18.0076 23.6351 16.9012 22.3749 15.8039C21.8717 15.3654 21.2184 15.3667 20.6579 15.7568C20.5288 15.8464 20.4106 15.9496 20.2939 16.0527C19.6196 16.6491 18.9503 17.2494 18.2745 17.8439C17.8177 18.2462 17.3399 18.3158 16.7765 18.0605C16.3784 17.88 15.9789 17.6982 15.596 17.4931C13.7869 16.5266 12.2171 15.3042 10.801 13.9192C9.6039 12.7484 8.51772 11.5092 7.78755 10.0494C7.46924 9.4137 7.5461 9.04425 8.10659 8.56327C8.78382 7.9817 9.46178 7.40013 10.1202 6.8018C10.8859 6.10611 10.8801 5.54066 10.131 4.83336C10.1187 4.82175 10.1057 4.81015 10.0926 4.79854C8.968 3.79853 7.84628 2.79464 6.71442 1.80108C6.53532 1.64376 6.32722 1.49288 6.101 1.40004C5.46509 1.13891 4.94448 1.37941 4.49347 1.77077C3.79376 2.37813 3.0868 2.98162 2.42479 3.62122C2.1159 3.91974 1.83892 4.27436 1.66345 4.64702C1.28205 5.45619 1.38357 6.30791 1.57354 7.14223C1.94406 8.76443 2.66842 10.2706 3.56971 11.709C5.16273 14.2506 7.19008 16.4905 9.61478 18.4422C12.0424 20.3958 14.7658 21.9368 17.8112 23.0148C18.9989 23.4345 20.2265 23.7086 21.5106 23.7414Z" fill="white"/>
    </symbol>

    <symbol xmlns="http://www.w3.org/2000/svg" viewBox="0 0 28 20" id='mail'>
        <path d="M0 1.97909C0.118464 1.43418 0.337588 0.943368 0.791586 0.565318C1.28461 0.154026 1.86255 0.000200114 2.50349 0.000200114C8.32535 0.00150373 14.1472 0.000850572 19.9697 0.000850572C21.8282 0.000850572 23.6873 -0.0017554 25.5458 0.00215546C26.5428 0.0041109 27.3172 0.399108 27.7493 1.26732C27.9041 1.57758 27.9869 1.94976 27.9883 2.29392C28.0027 7.42888 28.002 12.5638 27.9958 17.6995C27.9945 19.0578 26.9735 19.9912 25.5184 19.9919C18.8399 19.9932 12.1614 19.9925 5.4829 19.9925C4.51738 19.9925 3.55049 19.9677 2.58566 19.9984C1.21203 20.0421 0.190364 19.1967 0.0308141 18.0847C0.0273903 18.0606 0.0109562 18.0377 0 18.0143C0 12.6688 0 7.32394 0 1.97909ZM25.9176 1.19497C25.5081 1.06135 2.36791 1.08286 2.14742 1.19562C2.17275 1.22169 2.19603 1.24776 2.22274 1.27123C5.85061 4.42208 9.4778 7.57488 13.1091 10.7225C13.7192 11.2511 14.3013 11.2348 14.9278 10.6912C18.5105 7.58271 22.0911 4.47162 25.6731 1.36314C25.7389 1.30578 25.8176 1.26341 25.9176 1.19497ZM25.9498 18.8512C22.8464 16.0673 19.8184 13.3186 16.6411 10.714C16.3179 10.9917 16.0159 11.255 15.7098 11.5144C15.3092 11.8547 14.8669 12.1141 14.3211 12.1858C13.5186 12.2914 12.8612 12.0085 12.2812 11.5092C11.9731 11.2439 11.6643 10.9786 11.3123 10.6755C8.22195 13.3871 5.15079 16.0823 2.07962 18.7775C2.09537 18.8023 2.11044 18.8264 2.12619 18.8512C10.0414 18.8512 17.9572 18.8512 25.9498 18.8512ZM1.1908 18.0495C4.3051 15.3145 7.36736 12.6258 10.4454 9.9227C7.39133 7.26853 4.32428 4.60263 1.25722 1.93738C1.23531 1.95042 1.2134 1.96345 1.19149 1.97649C1.1908 7.31677 1.1908 12.6564 1.1908 18.0495ZM17.5525 9.92336C20.6429 12.6368 23.7037 15.3249 26.7955 18.0397C26.7955 12.6531 26.7955 7.31025 26.7955 1.8898C23.6688 4.60719 20.6045 7.27114 17.5525 9.92336Z" fill="white"/>
    </symbol>

    <symbol xmlns="http://www.w3.org/2000/svg" viewBox="0 0 30 30" id='cloak'>
        <path d="M15.0772 0.00221842C22.8876 0.034909 30.1738 6.09574 29.9968 15.4387C29.8396 24.0037 22.8089 30.0841 15.051 29.9991C6.21187 29.901 -0.0456159 23.2714 0.00025049 14.5757C0.0395645 6.72995 6.82779 -0.14162 15.0772 0.00221842ZM1.21244 15.0399C1.20588 22.5391 7.38474 28.7307 14.8937 28.7373C22.5599 28.7503 28.7257 22.598 28.7322 14.9353C28.7388 7.46221 22.5337 1.2837 15.0117 1.27716C7.39129 1.27062 1.21899 7.42952 1.21244 15.0399Z" fill="white"/>
        <path d="M13.0009 14.5737C13.0261 13.5919 13.8084 12.7949 14.8681 12.8332C15.5873 12.8587 16.0099 12.5654 16.4578 12.0554C18.079 10.2129 19.7507 8.4151 21.4034 6.60451C21.5107 6.48975 21.6053 6.32399 21.7378 6.27936C22.091 6.15823 22.6209 5.89684 22.8039 6.04348C23.2391 6.39412 22.8543 6.79577 22.5705 7.10817C20.6906 9.18015 18.8108 11.2457 16.9246 13.3177C16.8552 13.3942 16.7101 13.4707 16.7164 13.5409C16.7921 14.5928 16.0856 15.632 16.6092 16.6712C17.0697 17.5892 17.6248 18.4626 18.1295 19.3616C18.2619 19.5911 18.4449 19.8333 18.4575 20.0756C18.4701 20.3816 18.3313 20.6876 18.2556 21C17.9718 20.8725 17.568 20.8215 17.4293 20.5984C16.8615 19.6803 16.3064 18.7368 15.8837 17.7422C15.562 16.9963 15.1457 16.5691 14.3382 16.397C13.4866 16.2057 12.9757 15.4152 13.0009 14.5737Z" fill="white"/>
    </symbol>

    <symbol xmlns="http://www.w3.org/2000/svg" viewBox="0 0 66 66" id='card1'>
        <path d="M0 35.4709C0.811638 34.8278 1.59028 34.1383 2.44151 33.5482C4.04499 32.4343 5.71446 31.4199 7.30474 30.2862C7.95801 29.8155 8.57829 29.2187 9.0336 28.5557C10.4325 26.5137 11.8248 24.4517 13.0786 22.3168C15.1242 18.8493 18.12 17.1852 22.0792 17.2647C22.9832 17.2846 23.3395 16.9664 23.6431 16.1509C25.4775 11.2247 28.8956 8.10195 34.1086 7.1207C35.7121 6.82234 36.8998 5.99359 37.9028 4.72061C39.183 3.10287 40.5687 1.57133 41.9082 0C42.1854 0 42.4559 0 42.7331 0C42.9706 0.179012 43.1818 0.39779 43.4457 0.523762C50.3413 3.78576 57.171 7.22015 64.06 10.502C64.7331 10.8203 65.4457 11.2446 66 11.6026C66 11.7154 66 11.8214 66 11.9341C64.0534 15.2426 62.1068 18.5509 60.1338 21.9058C62.0672 23.1191 63.3275 24.77 63.3473 27.0971C63.3671 29.411 62.0936 31.0619 60.2855 32.3283C61.5921 33.8134 62.3114 35.3913 61.955 37.3207C61.6119 39.1904 60.5033 40.5496 58.9724 41.5772C61.6515 44.9519 61.3083 47.3852 57.6791 50.9256C57.844 51.1312 58.0222 51.3301 58.1806 51.5489C59.6323 53.6175 59.817 55.7855 58.5765 57.9999C57.4151 60.0685 55.5213 60.937 53.225 60.9835C51.252 61.0232 49.2724 60.9901 47.2664 60.9901C46.6527 62.9526 45.4583 64.2919 43.4655 64.809C41.4199 65.3394 39.7702 64.5438 38.2657 63.1648C37.1506 64.2786 35.8638 64.9615 34.3 64.9681C32.7295 64.9748 31.4757 64.2189 30.3473 63.1581C29.2124 64.2985 27.9256 64.9681 26.3551 64.9681C24.7912 64.9615 23.5375 64.2123 22.4619 63.1913C22.3563 63.251 22.3299 63.2642 22.3101 63.2775C18.9976 66.1416 15.4409 65.3726 13.6065 61.4277C13.5075 61.2155 13.1314 61.0166 12.874 61.01C11.0594 60.9768 9.24476 60.9901 7.43012 60.9901C5.96521 60.9901 5.58908 60.7182 5.26574 59.2795C4.43431 55.5932 3.58308 51.9201 2.83083 48.2206C2.04559 44.3685 0.805042 40.596 0.580687 36.6378M22.066 19.9035C19.2286 19.8107 17.1566 20.7853 15.6917 23.0793C14.108 25.5656 12.4715 28.0187 10.7954 30.4453C10.3533 31.0884 9.73965 31.652 9.10617 32.1028C7.22555 33.4421 5.29214 34.7151 3.37193 35.9947C2.92322 36.293 2.79124 36.5848 2.92321 37.1549C3.53029 39.7871 4.06479 42.4325 4.63887 45.0713C5.55609 49.2681 6.47991 53.4716 7.43012 57.6618C7.48951 57.9137 7.77325 58.3049 7.96461 58.3115C9.68687 58.3646 11.4091 58.3381 13.1776 58.3381C13.171 55.7987 13.6395 53.5578 16.0744 52.3246C18.4829 51.1046 20.5879 51.7809 22.4487 53.5114C25.1476 51.045 27.7936 51.1643 30.4001 53.518C31.5219 52.3776 32.802 51.7212 34.3329 51.7212C35.9034 51.7146 37.1638 52.4704 38.279 53.518C40.186 51.7411 42.2579 51.1312 44.6401 52.3378C47.0882 53.5777 47.4775 55.8584 47.5369 58.3447C47.8338 58.3447 48.078 58.3447 48.3155 58.3447C50.183 58.3447 52.057 58.411 53.9244 58.3049C55.1254 58.2386 56.0096 57.5093 56.4781 56.3557C57.4349 53.9821 55.937 51.7345 53.3965 51.708C53.1194 51.708 52.8422 51.7014 52.5717 51.6682C51.6281 51.5489 51.1398 51.098 51.1332 50.3753C51.1266 49.6924 51.6941 49.1421 52.5783 49.0825C53.3701 49.0294 54.1686 49.0758 54.967 49.056C56.6299 49.0228 57.844 47.8294 58.0354 46.0791C58.2202 44.3884 57.2964 42.9496 55.7193 42.5585C55.165 42.4192 54.5777 42.4126 54.0102 42.3264C53.3305 42.227 52.862 41.8557 52.8488 41.1463C52.8356 40.4567 53.2184 39.9794 53.9244 39.8998C54.7163 39.8136 55.5081 39.807 56.3065 39.7738C57.778 39.7208 58.8932 38.7992 59.2496 37.3406C59.6455 35.7295 59.1044 34.2046 57.7978 33.5615C57.2502 33.2896 56.5969 33.2101 55.9766 33.1438C54.7756 33.0112 54.1686 32.62 54.1554 31.8575C54.1422 31.0089 54.802 30.5381 56.069 30.4984C56.4781 30.4851 56.8938 30.5116 57.3029 30.4984C57.6329 30.4851 57.9694 30.4851 58.2861 30.4122C59.9094 30.021 60.8794 28.5425 60.7013 26.7722C60.5231 25.0551 59.2298 23.8683 57.4745 23.8683C50.4667 23.8617 43.4523 23.8683 36.4445 23.8683C34.6101 23.8683 34.6431 23.8815 33.9502 25.6319C32.7757 28.6287 31.6473 31.652 30.3341 34.5957C28.8296 37.9638 25.2004 39.2832 21.8218 37.9174C18.8854 36.7306 16.886 33.1504 18.2717 29.6298C19.2088 27.2496 20.126 24.8562 21.0498 22.4693C21.3665 21.6538 21.6899 20.845 22.066 19.9035ZM62.7733 12.4778C62.4103 12.2988 62.021 12.1065 61.6317 11.9209C58.8734 10.628 56.1086 9.34178 53.3569 8.03565C50.0378 6.45769 46.7187 4.86646 43.4127 3.25535C42.8188 2.96363 42.4625 2.96364 42.0468 3.56035C41.3143 4.62779 40.4763 5.61566 39.7043 6.65658C38.4769 8.30748 36.847 9.27547 34.8278 9.60034C30.7499 10.2567 27.919 12.5109 26.3485 16.3498C24.6197 20.5797 22.8974 24.8164 21.195 29.053C20.9376 29.6895 20.7199 30.3459 20.5615 31.0155C20.0864 33.0178 21.2544 35.0665 23.2076 35.63C25.1278 36.187 27.2393 35.6566 28.2621 33.0178C29.5423 29.7094 30.9082 26.4275 32.2411 23.139C32.9934 21.2958 33.1122 21.2229 35.0984 21.2229C42.2975 21.2229 49.4967 21.2295 56.6959 21.2096C57.0258 21.2096 57.5075 21.0637 57.6593 20.8251C59.3815 18.0669 61.0576 15.2889 62.7733 12.4778ZM23.7553 58.2916C23.7553 58.8419 23.7355 59.3989 23.7619 59.9492C23.8212 61.2022 24.7648 62.2034 25.979 62.3227C27.3185 62.4553 28.6779 61.7128 28.8296 60.4995C29.0078 59.0674 29.021 57.5822 28.8428 56.1568C28.6911 54.897 27.3449 54.2009 25.913 54.3799C24.7318 54.5258 23.8014 55.5203 23.7553 56.727C23.7355 57.2375 23.7553 57.7679 23.7553 58.2916ZM31.6737 58.2651C31.6737 58.7889 31.6605 59.3127 31.6737 59.8365C31.7133 61.1625 32.6239 62.1835 33.871 62.3161C35.2369 62.462 36.5897 61.6995 36.7547 60.4332C36.9328 59.0541 36.946 57.6286 36.7876 56.2496C36.6359 54.9236 35.3293 54.2009 33.8512 54.3666C32.6305 54.5059 31.7067 55.5203 31.6737 56.7733C31.6605 57.2772 31.6737 57.7745 31.6737 58.2651ZM39.5921 58.285C39.5921 58.7823 39.5855 59.2795 39.5921 59.7768C39.6185 61.1227 40.4895 62.157 41.7235 62.3227C43.1026 62.5018 44.5081 61.7393 44.6863 60.4265C44.871 59.0276 44.8644 57.569 44.6797 56.17C44.5081 54.8904 43.1818 54.2009 41.7565 54.3799C40.5291 54.5324 39.6251 55.5402 39.5921 56.8065C39.5789 57.2905 39.5921 57.7878 39.5921 58.285ZM15.8368 58.1856C15.8434 58.7359 15.8104 59.2862 15.85 59.8365C15.9358 61.2354 16.8926 62.21 18.2453 62.3161C19.5783 62.4156 20.8122 61.6001 20.9772 60.2475C21.1356 58.9547 21.129 57.6088 20.9706 56.3093C20.8056 54.9501 19.5783 54.2274 18.087 54.3666C16.7804 54.4926 15.8566 55.5136 15.8368 56.8662C15.8302 57.3038 15.8368 57.748 15.8368 58.1856Z" fill="#DD017F"/>
    </symbol>

    <symbol xmlns="http://www.w3.org/2000/svg" viewBox="0 0 60 56" id='card2'>
        <g clip-path="url(#clip0_51_6928)">
        <path d="M2.42382 56C2.42382 42.2961 2.42382 28.6422 2.42382 14.9321C1.59709 14.9321 0.820459 14.9321 0 14.9321C0 9.93185 0 4.99399 0 0C19.9979 0 39.9708 0 60 0C60 4.93164 60 9.87575 60 14.9009C59.2109 14.9009 58.4154 14.9009 57.5699 14.9009C57.5699 28.6422 57.5699 42.2899 57.5699 56C39.1879 56 20.8622 56 2.42382 56ZM54.9896 53.5311C54.9896 40.6252 54.9896 27.788 54.9896 14.9695C38.2798 14.9695 21.6201 14.9695 4.9854 14.9695C4.9854 27.8504 4.9854 40.6751 4.9854 53.5311C21.6639 53.5311 38.2985 53.5311 54.9896 53.5311ZM57.5198 2.49388C39.1315 2.49388 20.8058 2.49388 2.47391 2.49388C2.47391 5.81073 2.47391 9.07148 2.47391 12.3696C20.8372 12.3696 39.1566 12.3696 57.5198 12.3696C57.5198 9.06524 57.5198 5.8045 57.5198 2.49388Z" fill="#DD017F"/>
        <path d="M30.0769 20.0042C33.1001 20.0042 36.1233 19.9914 39.1465 20.0106C41.4696 20.0234 43.2517 21.2804 43.8182 23.2684C44.652 26.18 42.5262 28.912 39.3184 28.9761C37.0653 29.021 34.8122 28.9889 32.5591 28.9889C28.6894 28.9889 24.8197 28.9953 20.9436 28.9889C18.6842 28.9825 16.9211 27.8281 16.2529 25.9491C15.4255 23.6276 16.6984 21.0239 19.0533 20.3312C19.7534 20.126 20.5108 20.0362 21.2428 20.0298C24.1896 19.9849 27.1301 20.0042 30.0769 20.0042ZM30.0069 26.4237C30.0069 26.4173 30.0069 26.4173 30.0069 26.4237C33.1574 26.4173 36.3079 26.4237 39.4584 26.4173C40.4386 26.4173 41.0368 26.0068 41.3105 25.2116C41.7942 23.7879 40.935 22.5822 39.3948 22.5758C35.2895 22.563 31.1844 22.5694 27.0792 22.5694C24.9088 22.5694 22.7384 22.563 20.5617 22.5758C19.4097 22.5822 18.6969 23.1851 18.5632 24.2176C18.3914 25.513 19.1742 26.4109 20.549 26.4173C23.6995 26.4365 26.85 26.4237 30.0069 26.4237Z" fill="#DD017F"/>
        </g>
        <defs>
        <clipPath id="clip0_51_6928">
        <rect width="60" height="56" fill="white"/>
        </clipPath>
        </defs>
    </symbol>

    <symbol xmlns="http://www.w3.org/2000/svg" viewBox="0 0 72 53" id='card3'>
        <g clip-path="url(#clip0_51_6936)">
        <rect width="72" height="53" fill="white"/>
        <path d="M0.00719605 3.58323C0.244796 3.03885 0.424799 2.45865 0.741599 1.96441C1.6632 0.503191 3.1032 0.016109 4.7448 0.00894614C7.8624 -0.00537957 10.98 0.00179815 14.0976 0.00179815C22.644 0.00179815 31.1832 0.00179815 39.7296 0.00179815C42.8544 0.00179815 44.6328 1.76386 44.6472 4.8797C44.6544 6.66325 44.6472 8.44679 44.6472 10.0799C48.8304 10.0584 52.92 10.0584 57.0168 10.0155C59.04 9.99397 60.8472 10.5598 62.1432 12.1357C64.3464 14.8074 66.456 17.5508 68.58 20.287C69.9984 22.1135 71.2584 24.026 71.6904 26.3539C71.7048 26.4184 71.892 26.4542 72 26.4972C72 31.6903 72 36.8833 72 42.0764C71.0928 44.6694 69.2928 45.9659 66.4992 45.8656C66.3048 45.8584 65.9736 46.2094 65.916 46.4386C64.8864 50.328 61.5672 52.9711 57.6216 52.9998C53.7336 53.0284 50.3568 50.3638 49.3488 46.4314C49.2192 45.9372 49.0104 45.8297 48.5568 45.8297C41.6592 45.8369 34.7544 45.8369 27.8568 45.8297C27.3672 45.8297 27.1296 45.9372 27 46.4744C26.0496 50.3352 22.6584 52.9854 18.6984 52.9998C14.868 53.0141 11.4264 50.3065 10.476 46.4816C10.3464 45.9515 10.1232 45.8226 9.62639 45.8297C8.00639 45.8512 6.3864 45.8584 4.7664 45.8297C2.556 45.7939 1.02959 44.6909 0.273593 42.6351C0.201593 42.4417 0.0936 42.2626 0 42.0764C0.0072 29.2477 0.00719605 16.4191 0.00719605 3.58323ZM41.7672 42.9789C41.7672 42.585 41.7672 42.3128 41.7672 42.0478C41.7672 29.7205 41.7672 17.4004 41.7672 5.07309C41.7672 3.36833 41.2416 2.85977 39.492 2.85977C27.8568 2.85977 16.2144 2.85977 4.5792 2.85977C3.024 2.85977 2.8872 2.99586 2.8872 4.53588C2.8872 11.756 2.8872 18.9762 2.8872 26.1964C2.8872 31.153 2.8872 36.1026 2.8872 41.0593C2.8872 42.5277 3.34079 42.9646 4.83119 42.9718C6.39359 42.9718 7.94881 42.9575 9.51121 42.9789C10.0512 42.9861 10.332 42.9001 10.4976 42.2698C11.4984 38.4377 14.8464 35.8232 18.6696 35.8089C22.6008 35.7946 25.92 38.3302 26.9496 42.234C27.108 42.8285 27.3312 42.9861 27.9072 42.9861C30.636 42.9646 33.3648 42.9789 36.0936 42.9789C37.9512 42.9789 39.8088 42.9789 41.7672 42.9789ZM51.8472 12.8949C50.0328 12.8949 48.3336 12.8949 46.6272 12.8949C45.1008 12.8949 44.6472 13.3462 44.6472 14.8647C44.6472 23.9329 44.6472 33.0082 44.6472 42.0764C44.6472 42.3629 44.676 42.6494 44.6904 42.9718C45.972 42.9718 47.1744 42.9431 48.3696 42.9861C48.9816 43.0076 49.2264 42.85 49.392 42.2125C50.3928 38.4377 53.7408 35.8376 57.528 35.8161C61.4664 35.7946 64.764 38.3302 65.8512 42.2125C65.9232 42.4775 66.0312 42.85 66.2328 42.9431C67.716 43.6164 69.1272 42.6781 69.1272 41.045C69.1272 38.058 69.1272 35.0783 69.1272 32.0914C69.1272 31.4467 69.1272 30.7949 69.1272 30.0858C68.7024 30.0858 68.3784 30.0858 68.0544 30.0858C64.332 30.0858 60.6168 30.0858 56.8944 30.0858C53.7192 30.0858 51.8472 28.2234 51.8472 25.1004C51.8472 21.0749 51.8472 17.0494 51.8472 12.8949ZM54.7272 12.9021C54.7272 13.2531 54.7272 13.5109 54.7272 13.776C54.7272 17.5938 54.7272 21.4187 54.7272 25.2365C54.7272 26.7551 55.1952 27.2278 56.7072 27.2278C60.516 27.2278 64.3248 27.2278 68.1336 27.2278C68.4216 27.2278 68.7024 27.2278 69.0768 27.2278C68.7456 25.523 68.0832 24.1406 67.1544 22.8871C65.376 20.4876 63.5832 18.0952 61.7472 15.7386C61.2 15.0366 60.5592 14.3705 59.8392 13.8619C59.2056 13.4178 58.4136 13.0812 57.6504 12.9451C56.7504 12.7803 55.8 12.9021 54.7272 12.9021ZM18.7632 38.6955C15.5088 38.7242 12.9816 41.2312 12.9816 44.4187C12.9888 47.6348 15.5952 50.1633 18.8712 50.1203C21.9672 50.0773 24.4872 47.5059 24.4656 44.4043C24.444 41.2527 21.8592 38.6669 18.7632 38.6955ZM63.3456 44.4258C63.3384 41.2742 60.7608 38.6812 57.6576 38.6955C54.4104 38.7099 51.8688 41.2097 51.8616 44.4043C51.8544 47.6205 54.4536 50.1489 57.7296 50.1203C60.8256 50.0916 63.3528 47.5202 63.3456 44.4258Z" fill="#DD017F"/>
        <path d="M36 20.442C36 28.446 29.4822 35 21.5145 35C13.496 35 7 28.4532 7 20.3767C7 12.5975 13.6192 5.99276 21.3985 6.00001C29.4387 6.00726 36 12.496 36 20.442ZM21.2897 32.0927C27.9235 32.0492 33.1435 26.8945 33.0927 20.442C33.042 13.9387 27.9525 8.92175 21.5145 8.89275C14.656 8.86375 9.68249 14.6202 9.87099 20.848C10.0522 26.9815 15.1635 32.1362 21.2897 32.0927Z" fill="#DD017F"/>
        <path d="M19.9512 12C21.0134 12 21.9476 12 22.9646 12C22.9646 14.5245 22.8817 17.0129 22.9947 19.4941C23.055 20.7924 22.603 21.6074 21.5031 22.3287C19.7779 23.4539 18.1432 24.7233 16.3804 26C15.8832 25.3725 15.3935 24.8315 15.0319 24.2185C14.9264 24.0381 15.0997 23.5404 15.3031 23.389C16.6289 22.3792 18.0226 21.4632 19.3335 20.4389C19.6574 20.1865 19.9211 19.6672 19.9286 19.2633C19.9813 16.8614 19.9512 14.4668 19.9512 12Z" fill="#DD017F"/>
        </g>
        <defs>
        <clipPath id="clip0_51_6936">
        <rect width="72" height="53" fill="white"/>
        </clipPath>
        </defs>
    </symbol>

    <symbol xmlns="http://www.w3.org/2000/svg" viewBox="0 0 60 60" id='card4'>
        <g clip-path="url(#clip0_51_6945)">
        <path d="M59.9929 35.0491C59.9929 42.5758 59.9929 50.1025 59.9929 57.6363C59.9929 59.443 59.4411 60 57.6641 60C44.888 60 32.1048 60 19.3288 60C17.5517 60 17 59.4358 17 57.6292C17 42.5401 17 27.4581 17 12.369C17 10.5695 17.5446 10.0054 19.3359 10.0054C32.0833 9.99821 44.8307 9.99821 57.5852 10.0054C59.5199 10.0054 60 10.5124 60 12.4619C59.9928 19.9886 59.9929 27.5224 59.9929 35.0491ZM19.8948 57.0793C32.3341 57.0793 44.7089 57.0793 57.0478 57.0793C57.0478 42.3044 57.0478 27.6009 57.0478 12.9118C44.6301 12.9118 32.2768 12.9118 19.8948 12.9118C19.8948 27.6438 19.8948 42.3258 19.8948 57.0793Z" fill="#DD017F"/>
        <path d="M2.93045 46.14C6.7422 46.14 10.4895 46.14 14.2869 46.14C14.2869 47.0981 14.2869 47.9842 14.2869 49C14.0075 49 13.7209 49 13.4343 49C9.72998 49 6.03287 49 2.3286 49C0.580349 49 0 48.4237 0 46.6947C0 31.8976 0 17.1006 0 2.29628C0 0.603332 0.573195 0.00540302 2.24979 0.00540302C15.0607 -0.00180101 27.8645 -0.00180101 40.6754 0.00540302C42.4881 0.00540302 42.9897 0.54571 42.9968 2.39715C43.004 3.95322 42.9968 5.51648 42.9968 7.13739C42.051 7.13739 41.1483 7.13739 40.138 7.13739C40.138 5.74701 40.138 4.35663 40.138 2.92303C27.6925 2.92303 15.3401 2.92303 2.93045 2.92303C2.93045 17.2951 2.93045 31.6527 2.93045 46.14Z" fill="#DD017F"/>
        <path d="M15 10.0237C15 10.9766 15 11.9374 15 12.9763C13.446 12.9763 11.8842 13.0466 10.3301 12.9451C9.59565 12.8982 9.01578 12.3983 9.00031 11.5234C8.98485 10.6095 9.54152 10.0862 10.3533 10.0393C11.8919 9.96118 13.4228 10.0237 15 10.0237Z" fill="#DD017F"/>
        <path d="M15 19.0216C15 20.0072 15 20.9543 15 21.9784C13.464 21.9784 11.9665 22.04 10.4691 21.9553C9.70493 21.9091 9.04884 21.4779 9.00253 20.5693C8.95622 19.6145 9.55057 19.0909 10.3919 19.0447C11.8971 18.96 13.4022 19.0216 15 19.0216Z" fill="#DD017F"/>
        <path d="M15 27.0215C15 28.0174 15 28.9596 15 29.9785C13.485 29.9785 12.0163 30.0398 10.5477 29.9555C9.73606 29.9095 9.04039 29.5035 9.00174 28.546C8.96309 27.5961 9.57375 27.0905 10.4163 27.0445C11.9159 26.9602 13.4231 27.0215 15 27.0215Z" fill="#DD017F"/>
        <path d="M15 36.0263C15 37.0281 15 37.9616 15 38.9787C13.4933 38.9787 12.0174 39.0394 10.5571 38.9559C9.74573 38.9104 9.06576 38.5081 9.00394 37.567C8.94986 36.7397 9.4521 36.1325 10.503 36.0566C11.9711 35.9504 13.4469 36.0263 15 36.0263Z" fill="#DD017F"/>
        <path d="M39.4319 23.9963C35.6837 23.9963 31.9356 24.0112 28.1875 23.9813C27.6623 23.9813 27.0724 23.9065 26.6408 23.6372C26.3026 23.4277 25.9861 22.8516 26.0005 22.4551C26.0149 22.0511 26.3746 21.5349 26.7199 21.318C27.1299 21.0711 27.6911 21.0112 28.1947 21.0112C35.7485 20.9963 43.3023 20.9963 50.8561 21.0112C51.2949 21.0112 51.8273 21.0187 52.1582 21.2581C52.5467 21.5424 53.0071 22.0811 52.9999 22.5C52.9927 22.9339 52.5467 23.4726 52.151 23.7569C51.8201 23.9963 51.2877 23.9813 50.8489 23.9813C47.0504 24.0037 43.2375 23.9963 39.4319 23.9963Z" fill="#DD017F"/>
        <path d="M39.4283 41.9963C35.6812 41.9963 31.934 42.0112 28.1869 41.9813C27.6619 41.9813 27.0721 41.9065 26.6406 41.6372C26.3026 41.4277 25.9861 40.8516 26.0005 40.4551C26.0149 40.0511 26.3745 39.5349 26.7269 39.318C27.1368 39.0711 27.6978 39.0112 28.2013 39.0112C35.7531 38.9963 43.3049 38.9963 50.8566 39.0112C51.2954 39.0112 51.8276 39.0187 52.1584 39.2581C52.5468 39.5424 53.0071 40.0811 52.9999 40.5C52.9927 40.9339 52.5468 41.4726 52.1512 41.7569C51.8204 41.9963 51.2882 41.9813 50.8495 41.9813C47.0448 42.0037 43.2329 41.9963 39.4283 41.9963Z" fill="#DD017F"/>
        <path d="M36.0757 32.9951C33.4389 32.9951 30.8094 33.0101 28.1727 32.9876C27.7005 32.9801 27.1412 32.9726 26.7708 32.7252C26.4003 32.4778 25.979 31.923 26.0008 31.5257C26.0226 31.0833 26.4439 30.551 26.8361 30.2661C27.1703 30.0262 27.7005 30.0112 28.1509 30.0112C33.4172 29.9963 38.6834 29.9963 43.9497 30.0112C44.3637 30.0112 44.8577 30.0337 45.17 30.2661C45.5477 30.536 46.0344 31.0683 45.9981 31.4357C45.9545 31.923 45.5114 32.4553 45.1046 32.7777C44.8141 33.0101 44.2983 32.9876 43.8843 32.9876C41.2766 33.0026 38.6762 32.9951 36.0757 32.9951Z" fill="#DD017F"/>
        <path d="M35.964 49.9963C33.3643 49.9963 30.7574 50.0112 28.1577 49.9813C27.6566 49.9738 27.0829 49.9214 26.6836 49.6596C26.335 49.4352 25.9792 48.8816 26.001 48.5C26.03 48.0736 26.4004 47.5349 26.778 47.2955C27.1846 47.0412 27.7655 47.0112 28.2666 47.0112C33.4442 46.9963 38.6145 46.9963 43.7921 47.0112C44.2641 47.0112 44.816 47.0337 45.1936 47.2731C45.5712 47.52 46.0142 48.0586 45.9997 48.4551C45.9779 48.9115 45.5639 49.4501 45.1718 49.7419C44.845 49.9813 44.3077 49.9738 43.8647 49.9738C41.2287 50.0112 38.5927 49.9963 35.964 49.9963Z" fill="#DD017F"/>
        </g>
        <defs>
        <clipPath id="clip0_51_6945">
        <rect width="60" height="60" fill="white"/>
        </clipPath>
        </defs>
    </symbol>

    <symbol xmlns="http://www.w3.org/2000/svg" viewBox="0 0 60 64" id='card5'>
        <g clip-path="url(#clip0_51_6886)">
        <path d="M60 64C39.804 64 19.9443 64 0.0397177 64C-0.281685 59.129 1.34775 55.0848 4.92055 51.83C7.59642 49.3945 10.7731 47.7708 14.0768 46.3483C15.8183 45.596 17.53 44.7842 19.2491 43.9947C20.46 43.4361 21.0953 42.6168 20.9608 41.1645C20.8188 39.5334 20.9533 37.8799 20.9085 36.2339C20.901 35.8913 20.6992 35.4593 20.4376 35.2433C17.2908 32.5918 15.3101 29.2849 15.1457 25.1662C14.9812 21.0549 14.757 16.8915 15.183 12.81C16.0202 4.77359 23.6217 -0.90176 31.6418 0.118615C39.191 1.07941 44.6026 6.92607 44.7969 14.523C44.8941 18.2694 44.8567 22.038 44.61 25.7769C44.3559 29.6275 42.3303 32.6663 39.4377 35.139C39.0117 35.504 38.8472 35.8541 38.8547 36.3978C38.8846 38.2598 38.8921 40.1218 38.8547 41.9837C38.8398 42.7285 39.0864 43.2499 39.7218 43.5925C40.5664 44.0468 41.4259 44.4863 42.293 44.9034C45.3949 46.393 48.5939 47.7187 51.5912 49.3945C55.1341 51.3682 57.8847 54.2208 59.0732 58.198C59.6188 60.0079 59.6935 61.989 60 64ZM56.5916 61.0134C56.188 57.7437 54.6931 55.2188 52.1742 53.2302C49.7301 51.3012 46.9271 50.0648 44.1242 48.7838C42.0089 47.8155 39.9161 46.8026 37.8905 45.6631C36.4928 44.8736 35.9023 43.4733 35.8873 41.8869C35.8649 39.5631 35.8574 37.2319 35.9023 34.9082C35.9098 34.5804 36.1415 34.141 36.4031 33.9474C39.9385 31.415 41.7623 27.9815 41.8445 23.6692C41.9043 20.5708 41.8968 17.465 41.8445 14.3592C41.8071 12.013 41.1419 9.82333 39.7367 7.92409C36.7619 3.90218 32.7107 2.52432 27.8523 3.14995C22.5304 3.83517 17.9561 8.98917 17.9411 14.3368C17.9336 17.3458 17.9336 20.3548 17.9411 23.3638C17.9561 27.7953 19.7425 31.3182 23.3452 33.9399C23.6367 34.1485 23.8758 34.6102 23.8908 34.9677C23.9581 36.2339 23.9132 37.5075 23.9132 38.7811C23.9132 39.4663 23.846 40.1516 23.9282 40.8293C24.2571 43.6894 22.8219 45.5141 20.4152 46.6909C18.3522 47.6964 16.2444 48.6125 14.1291 49.5137C11.244 50.7426 8.53822 52.2322 6.3183 54.4815C4.53937 56.2839 3.50789 58.4363 3.23134 61.0134C21.0355 61.0134 38.7725 61.0134 56.5916 61.0134Z" fill="#DD017F"/>
        </g>
        <defs>
        <clipPath id="clip0_51_6886">
        <rect width="60" height="64" fill="white"/>
        </clipPath>
        </defs>
    </symbol>

    <symbol xmlns="http://www.w3.org/2000/svg" viewBox="0 0 66 66" id='card6'>
        <g clip-path="url(#clip0_51_6893)">
        <rect width="66" height="66" fill="white"/>
        <path d="M64 33.4895C63.6656 50.8877 49.8762 64 33.6661 64C16.8018 64 3.31041 50.8076 3.00511 33.9552C2.69254 16.6953 16.7582 3.12456 33.1863 3.00086C49.8616 2.87716 63.6584 16.1714 64 33.4895ZM5.8546 32.791C5.25854 47.7297 17.3979 60.8202 32.8374 61.1622C46.7723 61.4678 60.3 50.5311 61.0924 35.0321C61.9138 18.9874 49.3092 6.1516 34.1386 5.80232C19.0335 5.45305 6.07994 17.4229 5.8546 32.791Z" fill="#DD017F"/>
        <path d="M66 46.9636C64.0558 51.3418 61.4782 55.145 58.1789 58.4544C55.0711 61.5721 51.5067 64.0265 47.5078 65.8618C46.9407 66.1198 46.7272 66.0313 46.4915 65.4712C45.7403 63.6949 45.7109 63.7022 47.3973 62.8546C54.4746 59.2946 59.6592 53.8846 63.0542 46.7425C63.393 46.035 63.7097 45.7844 64.4314 46.2045C64.9101 46.4919 65.4477 46.6983 66 46.9636Z" fill="#DD017F"/>
        <path d="M18.8988 0C19.2634 0.861429 19.6281 1.69365 20 2.56968C16.959 3.87642 14.268 5.49708 11.8322 7.52655C7.9161 10.7825 4.87507 14.71 2.78938 19.3602C2.49038 20.0246 2.21326 20.1414 1.57151 19.8494C-0.331867 18.9733 -0.324569 19.4333 0.630766 17.4914C4.29896 10.0524 9.83406 4.46044 17.3017 0.810317C17.783 0.576709 18.2643 0.321211 18.8988 0Z" fill="#DD017F"/>
        <path d="M31.3975 11C32.4184 11 33.3217 11 34.3352 11C34.3352 11.3506 34.3352 11.6655 34.3352 11.9875C34.3352 17.7048 34.3205 23.4293 34.3572 29.1467C34.3572 29.6189 34.7024 30.0984 34.9007 30.5635C35.1577 31.1503 35.5616 31.7084 35.6571 32.3166C35.7746 33.068 36.0317 33.6547 36.5825 34.1842C38.8665 36.381 41.1285 38.5993 43.3978 40.8104C43.6108 41.0179 43.8017 41.2325 44 41.4401C43.9192 41.5832 43.8972 41.6762 43.8384 41.7334C42.1199 43.415 42.1052 43.4293 40.3647 41.7334C38.4038 39.8157 36.4796 37.8551 34.4894 35.9588C34.1369 35.6225 33.5861 35.3721 33.1014 35.3077C31.045 35.0429 29.6717 33.5832 30.0683 31.9374C30.1637 31.5438 30.318 31.0644 30.6191 30.8426C31.4122 30.2343 31.4049 29.4615 31.4049 28.6029C31.3829 23.093 31.3975 17.5832 31.3975 12.0733C31.3975 11.737 31.3975 11.415 31.3975 11Z" fill="#DD017F"/>
        </g>
        <defs>
        <clipPath id="clip0_51_6893">
        <rect width="66" height="66" fill="white"/>
        </clipPath>
        </defs>
    </symbol>

    <symbol xmlns="http://www.w3.org/2000/svg" viewBox="0 0 72 71" id='card7'>
        <g clip-path="url(#clip0_51_6903)">
        <path d="M0 55.8586C2.87662 52.9266 5.74604 49.9946 8.62987 47.0699C10.3097 45.3705 11.9607 43.6492 13.7198 42.0373C15.6592 40.2577 17.9807 39.1709 20.6266 39.0761C24.2242 38.9521 27.829 38.9303 31.4338 38.9011C34.8583 38.8719 38.2829 38.8865 41.7074 38.9011C43.5315 38.9084 45.132 39.4481 46.3288 40.9287C48.6358 43.7732 47.7202 47.9159 44.3317 49.236C42.587 49.9143 40.6765 50.1477 38.838 50.5635C37.8431 50.7896 36.8337 50.9354 35.8388 51.1688C35.4495 51.2564 35.0962 51.4752 34.7213 51.6356C34.743 51.745 34.7718 51.8544 34.7934 51.9638C35.0674 51.9857 35.3414 52.0295 35.6153 52.0295C39.6671 52.0368 43.7261 52.0513 47.7779 52.0076C48.2177 52.0003 48.7512 51.7377 49.0684 51.4168C53.6609 46.8292 58.1813 42.1613 62.8099 37.6101C65.3765 35.0865 69.3706 35.6117 71.1081 38.6093C72.4202 40.8703 72.3481 43.2699 70.4664 45.334C68.592 47.3835 66.6021 49.3309 64.6555 51.3074C61.0507 54.9688 57.3883 58.5645 53.8628 62.2988C51.9522 64.3191 49.7173 65.1798 47.0353 65.1725C38.6289 65.1579 30.2154 65.1725 21.809 65.1506C21.0592 65.1506 20.504 65.3475 19.9777 65.8945C18.3267 67.6158 16.6397 69.3006 14.9671 71C14.6066 71 14.2461 71 13.8857 71C13.8136 70.9052 13.7559 70.7885 13.6766 70.7083C9.29315 66.2884 4.90973 61.8685 0.519091 57.4486C0.382109 57.31 0.180236 57.2444 0.00720562 57.1423C-3.96018e-06 56.7119 0 56.2816 0 55.8586ZM14.0875 67.5939C14.2678 67.5647 14.4552 67.5429 14.6354 67.5137C15.7457 66.3248 16.8488 65.136 17.9663 63.9544C19.1342 62.7145 20.5834 62.2259 22.2632 62.2259C30.583 62.2477 38.9029 62.1894 47.2228 62.2696C49.1261 62.2842 50.568 61.657 51.8513 60.315C54.1512 57.9154 56.5087 55.5741 58.8446 53.211C61.988 50.031 65.153 46.8729 68.2819 43.6857C69.4427 42.5041 69.522 40.812 68.5559 39.7617C67.5898 38.7115 66.0109 38.6531 64.7132 39.6596C64.259 40.0097 63.8553 40.4181 63.4515 40.8266C59.0032 45.3486 54.5621 49.8779 50.0922 54.378C49.7894 54.6843 49.2775 54.925 48.8593 54.9323C44.238 54.9688 39.6094 54.9761 34.9809 54.925C34.4762 54.9177 33.8706 54.6406 33.4957 54.2905C32.2557 53.1454 31.1021 51.9055 29.9125 50.6948C29.6097 50.3884 29.3069 50.0894 28.8744 49.6518C29.6242 49.5424 30.1577 49.4913 30.6768 49.3819C33.7625 48.7328 36.841 48.0837 39.9194 47.42C41.0297 47.1793 42.1616 46.9678 43.2215 46.5739C44.4543 46.1144 44.8797 45.0495 44.5264 43.7659C44.1803 42.5041 43.1854 41.8258 41.6209 41.8258C35.3125 41.8185 29.0041 41.8477 22.703 41.8112C19.6677 41.7966 17.0507 42.7667 14.8806 44.9183C11.2181 48.5578 7.57727 52.2191 3.90759 55.8586C3.51827 56.2452 3.48944 56.5296 3.88596 56.9089C4.56366 57.558 5.21253 58.229 5.86139 58.9073C8.61545 61.8028 11.3479 64.6984 14.0875 67.5939Z" fill="#DD017F"/>
        <path d="M46.0448 4.07174C47.5084 2.42543 49.1647 1.23076 51.1567 0.560576C57.6036 -1.61022 64.6646 2.79694 65.8497 9.62986C66.3566 12.551 65.5356 15.0714 64.072 17.4826C62.5227 20.0468 60.7521 22.4361 58.6246 24.5341C54.8906 28.1982 51.021 31.6875 46.773 34.7179C46.209 35.1185 45.8663 35.0821 45.3165 34.6742C40.5473 31.1339 35.9567 27.3751 32.0371 22.8586C30.395 20.9646 28.9243 18.874 27.6034 16.7323C25.1118 12.6821 25.6615 8.67558 28.3031 4.93131C32.5154 -1.04931 40.326 -1.66849 45.4522 3.50354C45.6164 3.6638 45.7877 3.82406 46.0448 4.07174ZM46.0162 9.11993C45.545 8.36962 45.1381 7.6776 44.6883 7.00742C42.5607 3.86777 39.6763 2.48371 35.9352 3.07376C30.6949 3.89691 27.4036 9.87024 29.6668 14.7436C30.5306 16.6085 31.7443 18.364 33.0652 19.9375C36.6706 24.25 40.89 27.8995 45.3594 31.2577C45.902 31.6657 46.2304 31.6511 46.7159 31.2286C49.8501 28.4823 53.0629 25.8307 56.1257 23.0116C58.6031 20.7242 60.645 18.029 62.2015 14.984C63.0867 13.2576 63.3509 11.4292 62.8868 9.5206C62.0515 6.06043 59.9097 3.87506 56.5255 3.13932C52.9915 2.37444 50 3.47441 47.7582 6.42466C47.1371 7.24782 46.6373 8.15109 46.0162 9.11993Z" fill="#DD017F"/>
        </g>
        <defs>
        <clipPath id="clip0_51_6903">
        <rect width="72" height="71" fill="white"/>
        </clipPath>
        </defs>
    </symbol>

    <symbol xmlns="http://www.w3.org/2000/svg" viewBox="0 0 66 53" id='card8'>
        <g clip-path="url(#clip0_51_6911)">
        <path d="M65.9802 44.0541C65.8548 44.67 65.7558 45.2924 65.6041 45.9016C64.6539 49.7355 61.4403 52.4968 57.5207 52.8345C56.4253 52.9272 55.3299 52.9868 54.2346 52.9868C39.6449 52.9934 25.0618 52.9868 10.4721 53C7.054 53 4.07799 52.0399 1.94662 49.1859C1.00961 47.9344 0.263951 46.5969 0.488306 44.8752C0.303543 45.1864 0.15177 45.4513 0 45.7162C0 35.1745 0 24.6328 0 14.0911C0.0725855 14.1772 0.138575 14.2566 0.270548 14.4089C0.996403 10.767 3.12117 8.40966 6.60528 7.22438C6.60528 6.72776 6.58549 6.23114 6.61188 5.74113C6.65807 4.64856 7.14637 4.04599 8.21535 4.02612C11.099 3.97977 13.9826 3.97978 16.8662 4.03275C17.9946 4.05262 18.4433 4.64194 18.4829 5.80735C18.4895 6.05236 18.4829 6.29735 18.4829 6.58871C20.8782 6.58871 23.234 6.58871 25.3851 6.58871C26.1968 5.1187 26.8632 3.67517 27.7475 2.38394C28.8692 0.75501 30.5981 0.0531274 32.5249 0.039884C37.3287 -0.00646767 42.1392 -0.019711 46.9496 0.039884C49.4505 0.0729924 51.2453 1.3907 52.3869 3.59572C52.7894 4.37708 53.1128 5.20479 53.3833 6.03912C53.5417 6.52912 53.799 6.63507 54.2742 6.66156C55.7787 6.73439 57.3029 6.75424 58.781 6.99925C62.219 7.56871 65.2148 10.7736 65.6965 14.2169C65.7295 14.4619 65.8944 14.6936 66 14.9254C65.9802 24.6261 65.9802 34.3401 65.9802 44.0541ZM9.23156 6.66816C9.23156 6.91979 9.23156 7.08533 9.23156 7.25087C9.21836 8.70102 8.9874 9.01223 7.62148 9.43602C7.41032 9.50223 7.19915 9.56184 6.99459 9.63468C4.4937 10.5683 2.63947 13.0779 2.63947 15.614C2.62627 24.9638 2.61968 34.3136 2.63947 43.6701C2.64607 47.4577 5.59568 50.3447 9.37012 50.3447C25.0618 50.3447 40.76 50.3513 56.4517 50.3513C60.3845 50.3513 63.2945 47.5901 63.3209 43.6502C63.3737 34.3799 63.3605 25.1161 63.3275 15.8458C63.3143 12.6078 61.0642 9.92603 57.8836 9.42278C56.4055 9.19102 54.868 9.28372 53.3635 9.29697C52.4463 9.30359 51.8458 8.95927 51.5093 8.10507C51.12 7.13169 50.7702 6.13843 50.2819 5.21802C49.4307 3.60895 48.1968 2.61571 46.2238 2.6422C41.8026 2.70179 37.3749 2.68853 32.9472 2.6488C31.0996 2.62894 29.8656 3.52288 29.021 5.03924C28.5393 5.90005 28.2094 6.84694 27.8398 7.76073C27.3251 9.0321 26.9754 9.28374 25.6227 9.29036C23.234 9.29036 20.8386 9.29036 18.4499 9.29036C16.2262 9.29036 15.9292 9.01225 15.8104 6.8271C15.8104 6.78075 15.7576 6.74101 15.7181 6.67479C13.5933 6.66817 11.4553 6.66816 9.23156 6.66816Z" fill="#DD017F"/>
        <path d="M56 29.1238C55.9085 37.6693 49.4942 45.868 38.7123 45.9989C29.6173 46.1101 21.9869 38.0685 22 28.6658C22.0131 19.6885 29.8462 11.9544 38.9281 12.0002C48.8666 12.0591 55.8496 19.9437 56 29.1238ZM38.5489 43.3685C46.2642 43.7742 52.8615 37.6235 53.3781 29.7062C53.9208 21.4617 46.8592 14.696 39.4969 14.6044C30.9577 14.4932 25.0796 21.1346 24.635 27.9461C24.1512 35.3857 29.5192 43.1853 38.5489 43.3685Z" fill="#DD017F"/>
        <path d="M7 15.5064C7 14.2124 8.1495 13.0256 9.44347 13.0004C10.7312 12.9751 12.0063 14.2187 12 15.5064C11.9937 16.7625 10.7814 17.9808 9.51884 17.9998C8.15578 18.0187 7 16.8762 7 15.5064Z" fill="#DD017F"/>
        </g>
        <defs>
        <clipPath id="clip0_51_6911">
        <rect width="66" height="53" fill="white"/>
        </clipPath>
        </defs>
    </symbol>

    <symbol xmlns="http://www.w3.org/2000/svg" viewBox="0 0 12 12" id='arrowDiagonal'>
        <path d="M1.93846 11.3538C1.5816 11.7107 1.00301 11.7107 0.646154 11.3538C0.289293 10.997 0.289293 10.4184 0.646154 10.0615L8.86154 1.84615H1.84615C1.33635 1.84615 0.923077 1.43288 0.923077 0.923077C0.923077 0.413276 1.33635 0 1.84615 0H10C11.1046 0 12 0.895431 12 2V10.1538C12 10.6636 11.5867 11.0769 11.0769 11.0769C10.5671 11.0769 10.1538 10.6636 10.1538 10.1538V3.13846L1.93846 11.3538Z" fill="white"/>
    </symbol>

    <symbol xmlns="http://www.w3.org/2000/svg" viewBox="0 0 18 31" id='arrowLeft'>
        <path d="M16.6621 29.6053C15.9056 30.3724 14.6677 30.3724 13.9111 29.6053L1.38504 16.9044C0.617019 16.1256 0.61702 14.8744 1.38505 14.0956L13.9111 1.39469C14.6677 0.627572 15.9056 0.627572 16.6621 1.39469C17.404 2.14692 17.404 3.35558 16.6621 4.10781L6.11928 14.7978C5.73526 15.1872 5.73526 15.8128 6.11927 16.2022L16.6621 26.8922C17.404 27.6444 17.404 28.8531 16.6621 29.6053Z" fill="#303030"/>
    </symbol>   

    <symbol xmlns="http://www.w3.org/2000/svg" viewBox="0 0 18 31" id='arrowRight'>
        <path d="M4.08887 29.6053C3.33231 30.3724 2.09444 30.3724 1.33788 29.6053C0.59601 28.8531 0.59601 27.6444 1.33788 26.8922L11.8807 16.2022C12.2647 15.8128 12.2647 15.1872 11.8807 14.7978L1.33788 4.10781C0.596011 3.35558 0.59601 2.14692 1.33788 1.39469C2.09444 0.627572 3.33231 0.627572 4.08887 1.39469L16.615 14.0956C17.383 14.8744 17.383 16.1256 16.615 16.9044L4.08887 29.6053Z" fill="#303030"/>
    </symbol>

    <symbol xmlns="http://www.w3.org/2000/svg" viewBox="0 0 24 24" id='leanse'>
        <path d="M15.8053 15.8013L21 21M10.5 7.5V13.5M7.5 10.5H13.5M18 10.5C18 14.6421 14.6421 18 10.5 18C6.35786 18 3 14.6421 3 10.5C3 6.35786 6.35786 3 10.5 3C14.6421 3 18 6.35786 18 10.5Z" stroke="white" stroke-width="2" stroke-linecap="round" stroke-linejoin="round"/>
    </symbol>
</svg>