<svg>
    <symbol xmlns="http://www.w3.org/2000/svg" viewBox="0 0 19 21" id='profile'>
        <g clip-path="url(#clip0_2015_2932)">
        <path d="M10.0446 11.4999C7.02845 11.4856 4.58774 9.01721 4.59254 5.98329C4.59733 2.94457 7.09558 0.476208 10.1405 0.500173C13.1662 0.524138 15.6021 2.9925 15.5925 6.01684C15.5829 9.07473 13.1086 11.5143 10.0446 11.4999ZM10.1213 1.94285C7.91554 1.92368 6.04065 3.7402 6.01188 5.92577C5.98311 8.1449 7.83402 10.0525 10.0254 10.0669C12.2743 10.086 14.1204 8.28389 14.1492 6.0456C14.1827 3.81209 12.3654 1.96202 10.1213 1.94285Z"/>
        <path d="M9.82375 13.5C13.3737 13.6313 16.3426 15.216 18.3763 18.381C18.6079 18.7443 18.744 19.0901 18.3037 19.3747C17.8543 19.668 17.5501 19.4009 17.3277 19.042C16.2881 17.3654 14.7901 16.2141 12.9379 15.4787C8.90222 13.8765 4.25823 15.3123 1.90672 18.8713C1.81593 19.007 1.72967 19.2039 1.59802 19.2521C1.3438 19.3397 1.00787 19.436 0.803593 19.3353C0.649247 19.2609 0.567542 18.88 0.59932 18.6524C0.631097 18.416 0.817219 18.1927 0.967025 17.987C3.07339 15.1591 5.87431 13.5657 9.82375 13.5Z"/>
        </g>
        <defs>
        <clipPath id="clip0_2015_2932">
        <rect width="18" height="20" fill="white" transform="translate(0.592529 0.5)"/>
        </clipPath>
        </defs>
    </symbol>

    <symbol xmlns="http://www.w3.org/2000/svg" viewBox="0 0 18 25" id='mouse'>
        <g clip-path="url(#clip0_2015_2937)">
        <rect x="0.806452" y="0.806452" width="16.3871" height="23.3871" rx="8.19355" stroke="#303030" stroke-width="1.6129"/>
        <rect x="8" y="5" width="1" height="6" rx="0.5" fill="#303030"/>
        </g>
        <defs>
        <clipPath id="clip0_2015_2937">
        <rect width="18" height="25" fill="white"/>
        </clipPath>
        </defs>
    </symbol>

    <symbol xmlns="http://www.w3.org/2000/svg" viewBox="0 0 26 26" id='vk'>
        <g clip-path="url(#clip0_48_4759)">
        <path d="M13 26C20.1797 26 26 20.1797 26 13C26 5.8203 20.1797 0 13 0C5.8203 0 0 5.8203 0 13C0 20.1797 5.8203 26 13 26Z" fill="#2787F5"/>
        <path d="M14.8419 7H11.1581C7.79609 7 7 7.79609 7 11.1581V14.8419C7 18.2039 7.79609 19 11.1581 19H14.8419C18.2039 19 19 18.2039 19 14.8419V11.1581C19 7.79609 18.1954 7 14.8419 7ZM16.6881 15.5617H15.8149C15.4846 15.5617 15.383 15.2992 14.7903 14.698C14.2736 14.199 14.0451 14.1306 13.9171 14.1306C13.7392 14.1306 13.6883 14.1805 13.6883 14.427V15.2146C13.6883 15.4264 13.6205 15.5534 13.0616 15.5534C12.1385 15.5534 11.1139 14.9946 10.3939 13.9528C9.30994 12.4284 9.01355 11.2851 9.01355 11.0481C9.01355 10.9211 9.06345 10.8026 9.30994 10.8026H10.1831C10.4034 10.8026 10.488 10.9041 10.5726 11.1414C11.0044 12.3863 11.7244 13.4788 12.0195 13.4788C12.1296 13.4788 12.1805 13.4289 12.1805 13.1484V11.8611C12.1465 11.2684 11.8332 11.2175 11.8332 11.0059C11.8332 10.9044 11.9178 10.8026 12.0535 10.8026H13.4256C13.612 10.8026 13.6796 10.9041 13.6796 11.1244V12.8603C13.6796 13.0467 13.7642 13.1143 13.8151 13.1143C13.9251 13.1143 14.0184 13.0464 14.2215 12.8433C14.8482 12.1405 15.297 11.0565 15.297 11.0565C15.3563 10.9296 15.4579 10.8111 15.6782 10.8111H16.5514C16.8138 10.8111 16.8732 10.9465 16.8138 11.1329C16.7038 11.6411 15.6368 13.1484 15.6368 13.1484C15.5437 13.3009 15.5098 13.3687 15.6368 13.5379C15.7298 13.6649 16.0359 13.9273 16.238 14.1646C16.6107 14.5887 16.8986 14.9437 16.9747 15.1892C17.0608 15.4347 16.9336 15.5617 16.6881 15.5617Z" fill="white"/>
        </g>
        <defs>
        <clipPath id="clip0_48_4759">
        <rect width="26" height="26" fill="white"/>
        </clipPath>
        </defs>
    </symbol>

    <symbol xmlns="http://www.w3.org/2000/svg" viewBox="0 0 26 26" id='tg'>
        <g clip-path="url(#clip0_48_4762)">
        <path d="M13 0C9.55297 0 6.24406 1.37048 3.80859 3.80758C1.37061 6.24564 0.000675329 9.55212 0 13C0 16.4464 1.37109 19.7553 3.80859 22.1924C6.24406 24.6295 9.55297 26 13 26C16.447 26 19.7559 24.6295 22.1914 22.1924C24.6289 19.7553 26 16.4464 26 13C26 9.55358 24.6289 6.24467 22.1914 3.80758C19.7559 1.37048 16.447 0 13 0Z" fill="#229ED9"/>
        <path d="M5.96229 13.166C9.72109 11.4727 12.227 10.3562 13.4799 9.81684C17.0614 8.27664 17.8047 8.00914 18.2902 8.00008C18.397 7.99831 18.6347 8.0256 18.7898 8.15529C18.9187 8.26466 18.9549 8.41258 18.9731 8.51643C18.9892 8.62018 19.0113 8.85664 18.9932 9.04122C18.7998 11.1495 17.9598 16.2657 17.5328 18.6272C17.3535 19.6263 16.997 19.9613 16.6525 19.9941C15.9032 20.0653 15.3351 19.4824 14.61 18.9909C13.4759 18.2216 12.8353 17.7428 11.7334 16.9922C10.4604 16.1247 11.2863 15.6478 12.0114 14.8687C12.2008 14.6647 15.5003 11.5616 15.5627 11.2802C15.5708 11.245 15.5789 11.1137 15.5023 11.0445C15.4278 10.9752 15.317 10.9989 15.2364 11.0177C15.1216 11.0443 13.3107 12.2835 9.79764 14.7349C9.28397 15.1003 8.81866 15.2785 8.39967 15.2691C7.94039 15.2589 7.05407 14.9999 6.39538 14.7787C5.58963 14.5072 4.94705 14.3637 5.00345 13.9026C5.03165 13.6626 5.35193 13.417 5.96229 13.166Z" fill="white"/>
        </g>
        <defs>
        <linearGradient id="paint0_linear_48_4762" x1="1300" y1="0" x2="1300" y2="2600" gradientUnits="userSpaceOnUse">
        <stop stop-color="#2AABEE"/>
        <stop offset="1" stop-color="#229ED9"/>
        </linearGradient>
        <clipPath id="clip0_48_4762">
        <rect width="26" height="26" fill="white"/>
        </clipPath>
        </defs>
    </symbol>

    <symbol xmlns="http://www.w3.org/2000/svg" viewBox="0 0 26 26" id='wa'>
        <path d="M1.10419 12.3874C1.10359 14.5704 1.67656 16.7019 2.76605 18.5807L1 25L7.59888 23.2775C9.42404 24.2667 11.469 24.785 13.5471 24.7851H13.5526C20.4127 24.7851 25.9971 19.2278 26 12.3971C26.0013 9.08719 24.7077 5.97474 22.3573 3.6331C20.0074 1.29167 16.882 0.0015106 13.552 0C6.69107 0 1.10713 5.55701 1.1043 12.3874" fill="#60D669"/>
        <path d="M10.3051 7.55746C10.0654 7.0274 9.81328 7.0167 9.58541 7.00741C9.39881 6.99941 9.1855 7.00001 8.9724 7.00001C8.75909 7.00001 8.41251 7.07987 8.11957 7.39823C7.82632 7.71689 7 8.48695 7 10.0531C7 11.6194 8.14618 13.1331 8.30596 13.3457C8.46594 13.5579 10.5187 16.8748 13.7697 18.1508C16.4716 19.2113 17.0215 19.0004 17.6079 18.9472C18.1944 18.8942 19.5003 18.1773 19.7667 17.434C20.0334 16.6907 20.0334 16.0536 19.9534 15.9204C19.8735 15.7878 19.6602 15.7081 19.3403 15.549C19.0204 15.3898 17.4479 14.6196 17.1547 14.5134C16.8615 14.4072 16.6483 14.3542 16.435 14.673C16.2217 14.9912 15.6091 15.7081 15.4225 15.9204C15.236 16.1332 15.0493 16.1597 14.7295 16.0005C14.4094 15.8408 13.3794 15.505 12.1573 14.4206C11.2064 13.5768 10.5645 12.5347 10.3779 12.216C10.1913 11.8977 10.3579 11.7252 10.5183 11.5666C10.662 11.4239 10.8382 11.1948 10.9983 11.009C11.1578 10.8231 11.211 10.6905 11.3177 10.4782C11.4244 10.2657 11.371 10.0797 11.2912 9.92051C11.211 9.76128 10.5895 8.18688 10.3051 7.55746Z" fill="white"/>
        <defs>
        <linearGradient id="paint0_linear_2001_1024" x1="1251" y1="2500" x2="1251" y2="0" gradientUnits="userSpaceOnUse">
        <stop stop-color="#1FAF38"/>
        <stop offset="1" stop-color="#60D669"/>
        </linearGradient>
        </defs>
    </symbol>

    <symbol xmlns="http://www.w3.org/2000/svg" viewBox="0 0 40 40" id='play'>
        <path d="M15 25.3367C15 26.919 16.7505 27.8747 18.0815 27.019L26.383 21.6824C27.6076 20.8951 27.6076 19.1049 26.383 18.3176L18.0815 12.981C16.7505 12.1253 15 13.081 15 14.6633V25.3367ZM20 40C17.2333 40 14.6333 39.475 12.2 38.425C9.76667 37.375 7.65 35.95 5.85 34.15C4.05 32.35 2.625 30.2333 1.575 27.8C0.525 25.3667 0 22.7667 0 20C0 17.2333 0.525 14.6333 1.575 12.2C2.625 9.76667 4.05 7.65 5.85 5.85C7.65 4.05 9.76667 2.625 12.2 1.575C14.6333 0.525 17.2333 0 20 0C22.7667 0 25.3667 0.525 27.8 1.575C30.2333 2.625 32.35 4.05 34.15 5.85C35.95 7.65 37.375 9.76667 38.425 12.2C39.475 14.6333 40 17.2333 40 20C40 22.7667 39.475 25.3667 38.425 27.8C37.375 30.2333 35.95 32.35 34.15 34.15C32.35 35.95 30.2333 37.375 27.8 38.425C25.3667 39.475 22.7667 40 20 40ZM20 36C24.4667 36 28.25 34.45 31.35 31.35C34.45 28.25 36 24.4667 36 20C36 15.5333 34.45 11.75 31.35 8.65C28.25 5.55 24.4667 4 20 4C15.5333 4 11.75 5.55 8.65 8.65C5.55 11.75 4 15.5333 4 20C4 24.4667 5.55 28.25 8.65 31.35C11.75 34.45 15.5333 36 20 36Z" fill="white"/>
    </symbol>

    <symbol xmlns="http://www.w3.org/2000/svg" viewBox="0 0 14 15" id='tel'>
        <g clip-path="url(#clip0_2015_2784)">
        <path d="M13.4914 1.17294L10.6477 0.516702C10.3387 0.445609 10.0216 0.606934 9.89579 0.896772L8.58331 3.95921C8.46847 4.22717 8.54503 4.54162 8.77198 4.72482L10.429 6.08104C9.44462 8.17826 7.72474 9.92275 5.58377 10.9262L4.22754 9.26925C4.04161 9.0423 3.7299 8.96574 3.46193 9.08058L0.399495 10.3931C0.106923 10.5216 -0.0544016 10.8387 0.0166907 11.1477L0.672927 13.9914C0.741285 14.2867 1.00378 14.5 1.31276 14.5C8.31535 14.5 14 8.82629 14 1.81277C14 1.50652 13.7895 1.2413 13.4914 1.17294Z" fill="#7E5DDD"/>
        </g>
        <defs>
        <clipPath id="clip0_2015_2784">
        <rect width="14" height="14" fill="white" transform="translate(0 0.5)"/>
        </clipPath>
        </defs>
    </symbol>

    <symbol fill="none" xmlns="http://www.w3.org/2000/svg" viewBox="0 0 7 13" id='arrow'>
        <path d="M1 12L6 6.5L1 1" stroke="#9E9E9E" stroke-width="2" stroke-linecap="round" stroke-linejoin="round"/>
    </symbol>

    <symbol xmlns="http://www.w3.org/2000/svg" viewBox="0 0 8 6" id='arrowBottom'>
        <path d="M0.270704 1.2493C0.111791 1.04687 0.111792 0.762048 0.270704 0.559612C0.494307 0.274768 0.925693 0.274767 1.14929 0.559611L4 4.19108L6.8507 0.559612C7.07431 0.274768 7.50569 0.274768 7.7293 0.559612C7.88821 0.762048 7.88821 1.04687 7.7293 1.24931L4.78659 4.99797C4.38621 5.50801 3.61379 5.50801 3.21341 4.99797L0.270704 1.2493Z" fill="#303030"/>
    </symbol>

    <symbol xmlns="http://www.w3.org/2000/svg" viewBox="0 0 28 25" id='phone'>
        <path d="M20.9617 24.9994C20.5672 24.9426 20.1713 24.893 19.7791 24.8279C18.2491 24.5738 16.8207 24.0625 15.4314 23.4565C13.1561 22.4635 11.0403 21.2462 9.14274 19.7523C5.3411 16.7594 2.33343 13.2629 0.641799 8.95399C0.224147 7.88885 -0.0267334 6.7947 0.00227015 5.65929C0.0298235 4.56579 0.429348 3.6051 1.29873 2.81979C2.06805 2.12474 2.81489 1.40391 3.64004 0.764956C4.97566 -0.269876 6.35188 -0.257626 7.63311 0.819115C8.92739 1.90746 10.1774 3.04094 11.397 4.1957C12.3977 5.14349 12.3919 6.43042 11.4144 7.39497C10.73 8.07003 9.98675 8.69866 9.25731 9.33762C9.11302 9.46399 9.10069 9.55232 9.18552 9.71028C9.91061 11.063 10.9634 12.2036 12.1011 13.288C13.2591 14.3912 14.5331 15.3777 15.9666 16.1907C16.3429 16.4041 16.7504 16.5737 17.1347 16.7768C17.2884 16.858 17.3812 16.8439 17.5059 16.7304C18.1135 16.1785 18.7291 15.6336 19.3462 15.0901C19.8277 14.6652 20.3649 14.3229 21.0538 14.2216C21.9833 14.0849 22.7715 14.3532 23.4277 14.927C24.6205 15.9696 25.8017 17.0237 26.9814 18.0786C28.2503 19.2127 28.3533 20.4977 27.1801 21.6995C26.3672 22.5319 25.4689 23.3017 24.5661 24.0606C23.9259 24.599 23.1159 24.862 22.24 24.9555C22.1784 24.962 22.1182 24.9852 22.058 25C21.6933 24.9994 21.3271 24.9994 20.9617 24.9994ZM21.5106 23.7414C22.3582 23.7556 23.1377 23.5622 23.7518 23.0341C24.5726 22.3281 25.3702 21.5996 26.1432 20.8523C26.7225 20.2926 26.7146 19.6775 26.1171 19.1321C24.8866 18.0076 23.6351 16.9012 22.3749 15.8039C21.8717 15.3654 21.2184 15.3667 20.6579 15.7568C20.5288 15.8464 20.4106 15.9496 20.2939 16.0527C19.6196 16.6491 18.9503 17.2494 18.2745 17.8439C17.8177 18.2462 17.3399 18.3158 16.7765 18.0605C16.3784 17.88 15.9789 17.6982 15.596 17.4931C13.7869 16.5266 12.2171 15.3042 10.801 13.9192C9.6039 12.7484 8.51772 11.5092 7.78755 10.0494C7.46924 9.4137 7.5461 9.04425 8.10659 8.56327C8.78382 7.9817 9.46178 7.40013 10.1202 6.8018C10.8859 6.10611 10.8801 5.54066 10.131 4.83336C10.1187 4.82175 10.1057 4.81015 10.0926 4.79854C8.968 3.79853 7.84628 2.79464 6.71442 1.80108C6.53532 1.64376 6.32722 1.49288 6.101 1.40004C5.46509 1.13891 4.94448 1.37941 4.49347 1.77077C3.79376 2.37813 3.0868 2.98162 2.42479 3.62122C2.1159 3.91974 1.83892 4.27436 1.66345 4.64702C1.28205 5.45619 1.38357 6.30791 1.57354 7.14223C1.94406 8.76443 2.66842 10.2706 3.56971 11.709C5.16273 14.2506 7.19008 16.4905 9.61478 18.4422C12.0424 20.3958 14.7658 21.9368 17.8112 23.0148C18.9989 23.4345 20.2265 23.7086 21.5106 23.7414Z" fill="white"/>
    </symbol>

    <symbol xmlns="http://www.w3.org/2000/svg" viewBox="0 0 28 20" id='mail'>
        <path d="M0 1.97909C0.118464 1.43418 0.337588 0.943368 0.791586 0.565318C1.28461 0.154026 1.86255 0.000200114 2.50349 0.000200114C8.32535 0.00150373 14.1472 0.000850572 19.9697 0.000850572C21.8282 0.000850572 23.6873 -0.0017554 25.5458 0.00215546C26.5428 0.0041109 27.3172 0.399108 27.7493 1.26732C27.9041 1.57758 27.9869 1.94976 27.9883 2.29392C28.0027 7.42888 28.002 12.5638 27.9958 17.6995C27.9945 19.0578 26.9735 19.9912 25.5184 19.9919C18.8399 19.9932 12.1614 19.9925 5.4829 19.9925C4.51738 19.9925 3.55049 19.9677 2.58566 19.9984C1.21203 20.0421 0.190364 19.1967 0.0308141 18.0847C0.0273903 18.0606 0.0109562 18.0377 0 18.0143C0 12.6688 0 7.32394 0 1.97909ZM25.9176 1.19497C25.5081 1.06135 2.36791 1.08286 2.14742 1.19562C2.17275 1.22169 2.19603 1.24776 2.22274 1.27123C5.85061 4.42208 9.4778 7.57488 13.1091 10.7225C13.7192 11.2511 14.3013 11.2348 14.9278 10.6912C18.5105 7.58271 22.0911 4.47162 25.6731 1.36314C25.7389 1.30578 25.8176 1.26341 25.9176 1.19497ZM25.9498 18.8512C22.8464 16.0673 19.8184 13.3186 16.6411 10.714C16.3179 10.9917 16.0159 11.255 15.7098 11.5144C15.3092 11.8547 14.8669 12.1141 14.3211 12.1858C13.5186 12.2914 12.8612 12.0085 12.2812 11.5092C11.9731 11.2439 11.6643 10.9786 11.3123 10.6755C8.22195 13.3871 5.15079 16.0823 2.07962 18.7775C2.09537 18.8023 2.11044 18.8264 2.12619 18.8512C10.0414 18.8512 17.9572 18.8512 25.9498 18.8512ZM1.1908 18.0495C4.3051 15.3145 7.36736 12.6258 10.4454 9.9227C7.39133 7.26853 4.32428 4.60263 1.25722 1.93738C1.23531 1.95042 1.2134 1.96345 1.19149 1.97649C1.1908 7.31677 1.1908 12.6564 1.1908 18.0495ZM17.5525 9.92336C20.6429 12.6368 23.7037 15.3249 26.7955 18.0397C26.7955 12.6531 26.7955 7.31025 26.7955 1.8898C23.6688 4.60719 20.6045 7.27114 17.5525 9.92336Z" fill="white"/>
    </symbol>

    <symbol xmlns="http://www.w3.org/2000/svg" viewBox="0 0 30 30" id='cloak'>
        <path d="M15.0772 0.00221842C22.8876 0.034909 30.1738 6.09574 29.9968 15.4387C29.8396 24.0037 22.8089 30.0841 15.051 29.9991C6.21187 29.901 -0.0456159 23.2714 0.00025049 14.5757C0.0395645 6.72995 6.82779 -0.14162 15.0772 0.00221842ZM1.21244 15.0399C1.20588 22.5391 7.38474 28.7307 14.8937 28.7373C22.5599 28.7503 28.7257 22.598 28.7322 14.9353C28.7388 7.46221 22.5337 1.2837 15.0117 1.27716C7.39129 1.27062 1.21899 7.42952 1.21244 15.0399Z" fill="white"/>
        <path d="M13.0009 14.5737C13.0261 13.5919 13.8084 12.7949 14.8681 12.8332C15.5873 12.8587 16.0099 12.5654 16.4578 12.0554C18.079 10.2129 19.7507 8.4151 21.4034 6.60451C21.5107 6.48975 21.6053 6.32399 21.7378 6.27936C22.091 6.15823 22.6209 5.89684 22.8039 6.04348C23.2391 6.39412 22.8543 6.79577 22.5705 7.10817C20.6906 9.18015 18.8108 11.2457 16.9246 13.3177C16.8552 13.3942 16.7101 13.4707 16.7164 13.5409C16.7921 14.5928 16.0856 15.632 16.6092 16.6712C17.0697 17.5892 17.6248 18.4626 18.1295 19.3616C18.2619 19.5911 18.4449 19.8333 18.4575 20.0756C18.4701 20.3816 18.3313 20.6876 18.2556 21C17.9718 20.8725 17.568 20.8215 17.4293 20.5984C16.8615 19.6803 16.3064 18.7368 15.8837 17.7422C15.562 16.9963 15.1457 16.5691 14.3382 16.397C13.4866 16.2057 12.9757 15.4152 13.0009 14.5737Z" fill="white"/>
    </symbol>
</svg>