<svg>
    <symbol xmlns="http://www.w3.org/2000/svg" viewBox="0 0 19 21" id='profile'>
        <g clip-path="url(#clip0_2015_2932)">
        <path d="M10.0446 11.4999C7.02845 11.4856 4.58774 9.01721 4.59254 5.98329C4.59733 2.94457 7.09558 0.476208 10.1405 0.500173C13.1662 0.524138 15.6021 2.9925 15.5925 6.01684C15.5829 9.07473 13.1086 11.5143 10.0446 11.4999ZM10.1213 1.94285C7.91554 1.92368 6.04065 3.7402 6.01188 5.92577C5.98311 8.1449 7.83402 10.0525 10.0254 10.0669C12.2743 10.086 14.1204 8.28389 14.1492 6.0456C14.1827 3.81209 12.3654 1.96202 10.1213 1.94285Z"/>
        <path d="M9.82375 13.5C13.3737 13.6313 16.3426 15.216 18.3763 18.381C18.6079 18.7443 18.744 19.0901 18.3037 19.3747C17.8543 19.668 17.5501 19.4009 17.3277 19.042C16.2881 17.3654 14.7901 16.2141 12.9379 15.4787C8.90222 13.8765 4.25823 15.3123 1.90672 18.8713C1.81593 19.007 1.72967 19.2039 1.59802 19.2521C1.3438 19.3397 1.00787 19.436 0.803593 19.3353C0.649247 19.2609 0.567542 18.88 0.59932 18.6524C0.631097 18.416 0.817219 18.1927 0.967025 17.987C3.07339 15.1591 5.87431 13.5657 9.82375 13.5Z"/>
        </g>
        <defs>
        <clipPath id="clip0_2015_2932">
        <rect width="18" height="20" fill="white" transform="translate(0.592529 0.5)"/>
        </clipPath>
        </defs>
    </symbol>

    <symbol xmlns="http://www.w3.org/2000/svg" viewBox="0 0 18 25" id='mouse'>
        <g clip-path="url(#clip0_2015_2937)">
        <rect x="0.806452" y="0.806452" width="16.3871" height="23.3871" rx="8.19355" stroke="#303030" stroke-width="1.6129"/>
        <rect x="8" y="5" width="1" height="6" rx="0.5" fill="#303030"/>
        </g>
        <defs>
        <clipPath id="clip0_2015_2937">
        <rect width="18" height="25" fill="white"/>
        </clipPath>
        </defs>
    </symbol>
</svg>